<svg width="108" height="168" viewBox="0 0 108 168" fill="none" xmlns="http://www.w3.org/2000/svg">
    <path d="M107.336 116.387C105.403 96.0547 88.727 80.2701 67.4133 76.3462H67.3836L62.5085 75.6625C62.0328 75.603 61.587 75.5733 61.1113 75.5436C61.1113 75.5139 61.1411 75.4841 61.1411 75.4841L44.9997 73.2547C43.0081 73.2547 42.473 70.4604 44.2863 69.7173C44.2863 69.7173 54.304 64.8422 57.6036 63.2072C82.752 50.7817 94.4047 26.9115 81.1765 9.9676C77.0446 4.61689 70.9507 1.46591 63.9948 0.51467C48.7452 -1.98233 33.0498 4.46826 21.1296 22.8985C0.588811 54.6758 -6.18877 99.2056 6.20706 136.007C6.20706 136.036 6.23678 136.036 6.23678 136.066C26.302 187.433 110.873 170.994 107.336 116.387ZM51.4206 141.714C36.825 144.389 21.8133 137.523 17.8895 122.838V122.808C8.6446 90.7634 15.66 54.6163 35.5765 28.1303C38.8464 22.7796 46.278 21.2636 51.3611 25.0982C56.8605 29.0815 57.3064 37.4049 52.2529 41.953C52.2232 41.9827 52.1935 42.0124 52.1637 42.0124C52.0448 42.1313 33.8524 58.9861 33.7335 59.105L33.6146 59.2239C33.5552 59.2536 33.5254 59.3131 33.466 59.3725C24.34 67.8742 27.8477 83.4508 39.7085 87.2557L61.587 95.8466C87.6271 106.251 78.6201 137.285 51.4206 141.714Z" fill="url(#paint0_linear_832_1896)"/>
    <defs>
        <linearGradient id="paint0_linear_832_1896" x1="52.6576" y1="-3.21431" x2="52.6576" y2="150.528" gradientUnits="userSpaceOnUse">
            <stop stop-color="#E1EEC3"/>
            <stop offset="1" stop-color="#F05053"/>
        </linearGradient>
    </defs>
</svg>
