<svg width="81" height="81" viewBox="0 0 81 81" fill="none" xmlns="http://www.w3.org/2000/svg">
<path d="M20.2311 0.194069C18.9422 0.784828 18.5305 1.67992 18.5305 3.86393V5.43928L15.3619 5.54669C12.9272 5.61829 11.8352 5.72571 10.7432 6.01213C6.60792 7.10414 3.33191 9.75359 1.52383 13.4414C-0.123126 16.789 0.00218594 14.2469 0.00218594 42.8181C0.00218594 70.333 -0.0694209 68.4355 0.986781 71.2281C2.16829 74.4146 5.64123 77.8876 8.82774 79.0691C11.6204 80.1253 9.43639 80.0537 40.0125 80.0537C70.5887 80.0537 68.4047 80.1253 71.1973 79.0691C74.3839 77.8876 77.8568 74.4146 79.0383 71.2281C80.0945 68.4355 80.0229 70.333 80.0229 42.8181V17.5766L79.6112 16.1803C78.3938 11.9734 75.5475 8.62579 71.6628 6.85352C69.6578 5.92262 68.0825 5.6362 64.5916 5.52879L61.5304 5.45718L61.4588 3.5954C61.4051 1.60831 61.2261 1.19657 60.1699 0.40889C59.4717 -0.11026 57.789 -0.11026 57.0908 0.40889C56.0346 1.19657 55.8556 1.60831 55.8019 3.6312L55.7303 5.49298H40.0125H24.2948L24.2232 3.6312C24.1695 1.62621 23.9905 1.19657 22.9701 0.426796C22.3614 -0.020752 20.9472 -0.146057 20.2311 0.194069ZM18.5305 12.958C18.5305 14.4438 18.6021 14.8198 18.9422 15.4105C20.0163 17.326 22.7732 17.326 23.8473 15.4105C24.1874 14.8198 24.259 14.4438 24.259 12.958V11.2215H40.0125H55.7661V12.958C55.7661 14.4438 55.8377 14.8198 56.1778 15.4105C57.2519 17.326 60.0088 17.326 61.0829 15.4105C61.423 14.8198 61.4946 14.4438 61.4946 12.9401V11.1678L64.4126 11.2573C67.6707 11.3647 68.888 11.6512 70.5171 12.7432C73.2023 14.5334 74.3839 17.0396 74.3839 20.9601V22.8577H40.0125H5.64123L5.65913 20.8348C5.65913 19.5458 5.76654 18.418 5.96346 17.6483C6.59002 15.2494 8.25488 13.2802 10.5642 12.1882C12.1217 11.4364 13.1421 11.2752 16.1674 11.2394L18.5305 11.2215V12.958ZM74.3839 47.5441C74.3839 59.6815 74.3122 66.8422 74.2048 67.4509C73.7573 69.796 71.985 72.2127 69.9263 73.3226C67.7423 74.4862 69.4788 74.4146 40.0125 74.4146C10.5463 74.4146 12.2828 74.4862 10.0988 73.3226C8.84564 72.6424 7.28819 71.067 6.64373 69.796C5.60543 67.7552 5.64123 68.5071 5.64123 47.7053V28.5862H40.0125H74.3839V47.5441Z" fill="#EBEBEE"/>
</svg>
