<svg width="48" height="48" viewBox="0 0 48 48" fill="none" xmlns="http://www.w3.org/2000/svg">
<rect width="48" height="48" rx="24" fill="#050A30" fill-opacity="0.04"/>
<path fill-rule="evenodd" clip-rule="evenodd" d="M25.6288 32.4718L25.0867 33.3877C24.6035 34.204 23.3965 34.204 22.9133 33.3877L22.3712 32.4718C21.9507 31.7614 21.7405 31.4063 21.4028 31.2098C21.0651 31.0134 20.6399 31.0061 19.7896 30.9915C18.5342 30.9698 17.7469 30.8929 17.0866 30.6194C15.8614 30.1119 14.8881 29.1386 14.3806 27.9134C14 26.9946 14 25.8297 14 23.5V22.5C14 19.2266 14 17.5899 14.7368 16.3875C15.1491 15.7147 15.7147 15.1491 16.3875 14.7368C17.5899 14 19.2266 14 22.5 14H25.5C28.7734 14 30.4101 14 31.6125 14.7368C32.2853 15.1491 32.8509 15.7147 33.2632 16.3875C34 17.5899 34 19.2266 34 22.5V23.5C34 25.8297 34 26.9946 33.6194 27.9134C33.1119 29.1386 32.1386 30.1119 30.9134 30.6194C30.2531 30.8929 29.4658 30.9698 28.2104 30.9915C27.36 31.0061 26.9349 31.0134 26.5972 31.2098C26.2595 31.4062 26.0492 31.7614 25.6288 32.4718ZM20 23.75C19.5858 23.75 19.25 24.0858 19.25 24.5C19.25 24.9142 19.5858 25.25 20 25.25H25.5C25.9142 25.25 26.25 24.9142 26.25 24.5C26.25 24.0858 25.9142 23.75 25.5 23.75H20ZM19.25 21C19.25 20.5858 19.5858 20.25 20 20.25H28C28.4142 20.25 28.75 20.5858 28.75 21C28.75 21.4142 28.4142 21.75 28 21.75H20C19.5858 21.75 19.25 21.4142 19.25 21Z" fill="#050A30"/>
</svg>
