<svg width="48" height="48" viewBox="0 0 48 48" fill="none" xmlns="http://www.w3.org/2000/svg">
<rect width="48" height="48" rx="24" fill="#050A30" fill-opacity="0.04"/>
<path d="M27.5562 25.9062L27.1007 26.359C27.1007 26.359 26.0181 27.4355 23.0631 24.4972C20.1081 21.559 21.1907 20.4826 21.1907 20.4826L21.4775 20.1974C22.1841 19.4948 22.2507 18.3669 21.6342 17.5435L20.3733 15.8591C19.6103 14.8399 18.136 14.7053 17.2615 15.5748L15.6918 17.1355C15.2582 17.5667 14.9677 18.1256 15.0029 18.7456C15.093 20.3318 15.8107 23.7447 19.8154 27.7266C24.0621 31.9492 28.0468 32.117 29.6763 31.9651C30.1917 31.9171 30.6399 31.6546 31.0011 31.2954L32.4217 29.883C33.3806 28.9295 33.1102 27.2949 31.8833 26.628L29.9728 25.5894C29.1672 25.1515 28.1858 25.2801 27.5562 25.9062Z" fill="#050A30"/>
</svg>
