<svg width="80" height="80" viewBox="0 0 80 80" fill="none" xmlns="http://www.w3.org/2000/svg">
<path fill-rule="evenodd" clip-rule="evenodd" d="M40.0002 4.16666C25.7329 4.16666 14.1669 15.7326 14.1669 30V32.347C14.1669 34.6701 13.4792 36.9412 12.1906 38.8741L8.36196 44.6171C3.91831 51.2826 7.31067 60.3426 15.0393 62.4505C17.558 63.1374 20.098 63.7184 22.6527 64.1936L22.659 64.2107C25.2223 71.0503 32.0734 75.8333 40 75.8333C47.9266 75.8333 54.7777 71.0503 57.341 64.2107L57.3473 64.1937C59.9021 63.7185 62.4423 63.1374 64.9611 62.4505C72.6898 60.3426 76.0821 51.2826 71.6385 44.6171L67.8098 38.8741C66.5212 36.9412 65.8335 34.6701 65.8335 32.347V30C65.8335 15.7326 54.2676 4.16666 40.0002 4.16666ZM51.2549 65.1232C43.7784 66.0165 36.2216 66.0165 28.745 65.1232C31.1149 68.5283 35.2368 70.8333 40 70.8333C44.7632 70.8333 48.8851 68.5283 51.2549 65.1232ZM19.1669 30C19.1669 18.4941 28.4943 9.16666 40.0002 9.16666C51.5061 9.16666 60.8335 18.4941 60.8335 30V32.347C60.8335 35.6572 61.8134 38.8933 63.6495 41.6476L67.4782 47.3906C70.0288 51.2165 68.0816 56.4168 63.6455 57.6266C48.1647 61.8487 31.8357 61.8487 16.3549 57.6266C11.9188 56.4168 9.97163 51.2165 12.5222 47.3906L16.3509 41.6476C18.1871 38.8933 19.1669 35.6572 19.1669 32.347V30Z" fill="#EBEBEE"/>
</svg>
