<svg width="20" height="21" viewBox="0 0 20 21" fill="none" xmlns="http://www.w3.org/2000/svg">
<path d="M6.66669 4.84277C6.32502 4.84277 6.04169 4.55944 6.04169 4.21777V1.71777C6.04169 1.37611 6.32502 1.09277 6.66669 1.09277C7.00835 1.09277 7.29169 1.37611 7.29169 1.71777V4.21777C7.29169 4.55944 7.00835 4.84277 6.66669 4.84277Z" fill="#060A32"/>
<path d="M13.3333 4.84277C12.9916 4.84277 12.7083 4.55944 12.7083 4.21777V1.71777C12.7083 1.37611 12.9916 1.09277 13.3333 1.09277C13.675 1.09277 13.9583 1.37611 13.9583 1.71777V4.21777C13.9583 4.55944 13.675 4.84277 13.3333 4.84277Z" fill="#060A32"/>
<path d="M7.08333 12.1347C6.975 12.1347 6.86667 12.1097 6.76667 12.068C6.65833 12.0264 6.575 11.968 6.49167 11.893C6.34167 11.7347 6.25 11.5264 6.25 11.3014C6.25 11.193 6.275 11.0847 6.31667 10.9847C6.35833 10.8847 6.41667 10.793 6.49167 10.7097C6.575 10.6347 6.65833 10.5764 6.76667 10.5347C7.06667 10.4097 7.44167 10.4764 7.675 10.7097C7.825 10.868 7.91667 11.0847 7.91667 11.3014C7.91667 11.3514 7.90833 11.4097 7.9 11.468C7.89167 11.518 7.875 11.568 7.85 11.618C7.83333 11.668 7.80833 11.718 7.775 11.768C7.75 11.8097 7.70833 11.8514 7.675 11.893C7.51667 12.043 7.3 12.1347 7.08333 12.1347Z" fill="#060A32"/>
<path d="M10 12.1345C9.89169 12.1345 9.78335 12.1095 9.68335 12.0678C9.57502 12.0262 9.49169 11.9678 9.40835 11.8928C9.25835 11.7345 9.16669 11.5262 9.16669 11.3012C9.16669 11.1928 9.19169 11.0845 9.23336 10.9845C9.27502 10.8845 9.33335 10.7928 9.40835 10.7095C9.49169 10.6345 9.57502 10.5762 9.68335 10.5345C9.98335 10.4012 10.3584 10.4762 10.5917 10.7095C10.7417 10.8678 10.8334 11.0845 10.8334 11.3012C10.8334 11.3512 10.825 11.4095 10.8167 11.4678C10.8084 11.5178 10.7917 11.5678 10.7667 11.6178C10.75 11.6678 10.725 11.7178 10.6917 11.7678C10.6667 11.8095 10.625 11.8512 10.5917 11.8928C10.4334 12.0428 10.2167 12.1345 10 12.1345Z" fill="#060A32"/>
<path d="M12.9166 12.1345C12.8083 12.1345 12.7 12.1095 12.6 12.0678C12.4916 12.0262 12.4083 11.9678 12.325 11.8928C12.2916 11.8512 12.2583 11.8095 12.225 11.7678C12.1916 11.7178 12.1666 11.6678 12.15 11.6178C12.125 11.5678 12.1083 11.5178 12.1 11.4678C12.0916 11.4095 12.0833 11.3512 12.0833 11.3012C12.0833 11.0845 12.175 10.8678 12.325 10.7095C12.4083 10.6345 12.4916 10.5762 12.6 10.5345C12.9083 10.4012 13.275 10.4762 13.5083 10.7095C13.6583 10.8678 13.75 11.0845 13.75 11.3012C13.75 11.3512 13.7416 11.4095 13.7333 11.4678C13.725 11.5178 13.7083 11.5678 13.6833 11.6178C13.6666 11.6678 13.6416 11.7178 13.6083 11.7678C13.5833 11.8095 13.5416 11.8512 13.5083 11.8928C13.35 12.0428 13.1333 12.1345 12.9166 12.1345Z" fill="#060A32"/>
<path d="M7.08333 15.0513C6.975 15.0513 6.86667 15.0263 6.76667 14.9846C6.66667 14.9429 6.575 14.8846 6.49167 14.8096C6.34167 14.6513 6.25 14.4346 6.25 14.2179C6.25 14.1096 6.275 14.0013 6.31667 13.9013C6.35833 13.7929 6.41667 13.7013 6.49167 13.6263C6.8 13.3179 7.36667 13.3179 7.675 13.6263C7.825 13.7846 7.91667 14.0013 7.91667 14.2179C7.91667 14.4346 7.825 14.6513 7.675 14.8096C7.51667 14.9596 7.3 15.0513 7.08333 15.0513Z" fill="#060A32"/>
<path d="M10 15.0513C9.78335 15.0513 9.56669 14.9596 9.40835 14.8096C9.25835 14.6513 9.16669 14.4346 9.16669 14.2179C9.16669 14.1096 9.19169 14.0013 9.23336 13.9013C9.27502 13.7929 9.33335 13.7013 9.40835 13.6263C9.71669 13.3179 10.2834 13.3179 10.5917 13.6263C10.6667 13.7013 10.725 13.7929 10.7667 13.9013C10.8084 14.0013 10.8334 14.1096 10.8334 14.2179C10.8334 14.4346 10.7417 14.6513 10.5917 14.8096C10.4334 14.9596 10.2167 15.0513 10 15.0513Z" fill="#060A32"/>
<path d="M12.9166 15.0512C12.7 15.0512 12.4833 14.9595 12.325 14.8095C12.25 14.7345 12.1916 14.6429 12.15 14.5345C12.1083 14.4345 12.0833 14.3262 12.0833 14.2179C12.0833 14.1095 12.1083 14.0012 12.15 13.9012C12.1916 13.7929 12.25 13.7012 12.325 13.6262C12.5166 13.4345 12.8083 13.3429 13.075 13.4012C13.1333 13.4095 13.1833 13.4262 13.2333 13.4512C13.2833 13.4679 13.3333 13.4929 13.3833 13.5262C13.425 13.5512 13.4666 13.5929 13.5083 13.6262C13.6583 13.7845 13.75 14.0012 13.75 14.2179C13.75 14.4345 13.6583 14.6512 13.5083 14.8095C13.35 14.9595 13.1333 15.0512 12.9166 15.0512Z" fill="#060A32"/>
<path d="M17.0834 8.25146H2.91669C2.57502 8.25146 2.29169 7.96813 2.29169 7.62646C2.29169 7.2848 2.57502 7.00146 2.91669 7.00146H17.0834C17.425 7.00146 17.7084 7.2848 17.7084 7.62646C17.7084 7.96813 17.425 8.25146 17.0834 8.25146Z" fill="#060A32"/>
<path d="M13.3333 19.0094H6.66667C3.625 19.0094 1.875 17.2594 1.875 14.2178V7.13444C1.875 4.09277 3.625 2.34277 6.66667 2.34277H13.3333C16.375 2.34277 18.125 4.09277 18.125 7.13444V14.2178C18.125 17.2594 16.375 19.0094 13.3333 19.0094ZM6.66667 3.59277C4.28333 3.59277 3.125 4.75111 3.125 7.13444V14.2178C3.125 16.6011 4.28333 17.7594 6.66667 17.7594H13.3333C15.7167 17.7594 16.875 16.6011 16.875 14.2178V7.13444C16.875 4.75111 15.7167 3.59277 13.3333 3.59277H6.66667Z" fill="#060A32"/>
</svg>
