<svg width="48" height="48" viewBox="0 0 48 48" fill="none" xmlns="http://www.w3.org/2000/svg">
<rect width="48" height="48" rx="12" fill="#F9F7F6"/>
<path d="M40.1951 11.5H7.80506C7.67016 11.5 7.53502 11.5 7.40036 11.5008C7.28653 11.5016 7.17296 11.5028 7.0594 11.5059C6.81172 11.5125 6.56192 11.527 6.31734 11.5705C6.06885 11.6148 5.83762 11.6869 5.61204 11.8006C5.39027 11.9122 5.18725 12.0582 5.0113 12.2324C4.83527 12.4066 4.68776 12.6073 4.57501 12.827C4.46013 13.0502 4.38714 13.2791 4.34273 13.5253C4.29854 13.7674 4.28383 14.0146 4.27715 14.2594C4.2741 14.3718 4.27279 14.4842 4.27205 14.5966C4.27126 14.7302 4.27153 14.8636 4.27153 14.9974V33.0028C4.27153 33.1366 4.27126 33.2699 4.27205 33.4037C4.27279 33.516 4.2741 33.6284 4.27715 33.7408C4.28383 33.9855 4.29854 34.2327 4.34273 34.4747C4.38714 34.7209 4.46013 34.9498 4.57501 35.1731C4.68776 35.3928 4.83527 35.5936 5.0113 35.7676C5.18725 35.9421 5.39027 36.088 5.61204 36.1994C5.83762 36.3134 6.06885 36.3856 6.31734 36.4298C6.56192 36.473 6.81172 36.4878 7.0594 36.4944C7.17296 36.4969 7.28653 36.4984 7.40036 36.499C7.53502 36.5 7.67016 36.5 7.80506 36.5H40.1951C40.3298 36.5 40.4649 36.5 40.5996 36.499C40.7131 36.4984 40.8267 36.4969 40.9408 36.4944C41.1879 36.4878 41.4377 36.473 41.6829 36.4298C41.931 36.3856 42.1623 36.3134 42.3879 36.1994C42.6099 36.088 42.8123 35.9421 42.9887 35.7676C43.1644 35.5936 43.3119 35.3928 43.4249 35.1731C43.5401 34.9498 43.613 34.7209 43.6572 34.4747C43.7014 34.2327 43.7158 33.9855 43.7225 33.7408C43.7256 33.6284 43.7271 33.516 43.7276 33.4037C43.7287 33.2699 43.7287 33.1366 43.7287 33.0028V14.9974C43.7287 14.8636 43.7287 14.7302 43.7276 14.5966C43.7271 14.4842 43.7256 14.3718 43.7225 14.2594C43.7158 14.0146 43.7014 13.7674 43.6572 13.5253C43.613 13.2791 43.5401 13.0502 43.4249 12.827C43.3119 12.6073 43.1644 12.4066 42.9887 12.2324C42.8123 12.0582 42.6099 11.9122 42.3879 11.8006C42.1623 11.6869 41.931 11.6148 41.6829 11.5705C41.4377 11.527 41.1879 11.5125 40.9408 11.5059C40.8267 11.5028 40.7131 11.5016 40.5996 11.5008C40.4649 11.5 40.3298 11.5 40.1951 11.5Z" fill="black"/>
<path d="M40.1954 12.333L40.5939 12.3338C40.7018 12.3345 40.8098 12.3357 40.9183 12.3386C41.1071 12.3436 41.328 12.3538 41.5338 12.3903C41.7128 12.4222 41.8629 12.4707 42.0069 12.5433C42.1491 12.6148 42.2794 12.7085 42.3931 12.8209C42.5073 12.9341 42.6021 13.0632 42.6753 13.2055C42.7482 13.347 42.7969 13.4948 42.829 13.6732C42.8658 13.8747 42.876 14.0939 42.8811 14.2819C42.884 14.388 42.8855 14.4941 42.886 14.6028C42.887 14.7342 42.887 14.8655 42.887 14.9971V33.0025C42.887 33.1342 42.887 33.2653 42.886 33.3995C42.8855 33.5056 42.884 33.6117 42.8811 33.718C42.876 33.9057 42.8658 34.1248 42.8285 34.3287C42.7969 34.5046 42.7483 34.6525 42.6749 34.7946C42.6019 34.9366 42.5073 35.0656 42.3936 35.1781C42.2792 35.2913 42.1493 35.3847 42.0055 35.4569C41.8625 35.5291 41.7127 35.5776 41.5355 35.6091C41.3255 35.6462 41.0953 35.6564 40.922 35.661C40.813 35.6635 40.7045 35.6649 40.5933 35.6654C40.4609 35.6664 40.3279 35.6664 40.1954 35.6664H7.80536C7.8036 35.6664 7.80188 35.6664 7.80009 35.6664C7.66912 35.6664 7.5379 35.6664 7.40454 35.6654C7.29582 35.6649 7.18733 35.6635 7.08244 35.6611C6.90518 35.6564 6.67493 35.6462 6.46661 35.6094C6.2879 35.5776 6.13807 35.5291 5.99323 35.456C5.8507 35.3844 5.72095 35.2911 5.6065 35.1776C5.49294 35.0654 5.39856 34.9368 5.3256 34.7947C5.25256 34.6527 5.20369 34.5044 5.17156 34.3263C5.13441 34.1228 5.12421 33.9046 5.11911 33.7182C5.1162 33.6114 5.11499 33.5047 5.11429 33.3986L5.11377 33.0853L5.11379 33.0025V14.9971L5.11377 14.9144L5.11427 14.6018C5.11499 14.495 5.1162 14.3883 5.11911 14.2816C5.12421 14.095 5.13441 13.8767 5.17186 13.6715C5.20371 13.4951 5.25256 13.3468 5.32598 13.204C5.39837 13.063 5.49292 12.9342 5.60708 12.8213C5.72079 12.7087 5.85096 12.6151 5.9944 12.5429C6.13769 12.4707 6.2878 12.4222 6.46651 12.3904C6.67243 12.3537 6.89343 12.3436 7.08271 12.3386C7.1906 12.3357 7.29849 12.3345 7.40557 12.3338L7.80536 12.333H40.1954Z" fill="white"/>
<path d="M15.0432 19.9083C15.3811 19.4901 15.6103 18.9286 15.5499 18.3547C15.0553 18.3791 14.4518 18.6777 14.1024 19.0962C13.7887 19.4546 13.511 20.0397 13.5834 20.5894C14.1385 20.6371 14.6932 20.3148 15.0432 19.9083Z" fill="black"/>
<path d="M15.5433 20.697C14.7371 20.6495 14.0516 21.1499 13.6666 21.1499C13.2814 21.1499 12.6918 20.721 12.0541 20.7325C11.2241 20.7446 10.454 21.2091 10.0328 21.9478C9.16646 23.4255 9.80415 25.6175 10.6466 26.8211C11.0557 27.4165 11.5487 28.0721 12.1984 28.0486C12.8122 28.0247 13.0528 27.6552 13.7989 27.6552C14.5445 27.6552 14.7612 28.0486 15.411 28.0366C16.0848 28.0247 16.5061 27.4409 16.9152 26.8449C17.3845 26.1661 17.5766 25.5107 17.5887 25.4748C17.5766 25.4629 16.2894 24.9741 16.2774 23.5087C16.2653 22.2816 17.2881 21.6979 17.3362 21.6617C16.7586 20.8163 15.8562 20.721 15.5433 20.697Z" fill="black"/>
<path d="M22.5636 19.0364C24.3159 19.0364 25.5362 20.2318 25.5362 21.9723C25.5362 23.7191 24.2908 24.9207 22.5197 24.9207H20.5795V27.9744H19.1777V19.0364L22.5636 19.0364ZM20.5795 23.7562H22.1879C23.4084 23.7562 24.103 23.1059 24.103 21.9786C24.103 20.8513 23.4084 20.2071 22.1942 20.2071H20.5795V23.7562Z" fill="black"/>
<path d="M25.9023 26.1227C25.9023 24.9829 26.7848 24.283 28.3495 24.1963L30.1518 24.091V23.5893C30.1518 22.8646 29.6574 22.431 28.8314 22.431C28.0489 22.431 27.5608 22.8026 27.442 23.3849H26.1653C26.2404 22.208 27.2541 21.3408 28.8814 21.3408C30.4773 21.3408 31.4974 22.177 31.4974 23.484V27.9746H30.2018V26.9031H30.1707C29.789 27.6278 28.9565 28.0861 28.0929 28.0861C26.8036 28.0861 25.9023 27.2933 25.9023 26.1227ZM30.1518 25.5342V25.0202L28.5308 25.1192C27.7235 25.175 27.2667 25.528 27.2667 26.0855C27.2667 26.6553 27.7423 27.027 28.4683 27.027C29.4133 27.027 30.1518 26.3828 30.1518 25.5342Z" fill="black"/>
<path d="M32.7207 30.3715V29.2875C32.8207 29.3123 33.0459 29.3123 33.1587 29.3123C33.7845 29.3123 34.1225 29.0522 34.3289 28.3832C34.3289 28.3708 34.448 27.9868 34.448 27.9806L32.0698 21.4583H33.5341L35.1991 26.7604H35.2239L36.8889 21.4583H38.3157L35.8497 28.315C35.2867 29.8946 34.6358 30.4025 33.2714 30.4025C33.1587 30.4025 32.8207 30.39 32.7207 30.3715Z" fill="black"/>
</svg>
