<svg width="30" height="30" viewBox="0 0 30 30" fill="none" xmlns="http://www.w3.org/2000/svg">
<path fill-rule="evenodd" clip-rule="evenodd" d="M15.0001 1.5625C9.64982 1.5625 5.31258 5.89974 5.31258 11.25V12.1301C5.31258 13.0013 5.05472 13.8529 4.57149 14.5778L3.13574 16.7314C1.46937 19.231 2.7415 22.6285 5.63974 23.4189C6.58426 23.6765 7.53675 23.8944 8.49475 24.0726L8.49713 24.079C9.45837 26.6439 12.0275 28.4375 15 28.4375C17.9725 28.4375 20.5416 26.6439 21.5029 24.079L21.5052 24.0726C22.4633 23.8944 23.4158 23.6765 24.3604 23.4189C27.2587 22.6285 28.5308 19.231 26.8644 16.7314L25.4287 14.5778C24.9454 13.8529 24.6876 13.0013 24.6876 12.1301V11.25C24.6876 5.89974 20.3503 1.5625 15.0001 1.5625ZM19.2206 24.4212C16.4169 24.7562 13.5831 24.7562 10.7794 24.4212C11.6681 25.6981 13.2138 26.5625 15 26.5625C16.7862 26.5625 18.3319 25.6981 19.2206 24.4212ZM7.18758 11.25C7.18758 6.93528 10.6854 3.4375 15.0001 3.4375C19.3148 3.4375 22.8126 6.93528 22.8126 11.25V12.1301C22.8126 13.3715 23.18 14.585 23.8686 15.6178L25.3043 17.7715C26.2608 19.2062 25.5306 21.1563 23.8671 21.61C18.0618 23.1933 11.9384 23.1933 6.13308 21.61C4.46955 21.1563 3.73936 19.2062 4.69583 17.7715L6.13158 15.6178C6.82015 14.585 7.18758 13.3715 7.18758 12.1301V11.25Z" fill="#060A32"/>
</svg>
