<svg width="14" height="16" viewBox="0 0 14 16" fill="none" xmlns="http://www.w3.org/2000/svg">
<path d="M11.1997 16H2.66641C2.24206 16 1.83509 15.8314 1.53504 15.5314C1.23498 15.2313 1.06641 14.8243 1.06641 14.4V4.26667C1.06641 4.12522 1.1226 3.98957 1.22262 3.88955C1.32264 3.78953 1.45829 3.73334 1.59974 3.73334C1.74119 3.73334 1.87684 3.78953 1.97686 3.88955C2.07688 3.98957 2.13307 4.12522 2.13307 4.26667V14.4C2.13307 14.5415 2.18926 14.6771 2.28928 14.7771C2.3893 14.8771 2.52496 14.9333 2.66641 14.9333H11.1997C11.3412 14.9333 11.4768 14.8771 11.5769 14.7771C11.6769 14.6771 11.7331 14.5415 11.7331 14.4V4.26667C11.7331 4.12522 11.7893 3.98957 11.8893 3.88955C11.9893 3.78953 12.125 3.73334 12.2664 3.73334C12.4079 3.73334 12.5435 3.78953 12.6435 3.88955C12.7436 3.98957 12.7997 4.12522 12.7997 4.26667V14.4C12.7997 14.8243 12.6312 15.2313 12.3311 15.5314C12.0311 15.8314 11.6241 16 11.1997 16Z" fill="#EB4335"/>
<path d="M13.3331 3.2H0.533089C0.39164 3.2 0.255985 3.14381 0.155966 3.04379C0.0559462 2.94377 -0.000244141 2.80811 -0.000244141 2.66666C-0.000244141 2.52522 0.0559462 2.38956 0.155966 2.28954C0.255985 2.18952 0.39164 2.13333 0.533089 2.13333H13.3331C13.4745 2.13333 13.6102 2.18952 13.7102 2.28954C13.8102 2.38956 13.8664 2.52522 13.8664 2.66666C13.8664 2.80811 13.8102 2.94377 13.7102 3.04379C13.6102 3.14381 13.4745 3.2 13.3331 3.2Z" fill="#EB4335"/>
<path d="M9.06648 3.2C8.92503 3.2 8.78938 3.14381 8.68936 3.04379C8.58934 2.94377 8.53315 2.80812 8.53315 2.66667V1.06667H5.33315V2.66667C5.33315 2.80812 5.27696 2.94377 5.17694 3.04379C5.07692 3.14381 4.94126 3.2 4.79981 3.2C4.65836 3.2 4.52271 3.14381 4.42269 3.04379C4.32267 2.94377 4.26648 2.80812 4.26648 2.66667V0.533333C4.26648 0.391885 4.32267 0.256229 4.42269 0.15621C4.52271 0.0561903 4.65836 0 4.79981 0H9.06648C9.20793 0 9.34358 0.0561903 9.4436 0.15621C9.54362 0.256229 9.59981 0.391885 9.59981 0.533333V2.66667C9.59981 2.80812 9.54362 2.94377 9.4436 3.04379C9.34358 3.14381 9.20793 3.2 9.06648 3.2Z" fill="#EB4335"/>
<path d="M6.93311 13.3333C6.79166 13.3333 6.65601 13.2771 6.55599 13.1771C6.45597 13.0771 6.39978 12.9414 6.39978 12.8V5.33332C6.39978 5.19187 6.45597 5.05622 6.55599 4.9562C6.65601 4.85618 6.79166 4.79999 6.93311 4.79999C7.07456 4.79999 7.21022 4.85618 7.31024 4.9562C7.41026 5.05622 7.46645 5.19187 7.46645 5.33332V12.8C7.46645 12.9414 7.41026 13.0771 7.31024 13.1771C7.21022 13.2771 7.07456 13.3333 6.93311 13.3333Z" fill="#EB4335"/>
<path d="M9.59974 12.2667C9.45829 12.2667 9.32263 12.2105 9.22262 12.1105C9.1226 12.0104 9.06641 11.8748 9.06641 11.7333V6.4C9.06641 6.25855 9.1226 6.1229 9.22262 6.02288C9.32263 5.92286 9.45829 5.86667 9.59974 5.86667C9.74119 5.86667 9.87684 5.92286 9.97686 6.02288C10.0769 6.1229 10.1331 6.25855 10.1331 6.4V11.7333C10.1331 11.8748 10.0769 12.0104 9.97686 12.1105C9.87684 12.2105 9.74119 12.2667 9.59974 12.2667Z" fill="#EB4335"/>
<path d="M4.26649 12.2667C4.12504 12.2667 3.98938 12.2105 3.88936 12.1105C3.78934 12.0104 3.73315 11.8748 3.73315 11.7333V6.4C3.73315 6.25855 3.78934 6.1229 3.88936 6.02288C3.98938 5.92286 4.12504 5.86667 4.26649 5.86667C4.40794 5.86667 4.54359 5.92286 4.64361 6.02288C4.74363 6.1229 4.79982 6.25855 4.79982 6.4V11.7333C4.79982 11.8748 4.74363 12.0104 4.64361 12.1105C4.54359 12.2105 4.40794 12.2667 4.26649 12.2667Z" fill="#EB4335"/>
</svg>
