<svg width="48" height="48" viewBox="0 0 48 48" fill="none" xmlns="http://www.w3.org/2000/svg">
<rect width="48" height="48" rx="12" fill="#F9F7F6"/>
<path fill-rule="evenodd" clip-rule="evenodd" d="M39 16.5C39 16.9102 39 17.3203 39 17.7305C29 17.7305 19 17.7305 9 17.7305C9 17.3203 9 16.9102 9 16.5C9.3545 15.1202 10.2334 14.2902 11.6367 14.0098C19.8789 13.9707 28.1211 13.9707 36.3633 14.0098C37.7666 14.2902 38.6455 15.1202 39 16.5Z" fill="#060A32"/>
<path fill-rule="evenodd" clip-rule="evenodd" d="M9 17.7305C19 17.7305 29 17.7305 39 17.7305C39 19.4102 39 21.0898 39 22.7695C29 22.7695 19 22.7695 9 22.7695C9 21.0898 9 19.4102 9 17.7305Z" fill="#505266"/>
<path fill-rule="evenodd" clip-rule="evenodd" d="M9 22.7695C19 22.7695 29 22.7695 39 22.7695C39 25.6797 39 28.5898 39 31.5C38.6455 32.8798 37.7666 33.7099 36.3633 33.9902C28.1211 34.0293 19.8789 34.0293 11.6367 33.9902C10.2334 33.7099 9.3545 32.8798 9 31.5C9 28.5898 9 25.6797 9 22.7695Z" fill="#060A32"/>
<path fill-rule="evenodd" clip-rule="evenodd" d="M13.1016 26.5195C14.9376 26.5098 16.7735 26.5195 18.6094 26.5488C18.938 26.7408 19.0454 27.024 18.9316 27.3984C18.8449 27.5838 18.6984 27.6912 18.4922 27.7207C16.7149 27.7598 14.9375 27.7598 13.1601 27.7207C12.6407 27.3474 12.6212 26.947 13.1016 26.5195Z" fill="#F9F9F9"/>
<path fill-rule="evenodd" clip-rule="evenodd" d="M13.2185 28.9805C16.2264 28.9707 19.2342 28.9805 22.2419 29.0098C22.6854 29.1612 22.8319 29.4639 22.6814 29.918C22.5665 30.0724 22.42 30.1798 22.2419 30.2402C19.2341 30.2793 16.2263 30.2793 13.2185 30.2402C12.7487 30.0134 12.6413 29.6715 12.8962 29.2149C13.0024 29.1283 13.1098 29.0502 13.2185 28.9805Z" fill="#F3F6F9"/>
</svg>
