<svg width="48" height="48" viewBox="0 0 48 48" fill="none" xmlns="http://www.w3.org/2000/svg">
<rect width="48" height="48" rx="24" fill="#050A30" fill-opacity="0.04"/>
<path d="M27.5 19.5C27.5 21.433 25.933 23 24 23C22.067 23 20.5 21.433 20.5 19.5C20.5 17.567 22.067 16 24 16C25.933 16 27.5 17.567 27.5 19.5Z" fill="#050A30"/>
<path d="M30 28.5C30 30.433 27.3137 32 24 32C20.6863 32 18 30.433 18 28.5C18 26.567 20.6863 25 24 25C27.3137 25 30 26.567 30 28.5Z" fill="#050A30"/>
<path d="M19.122 17C19.2995 17 19.4728 17.0174 19.6401 17.0506C19.2325 17.7745 19 18.6101 19 19.5C19 20.3683 19.2213 21.1848 19.6106 21.8964C19.4524 21.9258 19.2891 21.9413 19.122 21.9413C17.7076 21.9413 16.561 20.8351 16.561 19.4706C16.561 18.1061 17.7076 17 19.122 17Z" fill="#050A30"/>
<path d="M17.4473 30.986C16.8794 30.3071 16.5 29.474 16.5 28.5C16.5 27.5558 16.8566 26.744 17.3958 26.0767C15.4911 26.2245 14 27.2662 14 28.5294C14 29.8044 15.5173 30.8538 17.4473 30.986Z" fill="#050A30"/>
<path d="M28.9999 19.5C28.9999 20.3683 28.7786 21.1848 28.3893 21.8964C28.5475 21.9258 28.7108 21.9413 28.8779 21.9413C30.2923 21.9413 31.4389 20.8351 31.4389 19.4706C31.4389 18.1061 30.2923 17 28.8779 17C28.7004 17 28.5272 17.0174 28.3599 17.0506C28.7674 17.7745 28.9999 18.6101 28.9999 19.5Z" fill="#050A30"/>
<path d="M30.5526 30.986C32.4826 30.8538 33.9999 29.8044 33.9999 28.5294C33.9999 27.2662 32.5088 26.2245 30.6041 26.0767C31.1433 26.744 31.4999 27.5558 31.4999 28.5C31.4999 29.474 31.1205 30.3071 30.5526 30.986Z" fill="#050A30"/>
</svg>
