<svg width="84" height="84" viewBox="0 0 84 84" fill="none" xmlns="http://www.w3.org/2000/svg">
<circle cx="31.5034" cy="21" r="14" fill="#E0EDC3"/>
<ellipse cx="31.5034" cy="59.5034" rx="24.5" ry="14" fill="#E0EDC3"/>
<path d="M73.4987 59.5016C73.4987 65.3006 66.3743 70.0015 57.6758 70.0015C60.2385 67.2004 62.0007 63.6843 62.0007 59.5065C62.0007 55.3238 60.2344 51.8044 57.6669 49.0017C66.3654 49.0017 73.4987 53.7026 73.4987 59.5016Z" fill="#E0EDC3"/>
<path d="M62.9987 21.0026C62.9987 26.8016 58.2977 31.5026 52.4987 31.5026C51.2342 31.5026 50.0219 31.279 48.8992 30.8693C50.555 27.957 51.5007 24.5883 51.5007 20.9987C51.5007 17.4117 50.5564 14.0453 48.9028 11.1344C50.0245 10.7256 51.2356 10.5026 52.4987 10.5026C58.2977 10.5026 62.9987 15.2036 62.9987 21.0026Z" fill="#E0EDC3"/>
</svg>
