<svg width="48" height="48" viewBox="0 0 48 48" fill="none" xmlns="http://www.w3.org/2000/svg">
<rect width="48" height="48" rx="24" fill="#050A30" fill-opacity="0.04"/>
<path d="M32 25.75C32 25.3358 31.6642 25 31.25 25H28.25C27.8358 25 27.5 25.3358 27.5 25.75V32.5H26V16.25C26 15.5217 25.9984 15.0509 25.9518 14.704C25.908 14.3787 25.8374 14.2768 25.7803 14.2197C25.7232 14.1626 25.6213 14.092 25.296 14.0482C24.9491 14.0016 24.4783 14 23.75 14C23.0217 14 22.5509 14.0016 22.204 14.0482C21.8787 14.092 21.7768 14.1626 21.7197 14.2197C21.6626 14.2768 21.592 14.3787 21.5482 14.704C21.5016 15.0509 21.5 15.5217 21.5 16.25V32.5H20V20.75C20 20.3358 19.6642 20 19.25 20H16.25C15.8358 20 15.5 20.3358 15.5 20.75V32.5H14H13.75C13.3358 32.5 13 32.8358 13 33.25C13 33.6642 13.3358 34 13.75 34H33.75C34.1642 34 34.5 33.6642 34.5 33.25C34.5 32.8358 34.1642 32.5 33.75 32.5H33.5H32V25.75Z" fill="#050A30"/>
</svg>
