<svg width="20" height="20" viewBox="0 0 20 20" fill="none" xmlns="http://www.w3.org/2000/svg">
<path fill-rule="evenodd" clip-rule="evenodd" d="M7.15013 0.00292057C10.3893 -0.00486742 13.6285 0.00292057 16.8676 0.0262799C18.6507 0.314379 19.6863 1.34997 19.9744 3.13307C20.0202 6.82505 20.0046 10.5158 19.9277 14.2054C19.5304 15.8173 18.5104 16.7439 16.8676 16.9851C16.5565 17.0085 16.2451 17.0162 15.9332 17.0085C15.7219 18.2952 15.0211 19.2062 13.8309 19.7415C13.5159 19.8709 13.1889 19.9487 12.8498 19.9751C9.61066 20.0063 6.37147 20.0063 3.13233 19.9751C1.34905 19.6868 0.313454 18.6513 0.0255414 16.8683C-0.0201261 13.5033 -0.00455476 10.1396 0.07226 6.77712C0.431788 5.26521 1.37395 4.3542 2.89874 4.04408C3.27216 4.02072 3.64591 4.01297 4.01998 4.02072C3.87305 2.14022 4.66727 0.85546 6.40263 0.166436C6.65515 0.0965353 6.90434 0.0420334 7.15013 0.00292057ZM7.19685 2.05854C10.4049 2.05075 13.6129 2.05854 16.8209 2.0819C17.4049 2.22984 17.7708 2.5958 17.9188 3.17979C17.9499 6.7304 17.9499 10.281 17.9188 13.8316C17.7708 14.4156 17.4049 14.7816 16.8209 14.9295C16.541 14.9528 16.2607 14.9606 15.9799 14.9529C15.9877 12.2587 15.9799 9.56463 15.9566 6.87056C15.6062 5.33664 14.664 4.39447 13.1301 4.04408C10.7631 4.02072 8.39602 4.01292 6.02888 4.02072C5.89634 3.03799 6.28565 2.38392 7.19685 2.05854Z" fill="url(#paint0_linear_6794_3869)"/>
<defs>
<linearGradient id="paint0_linear_6794_3869" x1="9.80192" y1="-0.384681" x2="9.80192" y2="18.0148" gradientUnits="userSpaceOnUse">
<stop stop-color="#E5BF8A"/>
<stop offset="1" stop-color="#F76513"/>
</linearGradient>
</defs>
</svg>
