<svg width="48" height="48" viewBox="0 0 48 48" fill="none" xmlns="http://www.w3.org/2000/svg">
<rect width="48" height="48" rx="24" fill="#050A30" fill-opacity="0.04"/>
<path d="M19 16.8294C19 18.3771 20.7259 20.0076 22.1497 21.0893C22.9489 21.6964 23.3484 22 24 22C24.6516 22 25.0512 21.6964 25.8503 21.0893C27.2741 20.0076 29 18.3772 29 16.8293C29 14.0392 26.2499 12.9975 24 15.1528C21.7501 12.9975 19 14.0392 19 16.8294Z" fill="#050A30"/>
<path d="M18.2599 33.3884H18C17.0572 33.3884 16.5858 33.3884 16.2929 33.0955C16 32.8026 16 32.3312 16 31.3884V30.2764C16 29.7579 16 29.4987 16.1332 29.2672C16.2664 29.0356 16.4673 28.9188 16.8691 28.6851C19.5146 27.1464 23.2715 26.2803 25.7791 27.7759C25.9475 27.8764 26.0991 27.9977 26.2285 28.1431C26.7866 28.77 26.746 29.7161 26.1028 30.2775C25.9669 30.396 25.8222 30.486 25.6764 30.5172C25.7962 30.5033 25.911 30.4874 26.0206 30.4699C26.932 30.3245 27.697 29.8375 28.3974 29.3084L30.2046 27.9433C30.8417 27.462 31.7873 27.4619 32.4245 27.943C32.9982 28.3762 33.1736 29.0894 32.8109 29.6707C32.388 30.3487 31.7921 31.216 31.2199 31.7459C30.6469 32.2766 29.7939 32.7504 29.0975 33.0865C28.326 33.4589 27.4738 33.6734 26.6069 33.8138C24.8488 34.0983 23.0166 34.0549 21.2763 33.6964C20.2925 33.4937 19.2708 33.3884 18.2599 33.3884Z" fill="#050A30"/>
</svg>
