<svg width="19" height="17" viewBox="0 0 19 17" fill="none" xmlns="http://www.w3.org/2000/svg">
<path d="M13.0562 10.9062L12.6007 11.359C12.6007 11.359 11.5181 12.4355 8.56312 9.49724C5.60812 6.55901 6.6907 5.48257 6.6907 5.48257L6.97752 5.19738C7.68407 4.49484 7.75068 3.36691 7.13424 2.54348L5.87326 0.859081C5.11028 -0.160084 3.63596 -0.294715 2.76145 0.574828L1.19185 2.13552C0.758229 2.56668 0.467652 3.12559 0.502888 3.74561C0.593035 5.33182 1.31071 8.74466 5.31536 12.7266C9.56214 16.9492 13.5468 17.117 15.1763 16.9651C15.6917 16.9171 16.1399 16.6546 16.5011 16.2954L17.9217 14.883C18.8806 13.9295 18.6102 12.2949 17.3833 11.628L15.4728 10.5894C14.6672 10.1515 13.6858 10.2801 13.0562 10.9062Z" fill="#050A30"/>
</svg>
