<svg width="32" height="32" viewBox="0 0 32 32" fill="none" xmlns="http://www.w3.org/2000/svg">
<rect width="32" height="32" rx="16" fill="url(#paint0_linear_6111_593)"/>
<path d="M22.6667 20.2333C22.6667 20.4733 22.6133 20.7267 22.4933 20.9667C22.3733 21.2067 22.2267 21.4333 22.04 21.6467C21.7067 22.0067 21.3467 22.2733 20.9467 22.4333C20.5467 22.6067 20.1066 22.6867 19.64 22.6867C18.96 22.6867 18.2266 22.5267 17.4666 22.1933C16.6933 21.86 15.9333 21.42 15.1733 20.8733C14.4 20.3133 13.68 19.6867 12.9866 19.0067C12.2933 18.3133 11.68 17.58 11.12 16.82C10.5734 16.06 10.1333 15.3 9.81331 14.54C9.49331 13.78 9.33333 13.0467 9.33333 12.3533C9.33333 11.9 9.41332 11.46 9.57332 11.06C9.73332 10.6467 9.98667 10.2733 10.3467 9.94C10.7733 9.51333 11.24 9.31334 11.7333 9.31334C11.92 9.31334 12.1067 9.35333 12.28 9.43333C12.4534 9.51333 12.6133 9.63333 12.7333 9.80667L14.2667 12.0067C14.3867 12.18 14.48 12.3267 14.5334 12.4733C14.6 12.62 14.6266 12.7533 14.6266 12.8867C14.6266 13.0467 14.5733 13.2067 14.48 13.3667C14.3866 13.5267 14.2667 13.6867 14.1067 13.8467L13.6 14.38C13.52 14.46 13.4933 14.54 13.4933 14.6467C13.4933 14.7 13.5067 14.7533 13.52 14.8067C13.5467 14.86 13.56 14.9 13.5733 14.94C13.6933 15.1667 13.9067 15.4467 14.2 15.7933C14.5067 16.14 14.8267 16.5 15.1733 16.8467C15.5333 17.2067 15.88 17.5267 16.24 17.8333C16.5867 18.1267 16.88 18.3267 17.1067 18.4467C17.1467 18.46 17.1866 18.4867 17.2266 18.5C17.28 18.5267 17.3333 18.5267 17.4 18.5267C17.52 18.5267 17.6 18.4867 17.68 18.4067L18.1867 17.9C18.36 17.7267 18.52 17.6067 18.6667 17.5267C18.8267 17.4333 18.9733 17.38 19.1466 17.38C19.28 17.38 19.4133 17.4067 19.56 17.4733C19.7066 17.54 19.8667 17.62 20.0267 17.74L22.24 19.3133C22.4133 19.4333 22.5334 19.58 22.6134 19.74C22.6267 19.8867 22.6667 20.0467 22.6667 20.2333Z" fill="white"/>
<defs>
<linearGradient id="paint0_linear_6111_593" x1="15.6831" y1="-0.615535" x2="15.6831" y2="28.8258" gradientUnits="userSpaceOnUse">
<stop stop-color="#E5BF8A"/>
<stop offset="1" stop-color="#F76513"/>
</linearGradient>
</defs>
</svg>
