<svg width="24" height="24" viewBox="0 0 24 24" fill="none" xmlns="http://www.w3.org/2000/svg">
<path d="M3.77791 3.65523C3.59687 4.01613 3.50783 4.46133 3.32975 5.35172L2.73183 8.34133C2.35324 10.2343 3.8011 12.0004 5.73155 12.0004C7.30318 12.0004 8.61911 10.8095 8.77549 9.24567L8.8445 8.55555C8.68141 10.4042 10.1385 12.0004 11.9998 12.0004C13.8737 12.0004 15.338 10.3824 15.1515 8.51777L15.2245 9.24567C15.3809 10.8095 16.6968 12.0004 18.2685 12.0004C20.1989 12.0004 21.6468 10.2343 21.2682 8.34133L20.6703 5.35172C20.4922 4.46134 20.4031 4.01613 20.2221 3.65523C19.8406 2.89479 19.1542 2.33207 18.3337 2.10714C17.9443 2.0004 17.4903 2.0004 16.5823 2.0004H14.4998H7.41771C6.50969 2.0004 6.05567 2.0004 5.66628 2.10714C4.84579 2.33207 4.15938 2.89479 3.77791 3.65523Z" fill="#060A32"/>
<path d="M18.2685 13.5001C19.0856 13.5001 19.8448 13.2878 20.5 12.9191V14.0001C20.5 17.7714 20.5 19.657 19.3284 20.8286C18.3853 21.7716 16.9796 21.9556 14.5 21.9914V18.5002C14.5 17.5655 14.5 17.0982 14.299 16.7502C14.1674 16.5221 13.978 16.3328 13.75 16.2011C13.4019 16.0002 12.9346 16.0002 12 16.0002C11.0654 16.0002 10.5981 16.0002 10.25 16.2011C10.022 16.3328 9.83261 16.5221 9.70096 16.7502C9.5 17.0982 9.5 17.5655 9.5 18.5002V21.9914C7.02043 21.9556 5.61466 21.7716 4.67157 20.8286C3.5 19.657 3.5 17.7714 3.5 14.0001V12.919C4.15524 13.2878 4.91439 13.5001 5.73157 13.5001C6.92864 13.5001 8.02617 13.0365 8.84435 12.2721C9.67168 13.0322 10.7765 13.5001 11.9998 13.5001C13.2232 13.5001 14.3281 13.0321 15.1555 12.2719C15.9737 13.0364 17.0713 13.5001 18.2685 13.5001Z" fill="#060A32"/>
</svg>
