<svg width="16" height="17" viewBox="0 0 16 17" fill="none" xmlns="http://www.w3.org/2000/svg">
<path d="M7.99992 15.5089C4.04659 15.5089 0.833252 12.2955 0.833252 8.3422C0.833252 4.38887 4.04659 1.17554 7.99992 1.17554C11.9533 1.17554 15.1666 4.38887 15.1666 8.3422C15.1666 12.2955 11.9533 15.5089 7.99992 15.5089ZM7.99992 2.17554C4.59992 2.17554 1.83325 4.9422 1.83325 8.3422C1.83325 11.7422 4.59992 14.5089 7.99992 14.5089C11.3999 14.5089 14.1666 11.7422 14.1666 8.3422C14.1666 4.9422 11.3999 2.17554 7.99992 2.17554Z" fill="#050A30" fill-opacity="0.6"/>
<path d="M10.4733 10.9622C10.3867 10.9622 10.3 10.9422 10.22 10.8889L8.15334 9.65554C7.64001 9.34888 7.26001 8.67554 7.26001 8.08221V5.34888C7.26001 5.07554 7.48668 4.84888 7.76001 4.84888C8.03334 4.84888 8.26001 5.07554 8.26001 5.34888V8.08221C8.26001 8.32221 8.46001 8.67554 8.66668 8.79554L10.7333 10.0289C10.9733 10.1689 11.0467 10.4755 10.9067 10.7155C10.8067 10.8755 10.64 10.9622 10.4733 10.9622Z" fill="#050A30" fill-opacity="0.6"/>
</svg>
