<svg width="24" height="24" viewBox="0 0 24 24" fill="none" xmlns="http://www.w3.org/2000/svg">
<path fill-rule="evenodd" clip-rule="evenodd" d="M5.54185 4.13863L5.63606 4.22182L12 10.585L18.364 4.22182C18.7545 3.83129 19.3877 3.83129 19.7782 4.22182C20.1387 4.5823 20.1664 5.14953 19.8614 5.54182L19.7782 5.63603L13.415 12L19.7782 18.364C20.1687 18.7545 20.1687 19.3876 19.7782 19.7782C19.4177 20.1387 18.8505 20.1664 18.4582 19.8614L18.364 19.7782L12 13.415L5.63606 19.7782C5.24554 20.1687 4.61237 20.1687 4.22185 19.7782C3.86136 19.4177 3.83363 18.8505 4.13866 18.4582L4.22185 18.364L10.585 12L4.22185 5.63603C3.83132 5.24551 3.83132 4.61234 4.22185 4.22182C4.55229 3.89137 5.05646 3.84054 5.44036 4.06931L5.54185 4.13863Z" fill="#050A30"/>
</svg>
