<svg width="381" height="80" viewBox="0 0 381 80" fill="none" xmlns="http://www.w3.org/2000/svg">
<path fill-rule="evenodd" clip-rule="evenodd" d="M1 7.822C1 4.05431 4.05432 1 7.82201 1H373.178C376.946 1 380 4.05432 380 7.82201V33.4043C376.588 33.4043 373.822 36.4586 373.822 40.2263C373.822 43.994 376.588 47.0483 380 47.0483V72.178C380 75.9457 376.946 79 373.178 79H7.82203C4.05434 79 1 75.9457 1 72.178L1 47.0483C4.41214 47.0483 7.17822 43.994 7.17822 40.2263C7.17822 36.4586 4.41214 33.4043 1 33.4043L1 7.822Z" fill="#FEEEEE"/>
<path d="M1 7.822H1.21319H1ZM380 33.4043V33.6175H380.213V33.4043H380ZM380 47.0483H380.213V46.8351H380V47.0483ZM1 72.178H1.21319H1ZM1 47.0483V46.8351H0.786812L0.786812 47.0483H1ZM1 33.4043H0.786812L0.786812 33.6175H1V33.4043ZM7.82201 0.786812C7.35244 0.786812 6.8934 0.832848 6.44924 0.920716L6.53199 1.33898C6.94904 1.25648 7.38037 1.21319 7.82201 1.21319V0.786812ZM3.913 1.97191C3.14589 2.48547 2.48548 3.14588 1.97191 3.91299L2.32622 4.15019C2.80878 3.4294 3.42941 2.80877 4.1502 2.32621L3.913 1.97191ZM0.920721 6.44923C0.832852 6.89339 0.786817 7.35243 0.786817 7.822H1.21319C1.21319 7.38036 1.25648 6.94904 1.33899 6.53198L0.920721 6.44923ZM0.786817 7.822L0.786817 9.10112H1.21319L1.21319 7.822H0.786817ZM0.786816 11.6593L0.786816 14.2176H1.21319L1.21319 11.6593L0.786816 11.6593ZM0.786815 16.7758L0.786815 19.334H1.21319L1.21319 16.7758H0.786815ZM0.786814 21.8923L0.786814 24.4505H1.21319L1.21319 21.8923H0.786814ZM0.786813 27.0087L0.786813 29.567H1.21319L1.21319 27.0087H0.786813ZM0.786813 32.1252L0.786812 33.4043H1.21319L1.21319 32.1252H0.786813ZM1 33.6175C1.41783 33.6175 1.82543 33.6651 2.21872 33.7555L2.31431 33.34C1.88999 33.2424 1.45034 33.1911 1 33.1911V33.6175ZM4.42085 34.8119C5.05895 35.3077 5.60637 35.9392 6.02824 36.6697L6.39746 36.4564C5.94905 35.6801 5.36565 35.0061 4.68247 34.4752L4.42085 34.8119ZM6.86094 38.9906C6.92926 39.3908 6.96503 39.8038 6.96503 40.2263H7.39141C7.39141 39.7797 7.35359 39.3427 7.28124 38.9189L6.86094 38.9906ZM6.96503 40.2263C6.96503 40.6488 6.92926 41.0618 6.86094 41.462L7.28124 41.5337C7.35359 41.1099 7.39141 40.6729 7.39141 40.2263H6.96503ZM6.02824 43.7829C5.60637 44.5134 5.05895 45.1449 4.42085 45.6408L4.68247 45.9774C5.36565 45.4465 5.94905 44.7726 6.39746 43.9962L6.02824 43.7829ZM2.21872 46.6971C1.82543 46.7875 1.41783 46.8351 1 46.8351V47.2615C1.45034 47.2615 1.88999 47.2102 2.31431 47.1126L2.21872 46.6971ZM0.786812 47.0483L0.786813 48.3048H1.21319L1.21319 47.0483H0.786812ZM0.786813 50.8178L0.786813 53.3307H1.21319L1.21319 50.8178H0.786813ZM0.786814 55.8437L0.786814 58.3567H1.21319L1.21319 55.8437H0.786814ZM0.786815 60.8696L0.786815 63.3826H1.21319L1.21319 60.8696H0.786815ZM0.786816 65.8956L0.786816 68.4085H1.21319L1.21319 65.8956H0.786816ZM0.786817 70.9215L0.786817 72.178H1.21319L1.21319 70.9215H0.786817ZM0.786817 72.178C0.786817 72.6476 0.832853 73.1066 0.920722 73.5508L1.33899 73.468C1.25648 73.051 1.21319 72.6196 1.21319 72.178H0.786817ZM1.97192 76.087C2.48549 76.8541 3.1459 77.5145 3.91301 78.0281L4.15021 77.6738C3.42942 77.1912 2.80879 76.5706 2.32623 75.8498L1.97192 76.087ZM6.44926 79.0793C6.89342 79.1672 7.35245 79.2132 7.82203 79.2132V78.7868C7.38038 78.7868 6.94906 78.7435 6.532 78.661L6.44926 79.0793ZM7.82203 79.2132H9.10849V78.7868H7.82203V79.2132ZM11.6814 79.2132H14.2544V78.7868H11.6814V79.2132ZM16.8273 79.2132H19.4002V78.7868H16.8273V79.2132ZM21.9731 79.2132H24.5461V78.7868H21.9731V79.2132ZM27.119 79.2132H29.6919V78.7868H27.119V79.2132ZM32.2649 79.2132H34.8378V78.7868H32.2649V79.2132ZM37.4107 79.2132H39.9836V78.7868H37.4107V79.2132ZM42.5566 79.2132H45.1295V78.7868H42.5566V79.2132ZM47.7024 79.2132H50.2754V78.7868H47.7024V79.2132ZM52.8483 79.2132H55.4212V78.7868H52.8483V79.2132ZM57.9941 79.2132H60.5671V78.7868H57.9941V79.2132ZM63.14 79.2132H65.7129V78.7868H63.14V79.2132ZM68.2859 79.2132H70.8588V78.7868H68.2859V79.2132ZM73.4317 79.2132H76.0047V78.7868H73.4317V79.2132ZM78.5776 79.2132H81.1505V78.7868H78.5776V79.2132ZM83.7234 79.2132H86.2964V78.7868H83.7234V79.2132ZM88.8693 79.2132H91.4422V78.7868H88.8693V79.2132ZM94.0152 79.2132H96.5881V78.7868H94.0152V79.2132ZM99.161 79.2132H101.734V78.7868H99.161V79.2132ZM104.307 79.2132H106.88V78.7868H104.307V79.2132ZM109.453 79.2132H112.026V78.7868H109.453V79.2132ZM114.599 79.2132H117.172V78.7868H114.599V79.2132ZM119.744 79.2132H122.317V78.7868H119.744V79.2132ZM124.89 79.2132H127.463V78.7868H124.89V79.2132ZM130.036 79.2132H132.609V78.7868H130.036V79.2132ZM135.182 79.2132H137.755V78.7868H135.182V79.2132ZM140.328 79.2132H142.901V78.7868H140.328V79.2132ZM145.474 79.2132H148.047V78.7868H145.474V79.2132ZM150.62 79.2132H153.193V78.7868H150.62V79.2132ZM155.766 79.2132H158.338V78.7868H155.766V79.2132ZM160.911 79.2132H163.484V78.7868H160.911V79.2132ZM166.057 79.2132H168.63V78.7868H166.057V79.2132ZM171.203 79.2132H173.776V78.7868H171.203V79.2132ZM176.349 79.2132H178.922V78.7868H176.349V79.2132ZM181.495 79.2132H184.068V78.7868H181.495V79.2132ZM186.641 79.2132H189.214V78.7868H186.641V79.2132ZM191.787 79.2132H194.36V78.7868H191.787V79.2132ZM196.933 79.2132H199.505V78.7868H196.933V79.2132ZM202.078 79.2132H204.651V78.7868H202.078V79.2132ZM207.224 79.2132H209.797V78.7868H207.224V79.2132ZM212.37 79.2132H214.943V78.7868H212.37V79.2132ZM217.516 79.2132H220.089V78.7868H217.516V79.2132ZM222.662 79.2132H225.235V78.7868H222.662V79.2132ZM227.808 79.2132H230.381V78.7868H227.808V79.2132ZM232.954 79.2132H235.527V78.7868H232.954V79.2132ZM238.1 79.2132H240.672V78.7868H238.1V79.2132ZM243.245 79.2132H245.818V78.7868H243.245V79.2132ZM248.391 79.2132H250.964V78.7868H248.391V79.2132ZM253.537 79.2132H256.11V78.7868H253.537V79.2132ZM258.683 79.2132H261.256V78.7868H258.683V79.2132ZM263.829 79.2132H266.402V78.7868H263.829V79.2132ZM268.975 79.2132H271.548V78.7868H268.975V79.2132ZM274.121 79.2132H276.694V78.7868H274.121V79.2132ZM279.266 79.2132H281.839V78.7868H279.266V79.2132ZM284.412 79.2132H286.985V78.7868H284.412V79.2132ZM289.558 79.2132H292.131V78.7868H289.558V79.2132ZM294.704 79.2132H297.277V78.7868H294.704V79.2132ZM299.85 79.2132H302.423V78.7868H299.85V79.2132ZM304.996 79.2132H307.569V78.7868H304.996V79.2132ZM310.142 79.2132H312.715V78.7868H310.142V79.2132ZM315.288 79.2132H317.861V78.7868H315.288V79.2132ZM320.433 79.2132H323.006V78.7868H320.433V79.2132ZM325.579 79.2132H328.152V78.7868H325.579V79.2132ZM330.725 79.2132H333.298V78.7868H330.725V79.2132ZM335.871 79.2132H338.444V78.7868H335.871V79.2132ZM341.017 79.2132H343.59V78.7868H341.017V79.2132ZM346.163 79.2132H348.736V78.7868H346.163V79.2132ZM351.309 79.2132H353.882V78.7868H351.309V79.2132ZM356.455 79.2132H359.028V78.7868H356.455V79.2132ZM361.6 79.2132H364.173V78.7868H361.6V79.2132ZM366.746 79.2132H369.319V78.7868H366.746V79.2132ZM371.892 79.2132H373.178V78.7868H371.892V79.2132ZM373.178 79.2132C373.648 79.2132 374.107 79.1672 374.551 79.0793L374.468 78.661C374.051 78.7435 373.62 78.7868 373.178 78.7868V79.2132ZM377.087 78.0281C377.854 77.5145 378.515 76.8541 379.028 76.087L378.674 75.8498C378.191 76.5706 377.571 77.1912 376.85 77.6738L377.087 78.0281ZM380.079 73.5508C380.167 73.1066 380.213 72.6476 380.213 72.178H379.787C379.787 72.6196 379.744 73.051 379.661 73.468L380.079 73.5508ZM380.213 72.178V70.9215H379.787V72.178H380.213ZM380.213 68.4085V65.8956H379.787V68.4085H380.213ZM380.213 63.3826V60.8696H379.787V63.3826H380.213ZM380.213 58.3567V55.8437H379.787V58.3567H380.213ZM380.213 53.3307V50.8178H379.787V53.3307H380.213ZM380.213 48.3048V47.0483H379.787V48.3048H380.213ZM380 46.8351C379.582 46.8351 379.175 46.7875 378.781 46.6971L378.686 47.1126C379.11 47.2102 379.55 47.2615 380 47.2615V46.8351ZM376.579 45.6408C375.941 45.1449 375.394 44.5134 374.972 43.7829L374.603 43.9962C375.051 44.7726 375.634 45.4465 376.318 45.9774L376.579 45.6408ZM374.139 41.462C374.071 41.0618 374.035 40.6488 374.035 40.2263H373.609C373.609 40.6729 373.646 41.1099 373.719 41.5337L374.139 41.462ZM374.035 40.2263C374.035 39.8038 374.071 39.3908 374.139 38.9906L373.719 38.9189C373.646 39.3427 373.609 39.7797 373.609 40.2263H374.035ZM374.972 36.6697C375.394 35.9392 375.941 35.3077 376.579 34.8119L376.318 34.4752C375.634 35.0061 375.051 35.6801 374.603 36.4564L374.972 36.6697ZM378.781 33.7555C379.175 33.6651 379.582 33.6175 380 33.6175V33.1911C379.55 33.1911 379.11 33.2424 378.686 33.34L378.781 33.7555ZM380.213 33.4043V32.1252H379.787V33.4043H380.213ZM380.213 29.567V27.0087H379.787V29.567H380.213ZM380.213 24.4505V21.8923H379.787V24.4505H380.213ZM380.213 19.334V16.7758H379.787V19.334H380.213ZM380.213 14.2176V11.6593H379.787V14.2176H380.213ZM380.213 9.10112V7.82201H379.787V9.10112H380.213ZM380.213 7.82201C380.213 7.35243 380.167 6.8934 380.079 6.44924L379.661 6.53198C379.744 6.94904 379.787 7.38036 379.787 7.82201H380.213ZM379.028 3.91299C378.515 3.14588 377.854 2.48547 377.087 1.97191L376.85 2.32621C377.571 2.80877 378.191 3.4294 378.674 4.15019L379.028 3.91299ZM374.551 0.920716C374.107 0.832848 373.648 0.786812 373.178 0.786812V1.21319C373.62 1.21319 374.051 1.25648 374.468 1.33898L374.551 0.920716ZM373.178 0.786812H371.892V1.21319H373.178V0.786812ZM369.319 0.786812H366.746V1.21319H369.319V0.786812ZM364.173 0.786812H361.6V1.21319H364.173V0.786812ZM359.027 0.786812H356.454V1.21319H359.027V0.786812ZM353.881 0.786812H351.308V1.21319H353.881V0.786812ZM348.735 0.786812H346.162V1.21319H348.735V0.786812ZM343.589 0.786812H341.016V1.21319H343.589V0.786812ZM338.443 0.786812H335.871V1.21319H338.443V0.786812ZM333.298 0.786812H330.725V1.21319H333.298V0.786812ZM328.152 0.786812H325.579V1.21319H328.152V0.786812ZM323.006 0.786812H320.433V1.21319H323.006V0.786812ZM317.86 0.786812H315.287V1.21319H317.86V0.786812ZM312.714 0.786812H310.141V1.21319H312.714V0.786812ZM307.568 0.786812H304.995V1.21319H307.568V0.786812ZM302.422 0.786812H299.849V1.21319H302.422V0.786812ZM297.277 0.786812H294.704V1.21319H297.277V0.786812ZM292.131 0.786812H289.558V1.21319H292.131V0.786812ZM286.985 0.786812H284.412V1.21319H286.985V0.786812ZM281.839 0.786812H279.266V1.21319H281.839V0.786812ZM276.693 0.786812H274.12V1.21319H276.693V0.786812ZM271.547 0.786812H268.974V1.21319H271.547V0.786812ZM266.401 0.786812H263.828V1.21319H266.401V0.786812ZM261.256 0.786812H258.683V1.21319H261.256V0.786812ZM256.11 0.786812H253.537V1.21319H256.11V0.786812ZM250.964 0.786812H248.391V1.21319H250.964V0.786812ZM245.818 0.786812H243.245V1.21319H245.818V0.786812ZM240.672 0.786812H238.099V1.21319H240.672V0.786812ZM235.526 0.786812H232.953V1.21319H235.526V0.786812ZM230.38 0.786812H227.807V1.21319H230.38V0.786812ZM225.234 0.786812H222.662V1.21319H225.234V0.786812ZM220.089 0.786812H217.516V1.21319H220.089V0.786812ZM214.943 0.786812H212.37V1.21319H214.943V0.786812ZM209.797 0.786812H207.224V1.21319H209.797V0.786812ZM204.651 0.786812H202.078V1.21319H204.651V0.786812ZM199.505 0.786812H196.932V1.21319H199.505V0.786812ZM194.359 0.786812H191.786V1.21319H194.359V0.786812ZM189.213 0.786812H186.64V1.21319H189.213V0.786812ZM184.068 0.786812H181.495V1.21319H184.068V0.786812ZM178.922 0.786812H176.349V1.21319H178.922V0.786812ZM173.776 0.786812H171.203V1.21319H173.776V0.786812ZM168.63 0.786812H166.057V1.21319H168.63V0.786812ZM163.484 0.786812H160.911V1.21319H163.484V0.786812ZM158.338 0.786812H155.765V1.21319H158.338V0.786812ZM153.192 0.786812H150.619V1.21319H153.192V0.786812ZM148.046 0.786812H145.473V1.21319H148.046V0.786812ZM142.9 0.786812H140.328V1.21319H142.9V0.786812ZM137.755 0.786812H135.182V1.21319H137.755V0.786812ZM132.609 0.786812H130.036V1.21319H132.609V0.786812ZM127.463 0.786812H124.89V1.21319H127.463V0.786812ZM122.317 0.786812H119.744V1.21319H122.317V0.786812ZM117.171 0.786812H114.598V1.21319H117.171V0.786812ZM112.025 0.786812H109.452V1.21319H112.025V0.786812ZM106.879 0.786812H104.306V1.21319H106.879V0.786812ZM101.734 0.786812H99.1606V1.21319H101.734V0.786812ZM96.5876 0.786812H94.0147V1.21319H96.5876V0.786812ZM91.4418 0.786812H88.8688V1.21319H91.4418V0.786812ZM86.2959 0.786812H83.723V1.21319H86.2959V0.786812ZM81.15 0.786812H78.5771V1.21319H81.15V0.786812ZM76.0042 0.786812H73.4312V1.21319H76.0042V0.786812ZM70.8583 0.786812H68.2853V1.21319H70.8583V0.786812ZM65.7124 0.786812H63.1395V1.21319H65.7124V0.786812ZM60.5665 0.786812H57.9936V1.21319H60.5665V0.786812ZM55.4206 0.786812H52.8477V1.21319H55.4206V0.786812ZM50.2748 0.786812H47.7018V1.21319H50.2748V0.786812ZM45.1289 0.786812H42.556V1.21319H45.1289V0.786812ZM39.983 0.786812H37.4101V1.21319H39.983V0.786812ZM34.8371 0.786812H32.2642V1.21319H34.8371V0.786812ZM29.6913 0.786812H27.1183V1.21319H29.6913V0.786812ZM24.5454 0.786812H21.9725V1.21319H24.5454V0.786812ZM19.3995 0.786812H16.8266V1.21319H19.3995V0.786812ZM14.2536 0.786812H11.6807V1.21319H14.2536V0.786812ZM9.10779 0.786812H7.82201V1.21319H9.10779V0.786812Z" fill="#EB4335"/>
</svg>
