<svg width="30" height="30" viewBox="0 0 30 30" fill="none" xmlns="http://www.w3.org/2000/svg">
<path fill-rule="evenodd" clip-rule="evenodd" d="M29.625 15C29.625 23.0772 23.0772 29.625 15 29.625C6.92284 29.625 0.375 23.0772 0.375 15C0.375 6.92284 6.92284 0.375 15 0.375C23.0772 0.375 29.625 6.92284 29.625 15ZM20.8944 10.5681C21.3227 10.9965 21.3227 11.691 20.8944 12.1194L13.5819 19.4319C13.1535 19.8602 12.459 19.8602 12.0306 19.4319L9.10564 16.5069C8.67729 16.0785 8.67729 15.384 9.10564 14.9556C9.534 14.5273 10.2285 14.5273 10.6569 14.9556L12.8063 17.105L16.0747 13.8366L19.3431 10.5681C19.7715 10.1398 20.466 10.1398 20.8944 10.5681Z" fill="url(#paint0_linear_6696_1242)"/>
<path d="M10.125 15.7313L13.05 18.6563L20.3625 11.3438" stroke="white" stroke-width="2.4375" stroke-linecap="round" stroke-linejoin="round"/>
<defs>
<linearGradient id="paint0_linear_6696_1242" x1="15" y1="0.375" x2="15" y2="29.625" gradientUnits="userSpaceOnUse">
<stop stop-color="#E5BF8A"/>
<stop offset="1" stop-color="#F76513"/>
</linearGradient>
</defs>
</svg>
