<svg width="13" height="12" viewBox="0 0 13 12" fill="none" xmlns="http://www.w3.org/2000/svg">
<path d="M6.36734 0.0251446C6.12939 0.0709038 6.00813 0.155557 5.54597 0.59713C5.2554 0.87397 5.07465 1.02955 5.01745 1.05014C4.93738 1.07988 4.88247 1.07531 4.40657 1.01125C4.11829 0.970063 3.814 0.935744 3.73163 0.935744C3.38844 0.931169 3.07728 1.0959 2.88509 1.3796C2.7707 1.55349 2.74553 1.63814 2.63571 2.26961C2.58537 2.55789 2.52818 2.82329 2.50987 2.86219C2.4664 2.94227 2.40692 2.98116 1.93789 3.22597C1.29955 3.56001 1.18973 3.64695 1.05703 3.92379C0.983817 4.07937 0.963225 4.18919 0.960938 4.3974C0.960938 4.58958 0.995257 4.68568 1.27896 5.26681C1.46428 5.6489 1.52148 5.78618 1.52148 5.8571C1.52148 5.92803 1.46428 6.0653 1.27896 6.44739C0.995257 7.02853 0.960938 7.12462 0.960938 7.31681C0.963225 7.52501 0.983817 7.63483 1.05703 7.79041C1.18973 8.06725 1.29955 8.15419 1.93789 8.48823C2.40692 8.73304 2.4664 8.77194 2.50987 8.85202C2.52818 8.89091 2.58537 9.15631 2.63571 9.44688C2.68604 9.73516 2.74324 10.0189 2.75926 10.0761C2.88281 10.4879 3.26718 10.7739 3.6996 10.7785C3.78883 10.7807 4.09999 10.7464 4.39513 10.7052C4.88247 10.6389 4.93738 10.6343 5.01745 10.6641C5.07465 10.6847 5.2554 10.8402 5.54597 11.1171C5.89602 11.4534 6.015 11.5518 6.12939 11.6044C6.32387 11.6959 6.52978 11.728 6.72197 11.6959C7.00796 11.6479 7.11321 11.5792 7.59596 11.1171C7.88653 10.8402 8.06728 10.6847 8.12448 10.6641C8.20455 10.6343 8.25947 10.6389 8.73536 10.703C9.02364 10.7441 9.32793 10.7785 9.4103 10.7785C9.75349 10.783 10.0646 10.6183 10.2568 10.3346C10.3712 10.1607 10.3964 10.0761 10.5062 9.44459C10.5566 9.15631 10.6138 8.89091 10.6321 8.85202C10.6755 8.76965 10.7259 8.73762 11.2635 8.4562C11.7715 8.18851 11.8836 8.10843 12.0048 7.9254C12.1261 7.74694 12.1787 7.57763 12.181 7.35341C12.181 7.12005 12.1581 7.05369 11.863 6.44739C11.6776 6.0653 11.6204 5.92803 11.6204 5.8571C11.6204 5.78618 11.6776 5.6489 11.863 5.26681C12.1581 4.66051 12.181 4.59416 12.181 4.36079C12.1787 4.13657 12.1261 3.96726 12.0048 3.78881C11.8836 3.60577 11.7715 3.52569 11.2635 3.258C10.7259 2.97659 10.6755 2.94456 10.6321 2.86219C10.6138 2.82329 10.5566 2.55789 10.5062 2.26961C10.3964 1.63814 10.3712 1.55349 10.2568 1.3796C10.0646 1.0959 9.75349 0.931169 9.4103 0.935744C9.32793 0.935744 9.02364 0.970063 8.73536 1.01125C8.25947 1.07531 8.20455 1.07988 8.12448 1.05014C8.06728 1.02955 7.88653 0.87397 7.59596 0.59713C7.25048 0.267666 7.12465 0.162421 7.01711 0.112086C6.79747 0.00912857 6.59156 -0.0183268 6.36734 0.0251446ZM5.47962 2.84846C6.00813 2.96057 6.40852 3.42502 6.4497 3.97413C6.49318 4.55298 6.09507 5.10208 5.52538 5.2508C5.10668 5.36062 4.6674 5.23478 4.35166 4.91905C3.97644 4.54382 3.88035 4.00387 4.10228 3.53027C4.34709 3.01091 4.91679 2.72949 5.47962 2.84846ZM8.96873 3.34037C9.11515 3.4296 9.17693 3.62865 9.10143 3.7705C9.06024 3.846 4.54385 8.35782 4.47292 8.39443C4.39513 8.43332 4.25557 8.42417 4.1732 8.37384C4.02678 8.28461 3.965 8.08556 4.0405 7.9437C4.0794 7.87506 8.5935 3.35867 8.66443 3.31978C8.73764 3.28088 8.88636 3.29003 8.96873 3.34037ZM8.24345 6.46569C8.56605 6.56179 8.87721 6.81346 9.01677 7.0903C9.25472 7.55933 9.17693 8.12674 8.82916 8.49052C8.43106 8.90693 7.88424 9.00988 7.38318 8.76507C6.98051 8.56602 6.72426 8.18622 6.69223 7.74008C6.64876 7.16809 7.04457 6.6167 7.6074 6.46341C7.77213 6.41994 8.09016 6.41994 8.24345 6.46569Z" fill="#17D340"/>
<path d="M4.98079 3.55317C4.77945 3.64926 4.66734 3.82543 4.66506 4.04965C4.66277 4.36768 4.903 4.60791 5.22102 4.60791C5.78157 4.60791 5.98748 3.87806 5.5093 3.58063C5.35373 3.48682 5.14552 3.47538 4.98079 3.55317Z" fill="#17D340"/>
<path d="M7.79514 7.11324C7.3101 7.23908 7.20943 7.87055 7.6327 8.13137C7.7837 8.22518 7.97818 8.23891 8.1452 8.16798C8.57533 7.98266 8.59135 7.37406 8.17037 7.16129C8.07427 7.11095 7.89124 7.08807 7.79514 7.11324Z" fill="#17D340"/>
</svg>
