<svg width="61" height="57" viewBox="0 0 61 57" fill="none" xmlns="http://www.w3.org/2000/svg">
<path d="M28.3844 0.256134C26.4304 0.768196 24.7056 1.92708 23.5871 3.46327C22.9269 4.36612 0.813802 44.6439 0.476918 45.5468C-0.102522 47.1099 -0.156423 49.1312 0.328689 50.8561C0.894654 52.8774 2.65993 55.02 4.57343 56.0037C6.62168 57.0682 4.65428 56.9874 30.473 56.9874C46.5087 56.9874 53.745 56.9469 54.2436 56.8391C54.6344 56.7583 55.5237 56.4214 56.2244 56.0845C57.2486 55.5994 57.6798 55.2895 58.4614 54.5079C59.4316 53.5107 60.3479 52.0015 60.6713 50.8561C61.1564 49.1312 61.1025 47.1099 60.5231 45.5468C60.1862 44.6439 38.0731 4.36612 37.4129 3.46327C36.7391 2.53347 35.4724 1.42849 34.5022 0.943375C32.6561 0.0135765 30.3113 -0.255928 28.3844 0.256134ZM32.144 6.26614C32.6695 6.62998 33.5454 8.16617 43.9349 27.0586C51.8719 41.4907 55.1734 47.6085 55.2273 48.0128C55.362 48.8483 55.0925 49.6433 54.4592 50.3305C53.4755 51.4086 55.2812 51.3277 30.5 51.3277C5.71883 51.3277 7.52453 51.4086 6.54083 50.3305C5.90749 49.6433 5.63798 48.8483 5.77273 48.0128C5.82663 47.6085 9.11462 41.5177 17.0246 27.1395C23.1694 15.9684 28.29 6.7243 28.4113 6.58955C29.2333 5.67323 31.0794 5.51152 32.144 6.26614Z" fill="#E0EDC3"/>
<path d="M29.1524 17.1274C28.8156 17.316 28.3709 17.7203 28.1418 18.0302L27.7375 18.6097L27.6971 25.0913C27.6701 29.4708 27.6971 31.7481 27.8049 32.085C28.2765 33.7021 30.3383 34.5106 31.8475 33.6751C32.1709 33.4865 32.6291 33.0687 32.8582 32.7588L33.2624 32.1659V25.4012V18.6231L32.8986 18.0976C32.3057 17.2621 31.6858 16.9118 30.6482 16.8579C29.9071 16.8174 29.651 16.8714 29.1524 17.1274Z" fill="#E0EDC3"/>
<path d="M29.8262 39.8603C28.4113 40.3185 27.6702 41.2887 27.6702 42.7036C27.6702 43.4852 27.9801 44.1994 28.573 44.7519C29.9745 46.0859 32.2518 45.6278 33.0738 43.849C33.5319 42.8519 33.3298 41.4774 32.6156 40.7093C31.9823 40.022 30.6078 39.6043 29.8262 39.8603Z" fill="#E0EDC3"/>
</svg>
