<svg width="82" height="81" viewBox="0 0 82 81" fill="none" xmlns="http://www.w3.org/2000/svg">
<path d="M63.6493 0.225105C62.6037 0.619366 62.038 1.27075 60.0667 4.42482L58.2668 7.30463L55.3013 8.02458C53.69 8.43598 51.9587 8.91595 51.4615 9.08737C49.9188 9.65304 48.8389 11.2301 48.8389 12.91C48.8389 14.2299 49.1817 14.847 51.6158 17.7611L53.9985 20.6066L53.8957 21.4637C53.5871 24.3435 53.4671 27.7547 53.6385 28.4061C54.1014 30.1545 55.8155 31.423 57.6668 31.4059C58.5411 31.4059 59.1753 31.2002 61.9694 30.0688L65.2435 28.7318L68.4833 30.0688C71.3631 31.2516 71.843 31.4059 72.8373 31.4059C74.62 31.4059 75.8713 30.5659 76.6256 28.8689C76.9855 28.0289 76.9855 27.9947 76.7627 24.412C76.6256 22.4236 76.5227 20.7437 76.5227 20.6752C76.5227 20.6066 77.5512 19.321 78.8026 17.8125C80.0539 16.304 81.1853 14.7956 81.3224 14.4699C81.6481 13.6813 81.6481 12.1214 81.3053 11.3158C80.9796 10.5273 80.1396 9.6359 79.3511 9.24164C79.0254 9.07022 77.277 8.57312 75.4771 8.12743L72.203 7.30463L70.2489 4.20198C68.569 1.51073 68.1919 1.03077 67.489 0.585081C66.4948 -0.0148773 64.7635 -0.186295 63.6493 0.225105ZM67.1119 8.47027C68.0204 9.92731 68.9804 11.2644 69.2375 11.4529C69.4946 11.6415 70.9688 12.1043 72.5116 12.4814C74.0543 12.8585 75.4942 13.2185 75.6999 13.2699C76.0428 13.3728 75.9056 13.5956 74.0715 15.7555C72.9744 17.0754 71.9287 18.3953 71.7573 18.721C71.4659 19.2524 71.4659 19.4924 71.6888 22.6122C71.8259 24.4463 71.9116 25.9719 71.8773 26.0062C71.8602 26.0405 70.4546 25.5091 68.7575 24.8406C67.0605 24.1721 65.4835 23.6235 65.2435 23.6235C64.9864 23.6235 63.4265 24.1721 61.7637 24.8235C60.101 25.492 58.6953 25.9891 58.6439 25.9548C58.5925 25.9034 58.6611 24.3606 58.7811 22.5436C58.9696 19.6124 58.9696 19.1667 58.7296 18.721C58.5925 18.4467 57.564 17.1611 56.4669 15.8583C55.3699 14.5556 54.4956 13.4414 54.5471 13.4071C54.5985 13.3557 56.0727 12.9443 57.8211 12.4986C60.2038 11.8986 61.1123 11.5901 61.4209 11.2986C61.6609 11.0587 62.6037 9.70447 63.5122 8.24742C64.4035 6.80752 65.2092 5.65903 65.2949 5.71045C65.3806 5.76188 66.2034 6.99608 67.1119 8.47027Z" fill="#E0EDC3" fill-opacity="1"/>
<path d="M9.72169 13.3385C5.96766 13.9727 2.7793 16.4069 1.08227 19.9209C-0.0662228 22.3036 -0.0319394 21.5665 0.0194857 41.7937L0.0709109 60.0497L0.533737 61.301C1.20226 63.1694 1.97364 64.3522 3.41354 65.7921C4.87059 67.2492 6.07051 68.0034 7.90467 68.6719C9.15601 69.1348 9.15601 69.1348 14.8471 69.1862L20.5552 69.2376L20.4353 72.4602C20.3153 76.1114 20.4524 76.8999 21.4809 78.3227C22.5608 79.7798 24.2236 80.6197 26.1263 80.6026C28.0462 80.6026 28.4061 80.3969 36.0856 74.6201L43.268 69.2205H51.856C59.7755 69.2205 60.5468 69.2033 61.7296 68.8948C62.981 68.5691 64.4894 67.9006 65.5351 67.1806C67.0093 66.1864 68.8092 63.9922 69.5634 62.2952C70.5233 60.1182 70.489 60.4096 70.5576 48.4276L70.6262 37.3198L70.2491 36.5312C69.5805 35.1428 67.9178 34.7314 66.6493 35.6399C65.6208 36.3598 65.6379 36.1541 65.6379 47.7419C65.6379 56.0385 65.5865 58.524 65.3979 59.1926C64.6609 61.9695 62.5524 63.838 59.724 64.2494C59.0555 64.3351 54.7701 64.4208 50.0733 64.4208C43.988 64.4208 41.5196 64.4722 41.2453 64.6265C41.0396 64.7293 37.6112 67.2835 33.6344 70.2832C29.6404 73.283 26.2977 75.7343 26.1949 75.7343C26.1092 75.7343 25.852 75.6486 25.6635 75.5458C25.3206 75.3572 25.3035 75.2886 25.4406 70.8489C25.5435 66.7349 25.5263 66.2721 25.2521 65.7064C24.6521 64.4208 24.6521 64.4208 17.8983 64.4208C14.6071 64.4208 11.3673 64.3351 10.7331 64.2494C7.78468 63.8208 5.43626 61.5238 4.9563 58.5755C4.73345 57.187 4.73345 25.5263 4.9563 23.9835C5.28199 21.7208 6.72189 19.7838 8.8646 18.7724L10.0131 18.2239L26.4691 18.1382L42.9252 18.0525L43.4566 17.6754C43.9708 17.2982 44.5536 16.2183 44.5536 15.6184C44.5536 15.4641 44.3994 15.0013 44.1937 14.607C43.9365 14.0756 43.6451 13.7842 43.1137 13.5271C42.3938 13.1671 42.2224 13.1671 26.452 13.1842C17.6926 13.2014 10.1674 13.2699 9.72169 13.3385Z" fill="#E0EDC3" fill-opacity="1"/>
<path d="M21.0694 32.8458C20.2638 33.2743 19.6124 34.5257 19.7667 35.3656C19.9038 36.1027 20.6237 36.9769 21.3608 37.2683C21.8065 37.474 24.4635 37.5083 35.8456 37.5083C48.7704 37.5083 49.8332 37.4912 50.3817 37.1998C52.1473 36.3084 52.2331 33.7543 50.5189 32.8629C49.9018 32.5544 49.3018 32.5372 35.777 32.5372C22.4751 32.5372 21.6351 32.5544 21.0694 32.8458Z" fill="#E0EDC3" fill-opacity="1"/>
<path d="M20.9495 45.3764C19.3896 46.3363 19.3553 48.4448 20.8809 49.4561L21.4637 49.8504H29.4861H37.4912L38.0398 49.4047C39.3768 48.2733 39.4111 46.7649 38.1255 45.5649L37.6626 45.1364L29.5889 45.085C21.8066 45.0507 21.4809 45.0507 20.9495 45.3764Z" fill="#E0EDC3" fill-opacity="1"/>
</svg>
