<svg width="80" height="69" viewBox="0 0 80 69" fill="none" xmlns="http://www.w3.org/2000/svg">
<path d="M12.0744 0.152748C11.1676 0.371048 10.5127 0.740479 9.65633 1.52972C8.66559 2.4365 8.53125 2.75555 7.07032 7.13834L5.84448 10.8662L5.23996 10.967C3.52715 11.286 1.8815 12.5958 1.10906 14.2919L0.622083 15.333L0.571706 19.5478C0.504537 24.7031 0.504537 24.7367 2.0998 25.4923C7.18787 27.8936 7.18787 36.7935 2.0998 39.2116C0.487745 39.984 0.52133 39.7993 0.571706 46.9025L0.622083 52.9477L1.10906 53.9888C1.6632 55.2146 2.83867 56.4069 4.03092 56.9442C4.82015 57.3137 4.85374 57.3137 19.8492 57.3976L34.8783 57.4816L49.9578 62.6536C58.2532 65.4915 65.4067 67.8928 65.8769 67.9936C67.2875 68.2958 69.0171 67.7921 70.2093 66.7006C71.2336 65.777 71.5695 65.0885 72.8961 61.0752L74.1051 57.448L75.1127 57.1625C76.9262 56.6588 78.1185 55.6345 78.9413 53.8713L79.3779 52.9477L79.4283 46.9025C79.4787 39.7993 79.529 40.0008 77.8666 39.178C75.4485 37.9858 74.0883 35.4837 74.0883 32.2932C74.0883 29.2034 75.5493 26.6006 77.9002 25.4923C79.4954 24.7367 79.4954 24.7031 79.4283 19.5478L79.3779 15.333L78.8909 14.2751C78.2696 12.9485 76.9766 11.7226 75.6836 11.2357C74.76 10.883 74.5081 10.883 60.1507 10.883H45.575L39.7985 8.88474C12.4774 -0.619698 13.6865 -0.233475 12.0744 0.152748ZM24.0977 7.2223L34.3746 10.7991L22.049 10.8494C15.265 10.8662 9.68992 10.8662 9.67312 10.8326C9.63954 10.7991 10.0761 9.4053 10.6303 7.70928C11.8057 4.19969 12.1416 3.66234 13.1659 3.66234C13.6025 3.66234 17.3976 4.90496 24.0977 7.2223ZM16.6587 15.333C16.6587 15.8535 16.7595 16.5252 16.8938 16.8443C17.1457 17.432 17.8846 17.9358 18.5059 17.9358C19.1272 17.9358 19.866 17.432 20.1179 16.8443C20.2523 16.5252 20.353 15.8535 20.353 15.333V14.4094L47.4893 14.443L74.6257 14.4934L75.1966 15.1147L75.7676 15.7528V19.2456V22.7216L75.1798 23.0406C74.357 23.494 72.7617 25.1397 72.1068 26.2144C70.4108 29.0187 69.991 33.032 71.0657 36.1386C71.8214 38.372 73.3159 40.4206 74.9279 41.4618L75.7676 41.9991V47.2383C75.7676 52.36 75.7676 52.4943 75.3981 52.9477C74.6257 53.9216 76.2545 53.8713 47.1367 53.8713H20.353V52.8637C20.353 51.5035 20.0172 50.7647 19.2783 50.3953C18.8081 50.177 18.5394 50.1602 18.0693 50.2777C17.1289 50.5128 16.7595 51.1341 16.6923 52.6286L16.6251 53.8713H11.3524C5.60939 53.8713 5.29034 53.8209 4.60185 52.9477C4.23242 52.4943 4.23242 52.36 4.23242 47.2551L4.24922 42.0327L5.08883 41.4618C6.91919 40.2023 8.56483 37.7339 9.21973 35.2318C9.58916 33.7877 9.58916 31.0002 9.20294 29.4385C8.76634 27.6249 7.84277 25.9121 6.54976 24.5519C5.92845 23.897 5.156 23.2253 4.82015 23.0574L4.23242 22.7216V19.2456V15.7864L4.68582 15.249C4.92091 14.9468 5.29034 14.6445 5.47505 14.5773C5.67656 14.4934 8.26257 14.4262 11.2516 14.4262L16.6587 14.4094V15.333ZM70.2261 57.4984C70.2261 57.5488 69.7895 58.9257 69.2689 60.5546C68.211 63.8795 67.8416 64.4504 66.8173 64.4504C66.4143 64.4504 48.4633 58.4723 46.0452 57.5152C45.9109 57.4648 51.2844 57.4144 58.0181 57.4144C64.735 57.3976 70.2261 57.448 70.2261 57.4984Z" fill="#E0EDC3"/>
<path d="M37.2629 19.9509C35.1639 20.4882 33.5854 22.1003 33.0144 24.3001C32.3595 26.8525 33.6358 29.556 36.0874 30.7987C36.9606 31.2353 37.2293 31.2856 38.6567 31.2856C40.1512 31.2856 40.3191 31.2521 41.3098 30.7147C42.4853 30.0766 43.3249 29.2034 43.8958 28.0279C44.2149 27.373 44.2821 26.9868 44.2821 25.5763C44.2821 24.0818 44.2317 23.7963 43.8287 23.0574C43.2409 21.9323 42.1998 20.908 41.1083 20.3707C40.1008 19.8837 38.3208 19.6822 37.2629 19.9509ZM39.8657 23.7795C40.1176 23.9306 40.4366 24.2833 40.5878 24.5855C41.6625 26.8357 38.9757 28.8508 37.1118 27.1883C36.1714 26.3487 36.3057 24.3504 37.3469 23.7963C38.304 23.2925 38.9925 23.2925 39.8657 23.7795Z" fill="#E0EDC3"/>
<path d="M17.5153 20.8918C16.8437 21.362 16.6589 22.1176 16.6589 24.3174C16.6589 27.1385 17.0955 28.0117 18.5061 28.0117C19.9166 28.0117 20.3532 27.1385 20.3532 24.3174C20.3532 21.4963 19.9166 20.6231 18.5061 20.6231C18.1702 20.6231 17.7336 20.7407 17.5153 20.8918Z" fill="#E0EDC3"/>
<path d="M46.0285 32.8134C36.3226 42.5194 36.4737 42.3346 37.0447 43.4429C37.5148 44.3497 38.5728 44.7024 39.4627 44.2322C40.0169 43.9299 57.0107 26.9025 57.2794 26.382C57.8335 25.2905 57.0946 24.0311 55.8184 23.8631L55.0796 23.7624L46.0285 32.8134Z" fill="#E0EDC3"/>
<path d="M17.5153 30.6306C16.8437 31.1007 16.6589 31.8564 16.6589 34.0562C16.6589 36.8773 17.0955 37.7505 18.5061 37.7505C19.9166 37.7505 20.3532 36.8773 20.3532 34.0562C20.3532 31.2351 19.9166 30.3619 18.5061 30.3619C18.1702 30.3619 17.7336 30.4794 17.5153 30.6306Z" fill="#E0EDC3"/>
<path d="M54.1056 37.062C52.4935 37.5826 51.1333 38.7748 50.4281 40.2525C50.0586 41.0586 49.9915 41.4112 49.9915 42.7042C49.9915 43.9468 50.0754 44.3666 50.3945 45.0047C51.0158 46.2642 51.9897 47.2549 53.2324 47.8594C54.2231 48.3464 54.5086 48.4136 55.7008 48.4136C56.7923 48.3968 57.2289 48.3128 57.9846 47.9602C59.3112 47.3557 60.218 46.4657 60.8561 45.1727C61.343 44.1819 61.4102 43.8965 61.4102 42.6202C61.4102 41.3944 61.343 41.0586 60.94 40.2357C60.3691 39.0771 59.3615 38.0359 58.2197 37.4482C57.548 37.1124 57.0946 37.0116 55.9527 36.978C55.1635 36.9444 54.3407 36.978 54.1056 37.062ZM56.7252 40.7059C57.464 41.0586 58.0518 42.2172 57.9006 43.0568C57.6655 44.2827 56.4229 45.0719 55.1467 44.7864C54.4582 44.6353 53.9544 44.2155 53.669 43.5102C53.3499 42.7882 53.3667 42.3012 53.7361 41.6295C54.3071 40.5716 55.5833 40.1686 56.7252 40.7059Z" fill="#E0EDC3"/>
<path d="M17.448 40.4541C16.7931 40.9578 16.6252 41.7639 16.6923 44.1652C16.7427 46.0123 16.7931 46.3482 17.0953 46.768C17.5319 47.3389 18.3212 47.5908 19.0264 47.3893C20.0508 47.1038 20.2691 46.5497 20.3195 44.1652C20.353 42.9225 20.3027 41.7807 20.2019 41.4112C19.95 40.6052 19.3119 40.1014 18.5059 40.1014C18.1365 40.1014 17.6999 40.2358 17.448 40.4541Z" fill="#E0EDC3"/>
</svg>
