<svg width="16" height="16" viewBox="0 0 16 16" fill="none" xmlns="http://www.w3.org/2000/svg">
<g clip-path="url(#clip0_171_2037)">
<path d="M14.6667 6.99992V7.99992C14.6667 11.1426 14.6667 12.714 13.6904 13.6903C12.714 14.6666 11.1427 14.6666 8 14.6666C4.85731 14.6666 3.28596 14.6666 2.30965 13.6903C1.33334 12.714 1.33334 11.1426 1.33334 7.99992C1.33334 4.85722 1.33334 3.28587 2.30965 2.30956C3.28596 1.33325 4.85731 1.33325 8 1.33325H9" stroke="#1C274C" stroke-width="1.5" stroke-linecap="round"/>
<path d="M11.1014 2.30329L11.5339 1.87075C12.2506 1.15409 13.4125 1.15409 14.1292 1.87075C14.8458 2.58741 14.8458 3.74935 14.1292 4.46601L13.6966 4.89855M11.1014 2.30329C11.1014 2.30329 11.1554 3.22245 11.9665 4.03347C12.7775 4.84449 13.6966 4.89855 13.6966 4.89855M11.1014 2.30329L7.12479 6.27987C6.85544 6.54921 6.72077 6.68389 6.60496 6.83238C6.46833 7.00754 6.3512 7.19706 6.25563 7.3976C6.17461 7.56759 6.11438 7.74827 5.99393 8.10964L5.60828 9.26659M13.6966 4.89855L9.72005 8.87513C9.45071 9.14448 9.31604 9.27915 9.16755 9.39497C8.99238 9.53159 8.80286 9.64872 8.60233 9.74429C8.43233 9.82531 8.25165 9.88554 7.89029 10.006L6.73334 10.3916M6.73334 10.3916L5.98473 10.6412C5.8069 10.7005 5.61084 10.6542 5.4783 10.5216C5.34575 10.3891 5.29947 10.193 5.35875 10.0152L5.60828 9.26659M6.73334 10.3916L5.60828 9.26659" stroke="#1C274C" stroke-width="1.5"/>
</g>
<defs>
<clipPath id="clip0_171_2037">
<rect width="16" height="16" fill="white"/>
</clipPath>
</defs>
</svg>
