<svg width="80" height="72" viewBox="0 0 80 72" fill="none" xmlns="http://www.w3.org/2000/svg">
<path d="M18.4301 71.4197C17.3135 71.0679 16.5181 70.5479 15.631 69.5842C14.7438 68.6359 14.2238 67.5652 13.9944 66.2039C13.872 65.5004 13.8414 59.168 13.872 45.0197L13.9179 24.8297L14.2544 23.9425C14.9121 22.1835 16.3805 20.6693 18.0783 19.9963L18.9654 19.6292L45.9619 19.5833C65.6931 19.5527 73.2032 19.5833 73.8762 19.7057C76.4 20.1951 78.5107 22.3212 79.0002 24.8297C79.1225 25.4874 79.1531 31.3914 79.1225 46.2433L79.0767 66.7393L78.7402 67.5499C78.2507 68.7736 77.2565 69.9666 76.2011 70.6549C74.4421 71.7868 76.7823 71.7103 46.5126 71.695C20.8926 71.695 19.2254 71.6797 18.4301 71.4197ZM74.0903 68.1006C75.0998 67.5958 75.7269 66.6781 75.8646 65.5309C75.9105 65.1027 75.9411 58.1585 75.9105 50.0825L75.8646 35.4294L68.6298 43.8572C64.6683 48.4918 61.1198 52.4992 60.768 52.7439C59.1466 53.9217 56.7758 53.9064 55.078 52.698C54.7415 52.4533 50.0611 46.901 41.5721 36.6989C41.5415 36.6531 40.3332 37.8002 38.8801 39.2533C35.7904 42.3277 35.408 42.5571 33.4961 42.5571C31.263 42.5724 31.3853 42.6489 23.8294 35.1082L17.2064 28.5159V47.2834C17.2064 65.4698 17.2217 66.0816 17.497 66.6322C17.6653 66.9381 17.9865 67.3817 18.2312 67.6111C19.2101 68.5442 17.2064 68.483 46.5126 68.4983H73.2797L74.0903 68.1006ZM58.9325 50.0213C59.1313 49.8837 63.0317 45.3868 67.605 40.0487L75.9258 30.336L75.9411 28.1488C75.9411 26.9404 75.8646 25.6403 75.7575 25.2426C75.5128 24.2637 74.4421 23.193 73.4632 22.9483C72.5302 22.7036 20.4796 22.6883 19.6384 22.9177C19.3325 23.0095 18.8583 23.2236 18.583 23.4225C17.497 24.1566 17.0535 23.606 25.2365 31.7891C30.1617 36.7142 32.8537 39.2992 33.1137 39.3604C33.3432 39.4062 33.7255 39.3757 33.9703 39.2839C34.215 39.1921 35.821 37.7085 37.5494 35.9954C39.2778 34.2823 40.8838 32.7986 41.1286 32.7068C42.1534 32.3244 42.1075 32.2786 49.8011 41.5017C54.5274 47.1764 57.1276 50.1743 57.403 50.2813C57.9077 50.4649 58.4583 50.3731 58.9325 50.0213Z" fill="#E0EDC3"/>
<path d="M28.2192 61.6456C27.1026 61.2785 26.3072 60.7431 25.4201 59.7948C23.0493 57.2558 23.141 53.3707 25.6342 50.8622C29.3969 47.0996 35.7139 49.1645 36.6317 54.4414C36.9988 56.5216 36.234 58.6477 34.5821 60.2078C33.2973 61.4008 32.3183 61.7985 30.437 61.875C29.3969 61.9056 28.8463 61.8597 28.2192 61.6456ZM31.5077 58.4182C33.9244 57.3322 34.062 53.8908 31.7371 52.6059C30.3146 51.8106 28.5098 52.2541 27.5461 53.6307C26.9343 54.5026 26.812 55.9098 27.2708 56.8122C28.1121 58.4488 29.9322 59.1371 31.5077 58.4182Z" fill="#E0EDC3"/>
<path d="M8.15142 46.3961C7.90669 46.2584 7.64667 45.9066 7.50901 45.5242C6.92778 43.9794 0.962543 21.388 0.886066 20.4702C0.671929 17.9006 2.23207 15.2239 4.55698 14.1532C5.00055 13.9543 9.26799 12.7307 14.0708 11.4459C18.8736 10.1764 30.3605 7.08668 39.6142 4.60881C48.868 2.13094 56.8676 0.0507508 57.3723 0.0201598C59.789 -0.193977 62.4657 1.32028 63.5517 3.49224C64.0411 4.47115 66.6108 13.8779 66.6108 14.6885C66.6108 15.3768 66.0295 16.1263 65.4024 16.264C64.8518 16.3863 63.9341 16.0192 63.7046 15.5757C63.567 15.3156 60.7985 5.32769 60.7985 5.08297C60.7985 5.03708 60.5079 4.70058 60.1714 4.33349C59.6972 3.81344 59.3301 3.58401 58.703 3.40046C57.7547 3.12514 57.8771 3.10985 53.839 4.19583C52.1565 4.6394 40.7308 7.69849 28.4485 10.987C4.31225 17.4417 5.27587 17.1358 4.55698 18.39C3.85339 19.6596 3.77691 19.2466 7.34076 32.5231C9.14563 39.2684 10.6293 44.9736 10.6293 45.1877C10.6293 45.4325 10.4304 45.7843 10.1092 46.1055C9.52802 46.6867 8.87031 46.7785 8.15142 46.3961Z" fill="#E0EDC3"/>
</svg>
