<svg width="16" height="17" viewBox="0 0 16 17" fill="none" xmlns="http://www.w3.org/2000/svg">
<path d="M14.6668 15.509H1.3335C1.06016 15.509 0.833496 15.2824 0.833496 15.009C0.833496 14.7357 1.06016 14.509 1.3335 14.509H14.6668C14.9402 14.509 15.1668 14.7357 15.1668 15.009C15.1668 15.2824 14.9402 15.509 14.6668 15.509Z" fill="#696C83"/>
<path d="M2.46729 15.0089H1.46729L1.50062 6.98884C1.50062 6.42217 1.76062 5.89553 2.20729 5.54886L6.87395 1.91552C7.53395 1.40218 8.46062 1.40218 9.12728 1.91552L13.794 5.54219C14.234 5.88885 14.5006 6.42884 14.5006 6.98884V15.0089H13.5006V6.99551C13.5006 6.74218 13.3806 6.49552 13.1806 6.33552L8.51395 2.70885C8.21395 2.47552 7.79395 2.47552 7.48728 2.70885L2.82062 6.34219C2.62062 6.49553 2.50062 6.74218 2.50062 6.99551L2.46729 15.0089Z" fill="#696C83"/>
<path d="M9.66683 15.5089H6.3335C6.06016 15.5089 5.8335 15.2822 5.8335 15.0089V12.6755C5.8335 11.8489 6.50683 11.1755 7.3335 11.1755H8.66683C9.4935 11.1755 10.1668 11.8489 10.1668 12.6755V15.0089C10.1668 15.2822 9.94016 15.5089 9.66683 15.5089ZM6.8335 14.5089H9.16683V12.6755C9.16683 12.4022 8.94016 12.1755 8.66683 12.1755H7.3335C7.06016 12.1755 6.8335 12.4022 6.8335 12.6755V14.5089Z" fill="#696C83"/>
<path d="M6.3335 10.0089H5.00016C4.36016 10.0089 3.8335 9.4822 3.8335 8.8422V7.8422C3.8335 7.2022 4.36016 6.67554 5.00016 6.67554H6.3335C6.9735 6.67554 7.50016 7.2022 7.50016 7.8422V8.8422C7.50016 9.4822 6.9735 10.0089 6.3335 10.0089ZM5.00016 7.67554C4.90683 7.67554 4.8335 7.74887 4.8335 7.8422V8.8422C4.8335 8.93554 4.90683 9.00887 5.00016 9.00887H6.3335C6.42683 9.00887 6.50016 8.93554 6.50016 8.8422V7.8422C6.50016 7.74887 6.42683 7.67554 6.3335 7.67554H5.00016Z" fill="#696C83"/>
<path d="M11 10.0089H9.66667C9.02667 10.0089 8.5 9.4822 8.5 8.8422V7.8422C8.5 7.2022 9.02667 6.67554 9.66667 6.67554H11C11.64 6.67554 12.1667 7.2022 12.1667 7.8422V8.8422C12.1667 9.4822 11.64 10.0089 11 10.0089ZM9.66667 7.67554C9.57333 7.67554 9.5 7.74887 9.5 7.8422V8.8422C9.5 8.93554 9.57333 9.00887 9.66667 9.00887H11C11.0933 9.00887 11.1667 8.93554 11.1667 8.8422V7.8422C11.1667 7.74887 11.0933 7.67554 11 7.67554H9.66667Z" fill="#696C83"/>
<path d="M12.6669 5.50903C12.3935 5.50903 12.1669 5.28904 12.1669 5.01571L12.1535 3.50903H9.72021C9.44688 3.50903 9.22021 3.28237 9.22021 3.00903C9.22021 2.7357 9.44688 2.50903 9.72021 2.50903H12.6535C12.9269 2.50903 13.1535 2.72903 13.1535 3.00236L13.1735 5.00236C13.1669 5.28236 12.9469 5.50903 12.6669 5.50903C12.6735 5.50903 12.6669 5.50903 12.6669 5.50903Z" fill="#696C83"/>
</svg>
