<svg width="51" height="52" viewBox="0 0 51 52" fill="none" xmlns="http://www.w3.org/2000/svg">
<rect y="0.599609" width="50.8104" height="50.8011" rx="12" fill="#060A32" fill-opacity="0.04"/>
<path d="M13.8926 12.6533C12.9921 12.8313 12.2277 13.6061 12.055 14.5275C11.9817 14.915 11.9817 32.3174 12.055 32.7048C12.233 33.6472 12.9921 34.4063 13.9345 34.5843C14.1072 34.6157 15.5156 34.6367 17.5992 34.6367H20.9865L21.107 35.668C21.3111 37.4324 21.353 37.6627 21.5572 38.0711C21.7561 38.4794 22.2064 38.9506 22.5781 39.1391C23.0964 39.4061 22.9708 39.4009 30.0176 39.4009C34.274 39.4009 36.6927 39.3799 36.8759 39.3485C37.8183 39.1705 38.5774 38.4114 38.7554 37.469C38.8287 37.0816 38.8287 19.6792 38.7554 19.2917C38.5984 18.475 38.0591 17.8363 37.2424 17.5065L36.9492 17.3861L31.0332 17.3599L25.1173 17.3337L24.9497 15.9725C24.8555 15.2239 24.756 14.5066 24.7246 14.381C24.5833 13.8208 24.0859 13.1663 23.5833 12.8941C23.0388 12.5957 23.0388 12.5957 18.3898 12.6009C16.0443 12.6062 14.0182 12.6271 13.8926 12.6533ZM22.8818 14.3129C22.976 14.381 23.0859 14.5066 23.133 14.5956C23.1906 14.7056 23.5571 17.5117 24.3372 23.768C24.9497 28.7207 25.468 32.8409 25.4785 32.9195L25.5099 33.0661H19.8505C14.2905 33.0661 14.1962 33.0661 13.9921 32.9613C13.8559 32.8933 13.746 32.7833 13.6779 32.6472C13.5732 32.443 13.5732 32.3593 13.5732 23.6162C13.5732 14.8783 13.5732 14.7893 13.6779 14.5851C13.7408 14.4595 13.8612 14.3391 13.9816 14.2762C14.1701 14.1715 14.2748 14.1715 18.4421 14.182L22.709 14.1925L22.8818 14.3129ZM36.8183 19.0352C36.9545 19.1033 37.0644 19.2132 37.1325 19.3493C37.2372 19.5535 37.2372 19.6373 37.2372 28.3804C37.2372 37.1235 37.2372 37.2072 37.1325 37.4114C37.0644 37.5475 36.9545 37.6575 36.8183 37.7255C36.6142 37.8303 36.5409 37.8303 30.3108 37.8198L24.0074 37.8041L25.5466 36.024C26.5832 34.8251 27.0962 34.1864 27.1329 34.066C27.1695 33.9247 26.9811 32.2598 26.269 26.5271C25.7664 22.4801 25.3476 19.1137 25.3371 19.0457L25.3162 18.9305H30.9652C36.5199 18.9305 36.6142 18.9305 36.8183 19.0352ZM23.7927 35.6471C23.3111 36.2073 22.8975 36.668 22.866 36.6732C22.8242 36.6785 22.5938 35.1445 22.5833 34.7518L22.5781 34.6367H23.6252H24.6723L23.7927 35.6471Z" fill="#060A32"/>
<path d="M18.0233 18.2289C17.6411 18.386 17.6569 18.3232 16.7878 22.6842C16.3428 24.8936 15.9815 26.7574 15.9815 26.8202C15.9815 27.1814 16.3847 27.5688 16.7668 27.5688C17.0234 27.5688 17.327 27.3856 17.437 27.1605C17.4946 27.0558 17.6516 26.3961 17.7877 25.6946L18.039 24.4276H19.1228H20.2065L20.4578 25.6946C20.5939 26.3961 20.751 27.0558 20.8086 27.1605C20.9185 27.3856 21.2222 27.5688 21.4787 27.5688C21.8609 27.5688 22.264 27.1814 22.264 26.8202C22.264 26.7574 21.9028 24.8936 21.4577 22.6842C20.5834 18.3022 20.6044 18.386 20.2065 18.2237C19.9342 18.1137 18.2903 18.1137 18.0233 18.2289ZM19.5782 21.2864L19.8924 22.857H19.1228H18.3532L18.6673 21.2864L18.9814 19.7158H19.1228H19.2641L19.5782 21.2864Z" fill="#060A32"/>
<path d="M31.3108 22.9665C31.0071 23.1235 30.9024 23.3801 30.9024 23.956V24.4271H29.6459C28.4837 24.4271 28.3685 24.4376 28.18 24.5318C27.9444 24.6523 27.7612 24.9507 27.7612 25.2125C27.7612 25.6156 28.1486 25.9978 28.5569 25.9978C28.7245 25.9978 28.735 26.0135 28.8554 26.3485C29.1957 27.3066 29.7297 28.3013 30.3108 29.0605L30.5883 29.4269L30.3422 29.6521C30.2009 29.7777 29.782 30.1285 29.4051 30.4269C28.9548 30.7881 28.6931 31.0394 28.6355 31.1599C28.3214 31.8143 29.0229 32.5263 29.6616 32.1912C29.8396 32.1022 30.494 31.5892 31.2165 30.9818C31.4574 30.7724 31.672 30.6049 31.6877 30.6049C31.7034 30.6049 31.9181 30.7724 32.1589 30.9818C32.8814 31.5892 33.5358 32.1022 33.7138 32.1912C34.2007 32.4425 34.8289 32.0499 34.8289 31.5002C34.8289 31.186 34.6719 30.9923 33.9703 30.4269C33.5934 30.1285 33.1746 29.7777 33.0332 29.6521L32.7871 29.4269L33.0646 29.0605C33.6457 28.3013 34.1798 27.3066 34.5201 26.3485C34.6405 26.0135 34.6509 25.9978 34.8185 25.9978C35.2268 25.9978 35.6143 25.6156 35.6143 25.2125C35.6143 24.9507 35.431 24.6523 35.1954 24.5318C35.0069 24.4376 34.8918 24.4271 33.7295 24.4271H32.473V23.956C32.473 23.3696 32.3683 23.1235 32.0542 22.9612C31.7977 22.8303 31.5621 22.8303 31.3108 22.9665ZM32.9442 26.0606C32.939 26.3066 31.8238 28.249 31.6877 28.249C31.5516 28.249 30.4365 26.3066 30.4312 26.0606C30.4312 26.0135 30.7192 25.9978 31.6877 25.9978C32.6563 25.9978 32.9442 26.0135 32.9442 26.0606Z" fill="#060A32"/>
</svg>
