<svg width="12" height="12" viewBox="0 0 12 12" fill="none" xmlns="http://www.w3.org/2000/svg">
<path fill-rule="evenodd" clip-rule="evenodd" d="M3.25 3.375V4.26356C2.46616 4.50343 1.87462 5.19304 1.76226 6.02759C1.68818 6.57778 1.625 7.15592 1.625 7.75C1.625 8.34408 1.68818 8.92222 1.76226 9.47241C1.89804 10.4809 2.73358 11.2778 3.76261 11.3251C4.47682 11.3579 5.20208 11.375 6 11.375C6.79792 11.375 7.52318 11.3579 8.23739 11.3251C9.26642 11.2778 10.102 10.4809 10.2377 9.47241C10.3118 8.92222 10.375 8.34408 10.375 7.75C10.375 7.15592 10.3118 6.57778 10.2377 6.02759C10.1254 5.19304 9.53384 4.50343 8.75 4.26356V3.375C8.75 1.85622 7.51878 0.625 6 0.625C4.48122 0.625 3.25 1.85622 3.25 3.375ZM6 1.625C5.0335 1.625 4.25 2.4085 4.25 3.375V4.15508C4.80886 4.13524 5.38269 4.125 6 4.125C6.61731 4.125 7.19114 4.13524 7.75 4.15508V3.375C7.75 2.4085 6.9665 1.625 6 1.625ZM5.99665 7C5.58429 7 5.25 7.33579 5.25 7.75C5.25 8.16421 5.58429 8.5 5.99665 8.5H6.00335C6.41571 8.5 6.75 8.16421 6.75 7.75C6.75 7.33579 6.41571 7 6.00335 7H5.99665Z" fill="#293E60"/>
</svg>
