<svg width="48" height="48" viewBox="0 0 48 48" fill="none" xmlns="http://www.w3.org/2000/svg">
<rect width="48" height="48" rx="12" fill="#F9F7F6"/>
<path d="M21.093 25.4863H5.11377V30.8096H21.093V25.4863Z" fill="#84B740"/>
<path d="M21.093 18.2227H5.11377V23.5506H21.093V18.2227Z" fill="#259BD6"/>
<path d="M37.0715 29.7279L37.0003 29.7422C36.7536 29.7896 36.6635 29.8086 36.4832 29.8086C36.0657 29.8086 35.5723 29.5951 35.5723 28.5893C35.5723 28.0721 35.6577 27.3842 36.4358 27.3842H36.4405C36.5733 27.3937 36.7252 27.4079 37.0098 27.4933L37.0715 27.5123V29.7279ZM37.1996 24.7131L37.0715 24.7368V26.5966L36.9576 26.5634L36.9244 26.5539C36.7963 26.516 36.5022 26.4306 36.2175 26.4306C34.6613 26.4306 34.334 27.6072 34.334 28.594C34.334 29.9462 35.0931 30.7243 36.4168 30.7243C36.9766 30.7243 37.3894 30.6673 37.8069 30.5297C38.1912 30.4064 38.3288 30.2308 38.3288 29.856V24.5186C37.9587 24.585 37.5744 24.6514 37.1996 24.7131Z" fill="#27292D"/>
<path d="M41.6977 29.761L41.6313 29.78L41.394 29.8417C41.1711 29.8986 40.9718 29.9318 40.82 29.9318C40.4546 29.9318 40.2364 29.7516 40.2364 29.4432C40.2364 29.2439 40.3265 28.907 40.9243 28.907H41.6977V29.761ZM41.1521 26.4067C40.6729 26.4067 40.1795 26.4921 39.5674 26.6819L39.1689 26.8005L39.3018 27.702L39.6908 27.5739C40.0988 27.441 40.6065 27.3556 40.986 27.3556C41.1568 27.3556 41.6787 27.3556 41.6787 27.9202V28.1669H40.9528C39.6291 28.1669 39.0171 28.5892 39.0171 29.4954C39.0171 30.2687 39.5817 30.7336 40.5306 30.7336C40.8247 30.7336 41.2327 30.6767 41.5838 30.5913L41.6028 30.5866L41.6218 30.5913L41.7404 30.6103C42.1105 30.6767 42.4947 30.7431 42.8696 30.8143V27.8538C42.8696 26.8954 42.2907 26.4067 41.1521 26.4067Z" fill="#27292D"/>
<path d="M32.4792 29.761L32.4128 29.78L32.1755 29.8417C31.9526 29.8986 31.758 29.9318 31.6015 29.9318C31.2361 29.9318 31.0179 29.7516 31.0179 29.4432C31.0179 29.2439 31.108 28.907 31.7011 28.907H32.4744L32.4792 29.761ZM31.9383 26.4067C31.4544 26.4067 30.9657 26.4921 30.3537 26.6819L29.9551 26.8005L30.088 27.702L30.477 27.5739C30.8851 27.441 31.3927 27.3556 31.7723 27.3556C31.9431 27.3556 32.4649 27.3556 32.4649 27.9202V28.1669H31.7391C30.4154 28.1669 29.7986 28.5892 29.7986 29.4954C29.7986 30.2687 30.3632 30.7336 31.3168 30.7336C31.611 30.7336 32.019 30.6767 32.3701 30.5913L32.389 30.5866L32.408 30.5913L32.5219 30.6103C32.8967 30.6767 33.2762 30.7431 33.6511 30.819V27.8585C33.6558 26.8907 33.077 26.4067 31.9383 26.4067Z" fill="#27292D"/>
<path d="M27.483 26.4164C26.8804 26.4164 26.3823 26.6156 26.1972 26.701L26.1498 26.7248L26.1071 26.6915C25.8509 26.5065 25.4761 26.4116 24.9542 26.4116C24.494 26.4116 24.0623 26.478 23.5926 26.6156C23.1893 26.739 23.0327 26.9335 23.0327 27.2988V30.6816H24.2947V27.555L24.3564 27.536C24.6126 27.4506 24.7644 27.4364 24.9115 27.4364C25.2768 27.4364 25.4619 27.6309 25.4619 28.0105V30.6863H26.7049V27.9583C26.7049 27.797 26.6717 27.7021 26.6669 27.6831L26.6242 27.6025L26.7096 27.5645C26.8994 27.4791 27.1082 27.4364 27.3264 27.4364C27.5779 27.4364 27.8768 27.536 27.8768 28.0105V30.6863H29.1151V27.8871C29.1151 26.8956 28.5837 26.4164 27.483 26.4164Z" fill="#27292D"/>
<path d="M40.7678 21.6956C40.5828 21.6956 40.2744 21.6766 40.0324 21.6291L39.9613 21.6149V19.7883C39.9613 19.6365 39.9328 19.5416 39.928 19.5274L39.8901 19.4515L39.9707 19.4182C39.9897 19.4088 40.0087 19.404 40.0324 19.3945L40.0467 19.385C40.0751 19.3756 40.1036 19.3661 40.1321 19.3566C40.1463 19.3518 40.1558 19.3471 40.1653 19.3471C40.4452 19.2712 40.7014 19.2807 40.8152 19.2712H40.82C41.5933 19.2712 41.6835 19.9591 41.6835 20.4763C41.6787 21.4821 41.1806 21.6956 40.7678 21.6956ZM40.7631 18.2227C40.7536 18.2227 40.7393 18.2227 40.7299 18.2227C40.004 18.2227 39.2591 18.4219 38.9934 18.811C38.8511 19.0007 38.7704 19.238 38.7657 19.5179V21.4014C38.7657 21.5627 38.7324 21.6244 38.7277 21.6386L38.685 21.7193H36.3935V20.4098H36.3887C36.3602 19.0292 35.5442 18.2701 34.3628 18.2701H34.2253H33.2099C33.1625 18.607 33.1245 18.8442 33.0771 19.181H34.2253C34.8278 19.181 35.1457 19.6934 35.1457 20.481V21.7999L35.065 21.7572C35.0508 21.7525 34.9511 21.7193 34.7946 21.7193H32.8114C32.7735 21.9707 32.726 22.2981 32.6738 22.6255H38.7704C38.9792 22.5828 39.2211 22.5448 39.4299 22.5116C39.7383 22.6634 40.3123 22.7441 40.7061 22.7441C42.0298 22.7441 42.8886 21.8569 42.8886 20.4905C42.8838 19.1383 42.0535 18.2511 40.7631 18.2227Z" fill="#27292D"/>
<path d="M30.0734 23.1806H30.1304C31.4541 23.1806 32.0708 22.7441 32.0708 21.6672C32.0708 20.8938 31.5062 20.277 30.5574 20.277H29.338C28.9727 20.277 28.7545 20.0683 28.7545 19.7172C28.7545 19.48 28.8446 19.1858 29.4424 19.1858H32.1088C32.1657 18.8395 32.1942 18.6212 32.2464 18.2749H29.4756C28.1852 18.2749 27.5352 18.8158 27.5352 19.7172C27.5352 20.6092 28.0998 21.0741 29.0486 21.0741H30.268C30.6333 21.0741 30.8515 21.3635 30.8515 21.6672C30.8515 21.8664 30.7614 22.2792 30.1683 22.2792H29.9643L26.0597 22.2697H25.348C24.7454 22.2697 24.3232 21.9281 24.3232 21.1358V20.5902C24.3232 19.7647 24.6506 19.2523 25.348 19.2523H26.5056C26.5578 18.9012 26.591 18.6782 26.6385 18.3461H25.1962H25.0586C23.8772 18.3461 23.0612 19.1384 23.0327 20.519V20.5712V21.1358C23.0612 22.5164 23.8772 23.1759 25.0586 23.1759H25.1962H26.2115L28.3275 23.1806H29.5895H30.0734Z" fill="#27292D"/>
</svg>
