<svg width="48" height="48" viewBox="0 0 48 48" fill="none" xmlns="http://www.w3.org/2000/svg">
<rect width="48" height="48" rx="12" fill="#F9F7F6"/>
<path d="M19.7236 17.3452H28.28V31.3203H19.7236V17.3452Z" fill="#FF5F00"/>
<path d="M20.605 24.3337C20.604 22.988 20.909 21.6597 21.4971 20.4494C22.0852 19.239 22.9409 18.1782 23.9994 17.3474C22.6884 16.317 21.1139 15.6763 19.4559 15.4985C17.7979 15.3206 16.1233 15.6128 14.6235 16.3416C13.1238 17.0705 11.8593 18.2066 10.9746 19.62C10.09 21.0335 9.62085 22.6674 9.62085 24.3349C9.62085 26.0024 10.09 27.6363 10.9746 29.0497C11.8593 30.4632 13.1238 31.5993 14.6235 32.3282C16.1233 33.057 17.7979 33.3492 19.4559 33.1713C21.1139 32.9935 22.6884 32.3528 23.9994 31.3224C22.9405 30.4913 22.0847 29.4302 21.4966 28.2193C20.9085 27.0085 20.6036 25.6797 20.605 24.3336V24.3337Z" fill="#EB001B"/>
<path d="M37.5299 29.8412V29.5549H37.6534V29.4956H37.3596V29.5549H37.4756V29.8412L37.5299 29.8412ZM38.1002 29.8412V29.4957H38.0113L37.9077 29.7425L37.8039 29.4956H37.7151V29.8412H37.7793V29.5795L37.8756 29.8042H37.9422L38.0385 29.5795V29.8412H38.1002Z" fill="#F79E1B"/>
<path d="M38.3792 24.3338C38.3791 26.0014 37.9099 27.6354 37.0251 29.0489C36.1403 30.4624 34.8756 31.5985 33.3756 32.3273C31.8757 33.056 30.2009 33.348 28.5428 33.1699C26.8848 32.9918 25.3102 32.3507 23.9993 31.32C25.0574 30.4884 25.9129 29.4274 26.5011 28.217C27.0893 27.0065 27.395 25.6783 27.395 24.3325C27.395 22.9867 27.0893 21.6585 26.5011 20.4481C25.9129 19.2376 25.0574 18.1766 23.9993 17.345C25.3102 16.3143 26.8848 15.6733 28.5429 15.4952C30.2009 15.3171 31.8757 15.6091 33.3757 16.3378C34.8756 17.0666 36.1403 18.2026 37.0251 19.6162C37.9099 21.0297 38.3792 22.6637 38.3792 24.3313V24.3338Z" fill="#F79E1B"/>
</svg>
