<svg width="11" height="13" viewBox="0 0 11 13" fill="none" xmlns="http://www.w3.org/2000/svg">
    <path d="M1.01435 12L8.04826 0.26018H10.3763L3.34236 12H1.01435ZM8.36421 12.1663C7.90969 12.1663 7.49397 12.0554 7.11706 11.8337C6.75123 11.612 6.45746 11.3182 6.23574 10.9524C6.01402 10.5755 5.90317 10.1598 5.90317 9.70525C5.90317 9.23965 6.01402 8.82947 6.23574 8.47473C6.45746 8.1089 6.75123 7.81513 7.11706 7.59341C7.48289 7.3717 7.89306 7.26084 8.34758 7.26084C8.82426 7.26084 9.24552 7.3717 9.61135 7.59341C9.98827 7.81513 10.2876 8.1089 10.5093 8.47473C10.731 8.82947 10.8419 9.23965 10.8419 9.70525C10.8419 10.1598 10.731 10.5755 10.5093 10.9524C10.2876 11.3293 9.98827 11.6286 9.61135 11.8503C9.24552 12.061 8.82981 12.1663 8.36421 12.1663ZM8.36421 10.4369C8.57484 10.4369 8.74666 10.3704 8.87969 10.2374C9.01272 10.1043 9.07924 9.92696 9.07924 9.70525C9.07924 9.5057 9.01272 9.33942 8.87969 9.20639C8.74666 9.06227 8.57484 8.99022 8.36421 8.99022C8.16466 8.99022 7.99838 9.06227 7.86535 9.20639C7.73232 9.33942 7.6658 9.5057 7.6658 9.70525C7.6658 9.92696 7.73232 10.1043 7.86535 10.2374C7.99838 10.3704 8.16466 10.4369 8.36421 10.4369ZM3.00978 4.98271C2.55527 4.98271 2.13955 4.8774 1.76264 4.66677C1.39681 4.44505 1.10303 4.15128 0.881318 3.78545C0.659603 3.40854 0.548745 2.98728 0.548745 2.52167C0.548745 2.06716 0.659603 1.65699 0.881318 1.29116C1.10303 0.925325 1.39681 0.637096 1.76264 0.426466C2.12847 0.204751 2.53864 0.093894 2.99316 0.093894C3.46984 0.093894 3.8911 0.204751 4.25693 0.426466C4.63385 0.637096 4.93316 0.925325 5.15488 1.29116C5.37659 1.65699 5.48745 2.06716 5.48745 2.52167C5.48745 2.98728 5.37659 3.40854 5.15488 3.78545C4.93316 4.15128 4.63385 4.44505 4.25693 4.66677C3.8911 4.8774 3.47539 4.98271 3.00978 4.98271ZM3.00978 3.25334C3.22041 3.25334 3.39224 3.18682 3.52527 3.05379C3.6583 2.92076 3.72482 2.74893 3.72482 2.5383C3.72482 2.32767 3.6583 2.15585 3.52527 2.02282C3.39224 1.88979 3.22041 1.82327 3.00978 1.82327C2.81024 1.82327 2.64395 1.88979 2.51092 2.02282C2.3779 2.15585 2.31138 2.32767 2.31138 2.5383C2.31138 2.74893 2.3779 2.92076 2.51092 3.05379C2.64395 3.18682 2.81024 3.25334 3.00978 3.25334Z" fill="#060A32"/>
</svg>
