<svg width="19" height="21" viewBox="0 0 19 21" fill="none" xmlns="http://www.w3.org/2000/svg">
<path d="M7.91337 0.365C7.6256 0.561527 7.1764 0.940542 6.9167 1.20024L6.43942 1.67752L6.42538 5.98005L6.40433 10.2826L4.02495 10.7809C2.60014 11.0827 1.62452 11.3284 1.58943 11.3845C1.45607 11.5811 1.11215 12.7672 1.07004 13.1743C1.0209 13.5744 1.02792 13.6025 1.14724 13.5744C1.68769 13.4481 6.25693 12.4935 6.33414 12.4935C6.42538 12.4935 6.43942 12.7111 6.43942 13.8551C6.43942 14.8799 6.41837 15.2238 6.3552 15.2449C6.30606 15.2589 4.99355 15.5397 3.44239 15.8695L0.613813 16.4591L0.480456 16.775C0.34008 17.0978 0.10144 17.9822 0.0172147 18.4735C-0.0178793 18.6981 -0.00384171 18.7402 0.10144 18.7402C0.171628 18.7402 1.61048 18.4384 3.30903 18.0805C5.89196 17.526 6.43942 17.3856 6.71316 17.2172C6.97285 17.0557 7.18342 16.796 7.773 15.9327L8.50997 14.8448L8.53103 13.427C8.54506 12.6409 8.5591 12.0022 8.57314 12.0022C8.58016 12.0022 9.02234 11.9109 9.54875 11.7916C10.0822 11.6793 10.5595 11.5811 10.6156 11.5811C10.7069 11.5811 10.7209 11.8899 10.7209 13.7569V15.9327L10.8823 15.8976C10.9666 15.8766 12.4616 15.5607 14.1952 15.1957C15.9359 14.8308 17.4239 14.5009 17.5081 14.4588C17.6204 14.4096 17.7116 14.2342 17.8731 13.7428C18.0696 13.1182 18.2661 12.2268 18.217 12.1706C18.2029 12.1636 18.0626 12.1777 17.9152 12.2127C17.2694 12.3672 13.009 13.2656 12.9178 13.2656C12.8476 13.2656 12.8265 13.041 12.8265 12.1847V11.0968L13.3389 10.9915C13.6126 10.9283 14.6935 10.6967 15.7323 10.4721L17.6204 10.072L17.7959 9.61579C17.9713 9.13851 18.2591 7.8681 18.2029 7.81195C18.1819 7.7909 17.0238 8.0155 15.62 8.31731C14.2163 8.6121 13.0231 8.85776 12.9669 8.86477C12.8757 8.87881 12.8546 8.3875 12.8265 4.96232L12.7914 1.03881L12.3352 1.34061C12.0825 1.50907 11.6193 1.8951 11.3035 2.20393L10.7209 2.75841L10.7069 6.06427L10.6858 9.37013L9.80845 9.55964C9.32415 9.6579 8.84687 9.76318 8.74159 9.78424L8.54506 9.81933V4.91319C8.54506 2.21095 8.51699 2.28882e-05 8.48891 2.28882e-05C8.45382 2.28882e-05 8.19412 0.161455 7.91337 0.365Z" fill="#060A32"/>
<path d="M15.7745 17.0557C14.5602 17.3154 13.0582 17.6382 12.4475 17.7716L11.3245 18.0102L11.135 18.5296C10.9315 19.0982 10.6858 20.2001 10.749 20.2633C10.7981 20.3124 17.5432 18.8946 17.6064 18.8244C17.7467 18.677 18.231 16.9504 18.231 16.5924C18.231 16.5363 17.9222 16.5924 15.7745 17.0557Z" fill="#060A32"/>
</svg>
