<svg width="77" height="68" viewBox="0 0 77 68" fill="none" xmlns="http://www.w3.org/2000/svg">
<path d="M15.6068 0.0964737C15.0101 0.268852 14.1747 1.15726 14.0023 1.7672C13.9228 2.04566 13.8565 2.93407 13.8565 3.74291V5.22801L11.3106 5.28105C9.01665 5.33409 8.63212 5.38713 7.55808 5.70536C4.16357 6.72637 1.43206 9.43136 0.371274 12.8789L0 14.0723V36.5476V59.023L0.371274 60.2163C1.43206 63.6506 4.12379 66.3424 7.55808 67.4031L8.75146 67.7744H15.6598H22.5549L23.0985 67.4164C23.9207 66.8727 24.2654 66.223 24.2654 65.1888C24.2654 64.1545 23.9207 63.5048 23.0985 62.9611L22.5682 62.6031L15.9913 62.5368C9.50727 62.4705 9.40119 62.4572 8.64538 62.1655C7.1868 61.5688 6.05972 60.402 5.54259 58.9036C5.31717 58.2671 5.30391 57.0738 5.30391 36.5476C5.30391 16.0215 5.31717 14.8281 5.54259 14.1916C6.05972 12.6933 7.1868 11.5131 8.64538 10.943C9.30837 10.691 9.73268 10.638 11.6156 10.585L13.83 10.5319L13.8697 12.3087C13.9228 13.8867 13.9493 14.1253 14.241 14.5762C14.4134 14.8546 14.7979 15.2391 15.0896 15.438C15.5405 15.743 15.7791 15.7961 16.5084 15.7961C17.2377 15.7961 17.4764 15.743 17.9272 15.438C18.2189 15.2391 18.6035 14.8546 18.7759 14.5762C19.0676 14.1253 19.0941 13.8867 19.1339 12.3087L19.1869 10.5584H25.1273H31.0677L31.1207 12.322C31.1605 13.9795 31.187 14.1253 31.5185 14.6292C32.0622 15.4646 32.7119 15.7961 33.7594 15.7961C34.4754 15.7961 34.7141 15.7298 35.1649 15.438C35.4567 15.2391 35.8412 14.8546 36.0136 14.5762C36.3053 14.1253 36.3318 13.8867 36.3716 12.3087L36.4246 10.5584H42.4313H48.438L48.491 12.322C48.5308 13.9795 48.5573 14.1253 48.8888 14.6292C49.4325 15.4646 50.0822 15.7961 51.1297 15.7961C51.8458 15.7961 52.0844 15.7298 52.5353 15.438C52.827 15.2391 53.2115 14.8546 53.3839 14.5762C53.6756 14.1253 53.7021 13.8867 53.7552 12.3087L53.7949 10.5319L56.0756 10.585C57.9983 10.638 58.4491 10.6778 59.0591 10.9297C61.1276 11.7518 62.2016 13.2502 62.5199 15.743C62.7453 17.6127 63.5674 18.448 65.1718 18.448C66.2061 18.448 66.8558 18.1033 67.3995 17.2812C67.731 16.7773 67.7575 16.6447 67.7442 15.4115C67.6912 11.0491 64.5486 7.00482 60.1994 5.70536C59.1254 5.38713 58.7408 5.33409 56.3939 5.28105L53.7949 5.22801L53.7419 3.47772C53.7021 1.8335 53.6756 1.68765 53.3441 1.18378C52.8005 0.361671 52.1507 0.0169144 51.1165 0.0169144C50.0822 0.0169144 49.4325 0.361671 48.8888 1.18378C48.5573 1.68765 48.5308 1.8335 48.491 3.49098L48.438 5.25453H42.4313H36.4246L36.3716 3.49098C36.3318 1.92632 36.3053 1.68765 36.0136 1.23682C35.8412 0.958359 35.4567 0.57383 35.1649 0.374931C34.7141 0.0832138 34.4754 0.0169144 33.7594 0.0169144C32.7119 0.0169144 32.0622 0.348412 31.5185 1.18378C31.187 1.68765 31.1605 1.8335 31.1207 3.49098L31.0677 5.25453H25.1273H19.1869L19.1339 3.49098C19.0941 1.8335 19.0676 1.68765 18.7361 1.18378C18.5372 0.892059 18.1659 0.52079 17.914 0.361671C17.3703 0.0169144 16.2565 -0.102425 15.6068 0.0964737Z" fill="url(#paint0_linear_6794_3884)"/>
<path d="M58.0876 29.7197C54.3471 29.7197 50.6906 30.8289 47.5805 32.907C44.4704 34.9851 42.0463 37.9388 40.6149 41.3946C39.1835 44.8504 38.809 48.653 39.5387 52.3216C40.2684 55.9902 42.0697 59.3601 44.7146 62.005C47.3595 64.6499 50.7294 66.4511 54.398 67.1809C58.0666 67.9106 61.8692 67.5361 65.325 66.1047C68.7808 64.6732 71.7345 62.2492 73.8126 59.1391C75.8907 56.029 76.9999 52.3725 76.9999 48.632C76.9999 43.6162 75.0073 38.8057 71.4606 35.259C67.9138 31.7123 63.1034 29.7197 58.0876 29.7197ZM67.8996 44.6897L55.8645 56.7247C55.5421 57.0471 55.1049 57.2281 54.649 57.2281C54.1931 57.2281 53.7559 57.0471 53.4334 56.7247L48.2755 51.5668C47.9624 51.2426 47.7891 50.8083 47.793 50.3575C47.7969 49.9067 47.9777 49.4755 48.2965 49.1567C48.6153 48.8379 49.0465 48.6571 49.4973 48.6532C49.9481 48.6493 50.3824 48.8226 50.7066 49.1358L54.649 53.0781L65.4685 42.2586C65.7928 41.9454 66.2271 41.7721 66.6779 41.776C67.1287 41.7799 67.5599 41.9607 67.8787 42.2795C68.1974 42.5983 68.3783 43.0295 68.3822 43.4803C68.3861 43.9311 68.2128 44.3654 67.8996 44.6897Z" fill="#060A32"/>
<defs>
<linearGradient id="paint0_linear_6794_3884" x1="33.8734" y1="67.7744" x2="33.8734" y2="0.000198364" gradientUnits="userSpaceOnUse">
<stop stop-color="#E5BF8A"/>
<stop offset="1" stop-color="#F76513"/>
</linearGradient>
</defs>
</svg>
