<svg width="10" height="9" viewBox="0 0 10 9" fill="none" xmlns="http://www.w3.org/2000/svg">
<path d="M5.83662 0.63891L6.71495 2.20904C6.83331 2.42619 7.15101 2.6322 7.41888 2.67674L9.00739 2.91059C10.0228 3.06092 10.2595 3.71793 9.53066 4.37493L8.29099 5.48293C8.08542 5.66667 7.96708 6.02858 8.0356 6.29027L8.39066 7.65996C8.67099 8.74012 8.02314 9.16328 6.95791 8.59536L5.46907 7.80473C5.2012 7.65996 4.75269 7.65996 4.48483 7.80473L2.99599 8.59536C1.93076 9.15771 1.28291 8.74012 1.56323 7.65996L1.91832 6.29027C1.98684 6.03415 1.86848 5.67224 1.66291 5.48293L0.42326 4.37493C-0.305581 3.7235 -0.0688654 3.06649 0.946529 2.91059L2.53502 2.67674C2.80289 2.63777 3.12059 2.42619 3.23895 2.20904L4.1173 0.63891C4.5845 -0.21297 5.35696 -0.21297 5.83662 0.63891Z" fill="url(#paint0_linear_10452_5543)"/>
<defs>
<linearGradient id="paint0_linear_10452_5543" x1="4.97696" y1="0" x2="4.97696" y2="8.84793" gradientUnits="userSpaceOnUse">
<stop stop-color="#E5BF8A"/>
<stop offset="1" stop-color="#F76513"/>
</linearGradient>
</defs>
</svg>
