<svg width="54" height="53" viewBox="0 0 54 53" fill="none" xmlns="http://www.w3.org/2000/svg">
<rect width="54" height="52.7914" rx="12" fill="#060A32" fill-opacity="0.04"/>
<path d="M27.7455 12.1403C27.8392 12.1958 27.8392 12.1958 27.943 12.2756C28.026 12.3374 28.026 12.3374 28.1107 12.4005C28.3077 12.5656 28.4155 12.759 28.5223 12.99C28.5419 13.0309 28.5616 13.0718 28.5819 13.114C28.8037 13.5815 29.0047 14.058 29.2044 14.5352C29.2465 14.6352 29.2887 14.7351 29.3309 14.8351C29.3989 14.9963 29.467 15.1576 29.5349 15.3188C29.8056 15.9615 30.0793 16.6029 30.3529 17.2444C30.4964 17.5809 30.6397 17.9174 30.7831 18.254C30.8242 18.3505 30.8242 18.3505 30.8661 18.4489C31.2186 19.2768 31.5701 20.1052 31.9211 20.9339C32.3505 20.9751 32.7798 21.0161 33.2092 21.0571C33.3694 21.0725 33.5296 21.0878 33.6899 21.1032C34.7198 21.2021 35.75 21.2983 36.7806 21.3907C37.1239 21.4216 37.4672 21.4527 37.8104 21.4839C38.1484 21.5145 38.4865 21.5446 38.8246 21.5743C39.0378 21.5931 39.251 21.6125 39.4642 21.632C39.5637 21.641 39.6632 21.6498 39.7627 21.6584C41.1153 21.7747 41.1153 21.7747 41.6324 22.2794C42.011 22.7754 42.0262 23.2561 41.9834 23.859C41.8947 24.1868 41.7062 24.3934 41.4569 24.6195C41.3959 24.6828 41.3349 24.7462 41.2741 24.8096C41.1073 24.9768 40.9316 25.126 40.7476 25.274C40.4966 25.4758 40.2584 25.6864 40.0236 25.9065C39.7464 26.1662 39.4608 26.4091 39.1644 26.6469C38.9424 26.8319 38.7329 27.0289 38.5221 27.2264C38.3276 27.4076 38.1289 27.5795 37.9212 27.7457C37.6653 27.951 37.4249 28.1681 37.1863 28.3929C36.8992 28.6632 36.6049 28.9172 36.2969 29.1637C36.0704 29.3518 35.8557 29.5515 35.6412 29.7532C35.5964 29.7952 35.5964 29.7952 35.5507 29.838C35.5217 29.8658 35.4927 29.8936 35.4628 29.9222C35.3727 30.0017 35.3727 30.0017 35.27 30.0692C35.1546 30.1418 35.1546 30.1418 35.0217 30.2942C35.0404 30.7235 35.144 31.1366 35.2407 31.5541C35.2571 31.6258 35.2735 31.6975 35.2903 31.7714C35.3349 31.9667 35.3799 32.1618 35.4249 32.357C35.4721 32.5621 35.519 32.7673 35.5659 32.9725C35.6549 33.361 35.7441 33.7495 35.8334 34.1379C35.9446 34.6215 36.0554 35.1052 36.1663 35.5888C36.2795 36.0831 36.3928 36.5773 36.5063 37.0715C36.5238 37.1476 36.5413 37.2236 36.5588 37.2997C36.5909 37.4396 36.623 37.5794 36.6552 37.7193C36.6958 37.8963 36.7364 38.0733 36.7768 38.2504C36.7885 38.3019 36.8003 38.3533 36.8125 38.4063C36.823 38.453 36.8336 38.4998 36.8445 38.548C36.8537 38.5881 36.8628 38.6282 36.8722 38.6695C36.9916 39.2631 36.8597 39.7612 36.5318 40.2578C36.1797 40.5942 35.7923 40.7708 35.3069 40.7843C35.2561 40.7865 35.2052 40.7887 35.1529 40.7909C34.5799 40.7157 34.0823 40.3731 33.5957 40.0823C33.5212 40.0382 33.4467 39.9941 33.3722 39.95C32.7887 39.6043 32.209 39.2524 31.6299 38.8994C31.0702 38.5582 30.5067 38.2241 29.9418 37.8916C29.598 37.689 29.2547 37.4855 28.9115 37.2819C28.8304 37.2338 28.7493 37.1857 28.6682 37.1377C28.5909 37.0919 28.5136 37.0461 28.4364 37.0002C28.3613 36.9557 28.2862 36.9113 28.2111 36.867C28.0284 36.7589 27.8484 36.6483 27.6713 36.5312C27.6373 36.509 27.6033 36.4869 27.5682 36.4641C27.4759 36.4037 27.3844 36.3422 27.2928 36.2806C27.0834 36.1842 26.9918 36.1948 26.7729 36.2614C26.6086 36.3404 26.6086 36.3404 26.4462 36.4455C26.383 36.4845 26.3199 36.5234 26.2549 36.5636C26.2047 36.5951 26.2047 36.5951 26.1536 36.6272C26.0094 36.7177 25.8644 36.8069 25.7194 36.8962C25.6426 36.9435 25.5658 36.991 25.489 37.0384C25.1011 37.2779 24.7092 37.5103 24.3167 37.7421C23.6861 38.1145 23.0579 38.4905 22.4328 38.872C21.7892 39.2647 21.1408 39.6485 20.4892 40.0278C20.0703 40.2718 20.0703 40.2718 19.6576 40.5263C19.2498 40.7798 18.82 40.8305 18.3487 40.766C17.8777 40.6111 17.5334 40.3858 17.2956 39.947C17.276 39.9109 17.2563 39.8749 17.236 39.8377C16.9897 39.2958 17.1218 38.6655 17.2542 38.1101C17.2685 38.0475 17.2827 37.9849 17.2974 37.9204C17.3444 37.7151 17.3925 37.5101 17.4405 37.305C17.4738 37.1603 17.5071 37.0156 17.5403 36.8708C17.6189 36.5289 17.6981 36.1871 17.7777 35.8453C17.8757 35.4247 17.9727 35.0038 18.0696 34.583C18.1693 34.1504 18.2691 33.7179 18.3695 33.2855C18.4451 32.9598 18.5202 32.634 18.595 32.3081C18.6271 32.1687 18.6595 32.0294 18.6921 31.8901C18.7431 31.6725 18.7932 31.4547 18.8433 31.237C18.8591 31.1702 18.8749 31.1034 18.8912 31.0346C18.9053 30.9725 18.9195 30.9104 18.934 30.8464C18.9467 30.7919 18.9594 30.7374 18.9724 30.6812C18.994 30.5138 18.9822 30.3969 18.9337 30.2357C18.8094 30.0914 18.8094 30.0914 18.6485 29.9578C18.6196 29.9324 18.5907 29.9071 18.5609 29.881C18.3191 29.6704 18.0688 29.4704 17.8192 29.2692C17.5817 29.0695 17.3573 28.857 17.1315 28.6444C16.879 28.4079 16.6167 28.1883 16.3466 27.9721C16.1593 27.8164 15.9815 27.6525 15.8038 27.4861C15.5759 27.2726 15.3456 27.0674 15.1018 26.8718C14.7856 26.618 14.4905 26.3451 14.1941 26.0688C13.9222 25.8153 13.6412 25.5729 13.3575 25.3327C12.073 24.2436 12.073 24.2436 12.0065 23.6419C11.9807 23.1576 12.0214 22.7357 12.323 22.3379C12.628 22.0052 12.9837 21.806 13.4351 21.7521C13.4718 21.7477 13.5084 21.7433 13.5462 21.7387C14.2234 21.6603 14.9032 21.6038 15.5821 21.5427C15.7931 21.5237 16.0041 21.5044 16.2151 21.4852C16.6137 21.4488 17.0124 21.4127 17.4111 21.3766C18.1256 21.3119 18.8401 21.247 19.5546 21.182C19.8048 21.1592 20.0551 21.1365 20.3053 21.1139C20.4234 21.1032 20.5415 21.0925 20.6596 21.0818C20.803 21.0688 20.9465 21.0558 21.0899 21.0429C21.2141 21.0316 21.3382 21.0199 21.4623 21.0077C21.5644 20.9981 21.6667 20.9898 21.7692 20.9837C22.0071 20.9681 22.0071 20.9681 22.1907 20.8289C22.2093 20.7828 22.228 20.7367 22.2472 20.6892C22.2696 20.6364 22.292 20.5836 22.3151 20.5292C22.3377 20.4708 22.3602 20.4124 22.3835 20.3523C22.4216 20.2606 22.4216 20.2606 22.4604 20.167C22.5444 19.9638 22.6257 19.7596 22.7071 19.5554C22.7654 19.413 22.824 19.2708 22.8827 19.1286C22.9746 18.9061 23.0663 18.6835 23.1572 18.4605C23.3709 17.9359 23.5901 17.4138 23.8138 16.8934C23.8292 16.8574 23.8447 16.8215 23.8606 16.7846C23.9374 16.606 24.0143 16.4274 24.0912 16.2489C24.2053 15.9843 24.3188 15.7196 24.4323 15.4547C24.4864 15.3287 24.5405 15.2026 24.5948 15.0766C24.7249 14.7743 24.8541 14.4716 24.9804 14.1676C25.0425 14.0185 25.105 13.8696 25.1676 13.7206C25.2114 13.6158 25.2545 13.5107 25.2976 13.4056C25.4871 12.9555 25.6951 12.4705 26.1404 12.2207C26.1786 12.1985 26.2169 12.1762 26.2562 12.1533C26.6537 11.9559 27.3448 11.9466 27.7455 12.1403ZM26.9484 14.4987C26.9347 14.531 26.921 14.5633 26.9068 14.5965C26.3449 15.9175 25.783 17.2385 25.2174 18.5579C25.2017 18.5945 25.186 18.631 25.1699 18.6687C25.0037 19.0562 24.8375 19.4438 24.6711 19.8312C24.6432 19.8962 24.6154 19.9611 24.5867 20.028C24.5326 20.154 24.4785 20.2801 24.4243 20.4061C24.3019 20.6911 24.1807 20.9766 24.0627 21.2636C24.0417 21.3146 24.0206 21.3656 23.9989 21.4182C23.9604 21.5117 23.9222 21.6053 23.8845 21.6992C23.6745 22.2088 23.4022 22.5308 22.8954 22.7514C22.5985 22.8532 22.2929 22.8725 21.9818 22.8995C21.91 22.9064 21.8382 22.9134 21.7642 22.9205C21.5423 22.9417 21.3203 22.9617 21.0983 22.9814C20.9674 22.9936 20.8365 23.0058 20.7057 23.0181C20.384 23.048 20.0623 23.0766 19.7404 23.1048C19.5318 23.123 19.3233 23.1416 19.1147 23.1602C18.5232 23.2129 17.9317 23.2655 17.3401 23.3173C16.9748 23.3494 16.6096 23.3819 16.2443 23.4147C16.1061 23.427 15.9678 23.4391 15.8295 23.4511C15.6377 23.4677 15.446 23.4849 15.2544 23.5023C15.1976 23.507 15.1408 23.5118 15.0824 23.5167C15.0042 23.524 15.0042 23.524 14.9245 23.5314C14.8794 23.5353 14.8342 23.5393 14.7878 23.5434C14.6515 23.5686 14.5495 23.6161 14.429 23.6835C14.9576 24.1803 14.9576 24.1803 15.5113 24.6487C15.7899 24.8722 16.0503 25.1103 16.3107 25.3542C16.5065 25.5365 16.7065 25.7097 16.9154 25.8773C17.194 26.1008 17.4544 26.3389 17.7149 26.5829C17.9094 26.764 18.1081 26.9359 18.3158 27.1022C18.5717 27.3074 18.812 27.5246 19.0507 27.7493C19.435 28.1111 19.8388 28.4433 20.2502 28.7738C20.6151 29.0798 20.8812 29.4103 20.9813 29.8847C21.0206 30.3688 20.937 30.8118 20.8264 31.2812C20.81 31.3536 20.7935 31.426 20.7766 31.5005C20.7319 31.6972 20.6863 31.8937 20.6406 32.0901C20.5927 32.2967 20.5456 32.5034 20.4985 32.7102C20.4092 33.1013 20.3192 33.4923 20.2289 33.8832C20.0673 34.5833 19.9069 35.2836 19.7466 35.984C19.6905 36.2294 19.634 36.4747 19.5773 36.7199C19.5505 36.8358 19.5239 36.9518 19.4972 37.0677C19.4649 37.2085 19.4324 37.3494 19.3996 37.4901C19.3238 37.8214 19.2605 38.1462 19.2262 38.4844C19.7513 38.205 20.2623 37.9043 20.7728 37.5996C20.857 37.5495 20.9413 37.4993 21.0255 37.4492C21.5043 37.1642 21.9824 36.8781 22.4599 36.5908C22.7552 36.4133 23.0512 36.2368 23.3476 36.0609C23.3866 36.0378 23.4255 36.0147 23.4656 35.9909C23.6677 35.871 23.8699 35.7512 24.0722 35.6315C24.4527 35.4063 24.8321 35.1797 25.2087 34.948C25.3071 34.8878 25.3071 34.8878 25.4075 34.8264C25.5287 34.7521 25.6496 34.6772 25.7701 34.6018C26.3215 34.2646 26.8296 34.061 27.475 34.2138C28.0297 34.4529 28.5459 34.7661 29.0582 35.084C29.2019 35.1724 29.3459 35.2606 29.4898 35.3486C29.5446 35.3822 29.5446 35.3822 29.6005 35.4164C29.9906 35.6547 30.3853 35.8851 30.7803 36.1151C31.4462 36.5032 32.1064 36.8999 32.7644 37.3012C33.4172 37.6992 34.0731 38.0919 34.7292 38.4844C34.7967 38.2834 34.778 38.1472 34.7307 37.9422C34.7166 37.8798 34.7025 37.8174 34.688 37.7531C34.672 37.6849 34.656 37.6167 34.6395 37.5465C34.6231 37.4744 34.6066 37.4024 34.5897 37.3282C34.5446 37.1307 34.4988 36.9334 34.453 36.736C34.4051 36.5294 34.3578 36.3227 34.3104 36.116C34.2206 35.7242 34.1302 35.3326 34.0396 34.941C33.9267 34.4528 33.8144 33.9644 33.7022 33.476C33.6629 33.305 33.6236 33.134 33.5843 32.9631C33.5748 32.9216 33.5653 32.8802 33.5555 32.8375C33.4898 32.5519 33.4239 32.2662 33.3579 31.9806C33.3403 31.904 33.3226 31.8274 33.3049 31.7508C33.2722 31.6092 33.2395 31.4676 33.2067 31.326C33.1851 31.2321 33.1851 31.2321 33.163 31.1363C33.1504 31.0821 33.1379 31.0279 33.125 30.9721C32.991 30.3728 32.9604 29.8536 33.2666 29.2996C33.42 29.0874 33.5836 28.9302 33.7895 28.7695C34.0445 28.5654 34.2864 28.353 34.5244 28.1296C34.7511 27.9172 34.9801 27.7132 35.2228 27.519C35.4788 27.3137 35.7191 27.0965 35.9577 26.8718C36.2452 26.6012 36.5399 26.3469 36.8483 26.1001C37.0356 25.9444 37.2133 25.7805 37.391 25.614C37.6189 25.4006 37.8493 25.1953 38.0931 24.9997C38.3761 24.7725 38.6422 24.5311 38.9072 24.2834C39.0775 24.1243 39.2492 23.9687 39.4276 23.8187C39.4795 23.7741 39.5314 23.7295 39.5849 23.6835C39.5849 23.6641 39.5849 23.6448 39.5849 23.625C38.8306 23.5105 38.0722 23.4473 37.3124 23.3818C37.0787 23.3616 36.845 23.341 36.6113 23.3204C35.9475 23.2618 35.2837 23.2036 34.6198 23.1462C34.2515 23.1143 33.8833 23.0821 33.5151 23.0493C33.3211 23.0321 33.1271 23.0151 32.9331 22.9986C32.7168 22.9801 32.5006 22.9609 32.2844 22.9416C32.2214 22.9364 32.1583 22.9312 32.0933 22.9258C31.5426 22.8752 30.8794 22.8139 30.5006 22.3664C30.191 21.9321 30.005 21.441 29.8033 20.9508C29.6829 20.6584 29.5607 20.3668 29.4389 20.0751C29.413 20.0129 29.3871 19.9508 29.3605 19.8868C29.0399 19.1182 28.7106 18.3534 28.3817 17.5883C28.2677 17.323 28.1538 17.0577 28.0399 16.7923C28.0128 16.7292 27.9857 16.6661 27.9577 16.601C27.6577 15.9013 27.3613 15.2001 27.0654 14.4987C27.0268 14.4987 26.9882 14.4987 26.9484 14.4987Z" fill="black"/>
</svg>
