<svg width="48" height="48" viewBox="0 0 48 48" fill="none" xmlns="http://www.w3.org/2000/svg">
<rect width="48" height="48" rx="12" fill="#050A30" fill-opacity="0.04"/>
<path fill-rule="evenodd" clip-rule="evenodd" d="M24 13C17.9249 13 13 17.9249 13 24C13 30.0751 17.9249 35 24 35C30.0751 35 35 30.0751 35 24C35 17.9249 30.0751 13 24 13ZM24 15C28.9706 15 33 19.0294 33 24C33 28.9706 28.9706 33 24 33C19.0294 33 15 28.9706 15 24C15 19.0294 19.0294 15 24 15Z" fill="#050A30"/>
<path fill-rule="evenodd" clip-rule="evenodd" d="M24.0044 27.9999C24.5567 27.9999 25.0044 28.4477 25.0044 28.9999C25.0044 29.5128 24.6184 29.9354 24.121 29.9932L24.0044 29.9999C23.4477 29.9999 23 29.5522 23 28.9999C23 28.4871 23.386 28.0644 23.8834 28.0067L24.0044 27.9999ZM26.6942 18.3853L26.8521 18.541C28.2006 19.912 28.1933 22.066 26.8966 23.4044L26.6615 23.6334C26.3213 23.9576 25.9755 24.2166 25.463 24.5794C24.9813 24.9404 24.8763 25.1122 24.8763 25.6499C24.8763 26.2022 24.4286 26.6499 23.8763 26.6499C23.3241 26.6499 22.8763 26.2022 22.8763 25.6499C22.8763 24.4105 23.3178 23.6877 24.2637 22.9789L24.7156 22.6514C24.8812 22.5286 25.0065 22.4302 25.1191 22.3331L25.37 22.1001C25.968 21.5494 26.0248 20.6685 25.5262 20.0552L25.4263 19.9435L25.3269 19.845C24.536 19.1041 23.2877 19.0842 22.4721 19.7705L22.3403 19.8914L21.8512 20.3804C21.4606 20.7709 20.8274 20.7708 20.437 20.3802C20.0765 20.0197 20.0489 19.4525 20.3539 19.0602L20.4371 18.966L20.9262 18.477C22.497 16.9066 25.0721 16.866 26.6942 18.3853Z" fill="#050A30"/>
</svg>
