<svg width="24" height="24" viewBox="0 0 24 24" fill="none" xmlns="http://www.w3.org/2000/svg">
<path d="M22.8417 9.2073L20.4132 8.8548C20.3304 8.6262 20.2515 8.403 20.154 8.1891L21.6501 6.2025C22.0719 5.6379 21.987 4.8066 21.4482 4.2681L19.6944 2.5119C19.3926 2.2098 18.987 2.0385 18.5799 2.0385C18.2781 2.0385 17.9958 2.1345 17.7609 2.3097L15.7764 3.8007C15.5577 3.6996 15.3348 3.6192 15.1104 3.5358L14.7567 1.1406C14.655 0.4341 14.004 0 13.2423 0H10.7583C9.9966 0 9.3456 0.4341 9.2439 1.1409L8.8899 3.5289C8.6655 3.6126 8.4414 3.6942 8.2221 3.7965L6.2388 2.3085C6.0042 2.1333 5.7207 2.0376 5.4195 2.0376C5.0118 2.0376 4.6047 2.2089 4.3029 2.5116L2.5461 4.2672C2.0064 4.8072 1.9161 5.6388 2.3382 6.2028L3.8202 8.1879C3.7191 8.4063 3.6207 8.6298 3.5379 8.8554L1.1595 9.2079C0.4701 9.3069 0 9.9441 0 10.7223V13.2051C0 13.9833 0.4695 14.6208 1.1586 14.7204L3.5877 15.0732C3.6705 15.3021 3.7491 15.5253 3.8466 15.7389L2.3505 17.7255C1.9284 18.2904 2.0133 19.1217 2.5521 19.6602L4.3059 21.4164C4.6074 21.7188 5.0127 21.891 5.4198 21.891C5.7216 21.891 6.0051 21.7971 6.2397 21.6222L8.2239 20.136C8.4423 20.2371 8.6658 20.3265 8.8902 20.4099L9.2442 22.8228C9.3456 23.5296 9.9966 24 10.7583 24H13.2423C14.004 24 14.655 23.5302 14.757 22.8228L15.111 20.3991C15.3336 20.3163 15.5574 20.2347 15.7791 20.1315L17.7624 21.6192C17.9961 21.7944 18.2799 21.8901 18.5814 21.8901C18.9888 21.8901 19.3965 21.7188 19.6986 21.4164L21.4548 19.6605C21.9945 19.1205 22.0848 18.2895 21.663 17.7246L20.181 15.7401C20.283 15.5202 20.3808 15.2964 20.4633 15.0726L22.8423 14.7201C23.5308 14.6208 24 13.9833 24 13.206V10.7229C24 9.9441 23.5308 9.3069 22.8417 9.2073ZM19.1646 14.1708C19.0281 14.6145 18.8466 15.0513 18.6258 15.468L18.4011 15.8901L20.406 18.5676C20.4009 18.5751 20.3949 18.5844 20.3856 18.5934L18.6294 20.3502C18.6213 20.3586 18.6126 20.3658 18.6054 20.3703L15.9267 18.3705L15.5046 18.5955C15.0744 18.8238 14.6382 19.0089 14.2068 19.1415L13.7499 19.2879L13.2708 22.704C13.2633 22.7064 13.254 22.8 13.2423 22.8H10.7583C10.7475 22.8 10.7382 22.7061 10.7304 22.7046L10.2516 19.3146L9.7938 19.1457C9.3516 19.0104 8.9154 18.8199 8.4966 18.5985L8.0739 18.3693L5.3916 20.3685C5.3853 20.364 5.3787 20.3574 5.3718 20.3505L3.6162 18.5937C3.6084 18.5862 3.6015 18.5775 3.5967 18.5709L5.6043 15.8913L5.3763 15.4677C5.1654 15.0705 4.9851 14.6463 4.839 14.1705L4.6848 13.7142L1.3269 13.242C1.3257 13.2312 1.2 13.2189 1.2 13.206V10.7229C1.2 10.7094 1.3257 10.6974 1.3272 10.6869L4.6608 10.2144L4.8186 9.7581C4.9554 9.3135 5.1456 8.8767 5.3661 8.4606L5.5947 8.0382L3.5925 5.3604C3.5973 5.3529 3.6048 5.3442 3.6141 5.3349L5.3703 3.5787C5.3787 3.5703 5.3877 3.564 5.3952 3.5589L8.0739 5.5602L8.4966 5.337C8.9274 5.1084 9.3636 4.9281 9.7938 4.7958L10.251 4.6587L10.7295 1.26C10.737 1.2579 10.7469 1.2 10.7583 1.2H13.2423C13.2534 1.2 13.2627 1.2573 13.2705 1.2594L13.7496 4.6236L14.2068 4.782C14.6526 4.9191 15.0888 5.1096 15.504 5.3301L15.9267 5.5584L18.6087 3.5589C18.6147 3.5637 18.6216 3.57 18.6285 3.5772L20.3835 5.3334C20.3916 5.3415 20.3988 5.3499 20.4033 5.3568L18.3966 8.0364L18.624 8.4597C18.8319 8.853 19.0179 9.2892 19.1613 9.7572L19.3161 10.2135L22.6728 10.686C22.6743 10.6968 22.8 10.7088 22.8 10.7223V13.2051C22.8 13.2192 22.6743 13.2309 22.6728 13.2414L19.3395 13.7136L19.1646 14.1708Z" fill="#050A30"/>
<path d="M12.0004 17.0912C9.11737 17.0912 6.77197 14.7452 6.77197 11.8622C6.77197 8.97925 9.11737 6.63354 12.0004 6.63354C14.8828 6.63354 17.2291 8.97895 17.2291 11.8622C17.2291 14.7449 14.8828 17.0912 12.0004 17.0912ZM12.0004 7.85605C9.79147 7.85605 7.99417 9.65335 7.99417 11.8622C7.99417 14.0711 9.79147 15.8684 12.0004 15.8684C14.209 15.8684 16.0066 14.072 16.0066 11.8622C16.0063 9.65335 14.209 7.85605 12.0004 7.85605Z" fill="#050A30"/>
</svg>
