<svg width="18" height="13" viewBox="0 0 18 13" fill="none" xmlns="http://www.w3.org/2000/svg">
<path d="M16.1195 0.0661774C15.9884 0.113859 15.8692 0.155581 15.8513 0.155581C15.8394 0.155581 13.6341 2.34894 10.952 5.02508L6.07656 9.90054L3.97856 7.8085C1.79712 5.63898 1.71964 5.57938 1.24878 5.57938C0.360708 5.57938 -0.271075 6.59262 0.116339 7.39129C0.193822 7.55221 1.11766 8.51777 2.84016 10.2343C5.56398 12.9462 5.59974 12.9701 6.08252 12.9701C6.58914 12.9701 6.41629 13.131 12.1143 7.43897C15.9586 3.59463 17.5619 1.96153 17.6453 1.77676C17.8301 1.40723 17.7824 0.900608 17.544 0.554915C17.2222 0.0959787 16.6023 -0.118589 16.1195 0.0661774Z" fill="url(#paint0_linear_7897_1130)"/>
<defs>
<linearGradient id="paint0_linear_7897_1130" x1="8.87913" y1="12.9705" x2="8.87913" y2="0" gradientUnits="userSpaceOnUse">
<stop stop-color="#E5BF8A"/>
<stop offset="1" stop-color="#F76513"/>
</linearGradient>
</defs>
</svg>
