<svg width="30" height="32" viewBox="0 0 30 32" fill="none" xmlns="http://www.w3.org/2000/svg">
<path fill-rule="evenodd" clip-rule="evenodd" d="M15.0001 3.5625C9.64982 3.5625 5.31258 7.89974 5.31258 13.25V14.1301C5.31258 15.0013 5.05472 15.8529 4.57149 16.5778L3.13574 18.7314C1.46937 21.231 2.7415 24.6285 5.63974 25.4189C6.58426 25.6765 7.53675 25.8944 8.49475 26.0726L8.49713 26.079C9.45837 28.6439 12.0275 30.4375 15 30.4375C17.9725 30.4375 20.5416 28.6439 21.5029 26.079L21.5052 26.0726C22.4633 25.8944 23.4158 25.6765 24.3604 25.4189C27.2587 24.6285 28.5308 21.231 26.8644 18.7314L25.4287 16.5778C24.9454 15.8529 24.6876 15.0013 24.6876 14.1301V13.25C24.6876 7.89974 20.3503 3.5625 15.0001 3.5625ZM19.2206 26.4212C16.4169 26.7562 13.5831 26.7562 10.7794 26.4212C11.6681 27.6981 13.2138 28.5625 15 28.5625C16.7862 28.5625 18.3319 27.6981 19.2206 26.4212ZM7.18758 13.25C7.18758 8.93528 10.6854 5.4375 15.0001 5.4375C19.3148 5.4375 22.8126 8.93528 22.8126 13.25V14.1301C22.8126 15.3715 23.18 16.585 23.8686 17.6178L25.3043 19.7715C26.2608 21.2062 25.5306 23.1563 23.8671 23.61C18.0618 25.1933 11.9384 25.1933 6.13308 23.61C4.46955 23.1563 3.73936 21.2062 4.69583 19.7715L6.13158 17.6178C6.82015 16.585 7.18758 15.3715 7.18758 14.1301V13.25Z" fill="#060A32"/>
<circle cx="23.75" cy="7" r="5.625" fill="#F05154" stroke="white" stroke-width="1.25"/>
</svg>
