<svg width="48" height="48" viewBox="0 0 48 48" fill="none" xmlns="http://www.w3.org/2000/svg">
<rect width="48" height="48" rx="12" fill="#F9F7F6"/>
<path d="M18.6308 29.2045L20.4408 18.5829H23.3359L21.5245 29.2045H18.6308ZM31.9843 18.8118C31.4109 18.5966 30.512 18.3657 29.3896 18.3657C26.5288 18.3657 24.5138 19.8063 24.4965 21.871C24.4804 23.3973 25.9352 24.2487 27.0333 24.7568C28.1603 25.2775 28.5391 25.6095 28.5337 26.0743C28.5265 26.7864 27.6338 27.1115 26.8015 27.1115C25.6429 27.1115 25.0272 26.9505 24.0764 26.5541L23.7032 26.3853L23.297 28.763C23.9732 29.0596 25.2236 29.3164 26.522 29.3297C29.5654 29.3297 31.541 27.9055 31.5635 25.7006C31.5743 24.4923 30.803 23.5729 29.1326 22.8147C28.1207 22.3234 27.501 21.9955 27.5076 21.4979C27.5076 21.0564 28.0321 20.5843 29.1657 20.5843C30.1123 20.5696 30.7982 20.7761 31.3326 20.9913L31.592 21.1139L31.9843 18.8118ZM39.4345 18.5827H37.1975C36.5045 18.5827 35.9858 18.7718 35.6815 19.4635L31.3818 29.1975H34.4219C34.4219 29.1975 34.9189 27.8887 35.0313 27.6013C35.3635 27.6013 38.3169 27.6059 38.7391 27.6059C38.8257 27.9778 39.0913 29.1975 39.0913 29.1975H41.7778L39.4345 18.5824V18.5827ZM35.8851 25.4415C36.1246 24.8295 37.0386 22.4723 37.0386 22.4723C37.0216 22.5005 37.2763 21.8573 37.4225 21.4585L37.6181 22.3743C37.6181 22.3743 38.1725 24.9097 38.2884 25.4413H35.8851V25.4415ZM16.173 18.5827L13.3386 25.8262L13.0367 24.3542C12.509 22.6573 10.865 20.8189 9.0271 19.8985L11.6189 29.1876L14.682 29.1841L19.2399 18.5826L16.173 18.5825" fill="#0E4595"/>
<path d="M10.6937 18.5825H6.02529L5.98828 18.8035C9.62028 19.6827 12.0234 21.8074 13.0213 24.3607L12.0061 19.4796C11.8309 18.807 11.3226 18.6062 10.6938 18.5828" fill="#F2AE14"/>
</svg>
