<svg width="16" height="16" viewBox="0 0 16 16" fill="none" xmlns="http://www.w3.org/2000/svg">
<path opacity="0.998" fill-rule="evenodd" clip-rule="evenodd" d="M7.76586 0.00476513C8.31634 -0.0307053 8.79766 0.131849 9.20976 0.492425C9.66506 0.947576 10.1203 1.40272 10.5756 1.85787C11.3301 1.87088 12.0846 1.88388 12.839 1.89689C13.4959 2.08543 13.9187 2.5081 14.1073 3.1648C14.1483 3.95739 14.1808 4.75063 14.2049 5.54458C14.6997 6.01976 15.1875 6.5009 15.6683 6.98806C16.1106 7.66426 16.1106 8.34051 15.6683 9.01672C15.1881 9.53575 14.6939 10.0429 14.1854 10.5382C14.1807 11.3065 14.1547 12.0738 14.1073 12.84C13.9187 13.4967 13.4959 13.9193 12.839 14.1079C12.0846 14.1209 11.3301 14.1339 10.5756 14.1469C10.0672 14.6682 9.54685 15.1754 9.01464 15.6684C8.33823 16.1105 7.66178 16.1105 6.98537 15.6684C6.47797 15.1741 5.98365 14.667 5.50244 14.1469C4.72195 14.1339 3.94147 14.1209 3.16098 14.1079C2.50408 13.9193 2.08129 13.4967 1.89268 12.84C1.84535 12.0738 1.81933 11.3065 1.81463 10.5382C1.30617 10.0429 0.811855 9.53575 0.331707 9.01672C-0.110569 8.34051 -0.110569 7.66426 0.331707 6.98806C0.812507 6.5009 1.30031 6.01976 1.79512 5.54458C1.81914 4.75063 1.85166 3.95739 1.89268 3.1648C2.08129 2.5081 2.50408 2.08543 3.16098 1.89689C3.94147 1.88388 4.72195 1.87088 5.50244 1.85787C5.98365 1.33779 6.47797 0.830623 6.98537 0.336374C7.22849 0.175493 7.48867 0.064958 7.76586 0.00476513Z" fill="url(#paint0_linear_10555_1636)"/>
<path fill-rule="evenodd" clip-rule="evenodd" d="M9.63935 5.89571C10.4646 5.87016 10.8093 6.26028 10.6735 7.06609C10.6314 7.16347 10.5793 7.25452 10.5174 7.33918C9.65125 8.21806 8.7732 9.08286 7.88325 9.93353C7.57609 10.0963 7.26389 10.1092 6.94666 9.97255C6.41886 9.48391 5.90506 8.98322 5.4052 8.47055C5.12828 7.90971 5.26487 7.48708 5.81496 7.20264C6.11369 7.13905 6.38686 7.19109 6.63447 7.35869C6.85562 7.57977 7.07673 7.80082 7.29788 8.02191C7.33691 8.04793 7.37593 8.04793 7.41496 8.02191C8.02522 7.37281 8.64961 6.73562 9.28813 6.11028C9.4077 6.03775 9.52477 5.96624 9.63935 5.89571Z" fill="#FDFEFE"/>
<defs>
<linearGradient id="paint0_linear_10555_1636" x1="8" y1="0" x2="8" y2="16" gradientUnits="userSpaceOnUse">
<stop stop-color="#E5BF8A"/>
<stop offset="1" stop-color="#F76513"/>
</linearGradient>
</defs>
</svg>
