<svg width="32" height="33" viewBox="0 0 32 33" fill="none" xmlns="http://www.w3.org/2000/svg">
<path d="M16.0019 0.0363273C16.0654 0.0364465 16.129 0.0365657 16.1944 0.0366886C17.1101 0.0395832 18.0005 0.0666575 18.8998 0.252956C18.9554 0.263483 19.0109 0.27401 19.0681 0.284857C21.5628 0.760574 23.9078 1.81257 25.8974 3.39203C25.9537 3.43578 26.01 3.47954 26.068 3.52461C26.4463 3.82512 26.8027 4.14614 27.1563 4.47518C27.2212 4.53532 27.2212 4.53532 27.2874 4.59668C27.5853 4.877 27.8566 5.17275 28.1209 5.48475C28.1545 5.52379 28.1881 5.56282 28.2227 5.60304C29.5399 7.14274 30.5515 8.92527 31.1946 10.8473C31.2128 10.9018 31.2311 10.9563 31.2499 11.0125C31.4458 11.6078 31.6084 12.2074 31.7341 12.8215C31.744 12.8695 31.7539 12.9176 31.764 12.967C31.9572 13.9742 32.0038 14.9702 31.9998 15.9933C31.9996 16.0886 31.9996 16.0886 31.9994 16.1858C31.9965 17.1015 31.9694 17.9919 31.7831 18.8912C31.7726 18.9467 31.7621 19.0023 31.7512 19.0595C31.1042 22.4525 29.3063 25.8217 26.6167 28.0469C26.5537 28.1018 26.4906 28.1568 26.4257 28.2134C25.9448 28.6316 25.4503 29.0054 24.9164 29.3548C24.8226 29.4168 24.8226 29.4168 24.7269 29.48C23.0408 30.5554 21.1851 31.3175 19.2268 31.7214C19.1537 31.7366 19.1537 31.7366 19.079 31.7521C18.078 31.9469 17.0848 31.9974 16.0673 31.9952C15.973 31.9952 15.973 31.9952 15.8767 31.9951C13.2801 31.9884 10.4099 31.4396 8.19593 29.9985C7.83903 29.8692 7.41433 30.0474 7.05995 30.146C7.00935 30.1598 6.95875 30.1737 6.90661 30.1879C6.7398 30.2336 6.5731 30.2797 6.40639 30.3258C6.28843 30.3582 6.17047 30.3906 6.0525 30.4229C5.74116 30.5084 5.42991 30.5942 5.11869 30.68C4.80911 30.7654 4.49944 30.8504 4.18978 30.9354C2.84404 31.3051 2.84404 31.3051 1.49935 31.6784C1.40969 31.7034 1.32003 31.7284 1.23036 31.7533C1.06797 31.7986 0.905628 31.8441 0.743359 31.8898C0.673113 31.9094 0.602866 31.9289 0.530492 31.9491C0.439933 31.9745 0.439933 31.9745 0.347545 32.0005C0.196192 32.0361 0.196192 32.0361 0 32.0361C0.081591 31.6024 0.179977 31.1773 0.297577 30.7521C0.313761 30.6929 0.329944 30.6337 0.346617 30.5726C0.399636 30.3788 0.452973 30.1851 0.506319 29.9914C0.543645 29.8552 0.580953 29.7191 0.618244 29.5829C0.696278 29.2981 0.774456 29.0134 0.852753 28.7287C0.952467 28.3661 1.05195 28.0035 1.15133 27.6408C1.24689 27.2921 1.34255 26.9435 1.43823 26.5948C1.45616 26.5295 1.4741 26.4641 1.49257 26.3968C1.52745 26.2697 1.56235 26.1427 1.59729 26.0156C1.63019 25.8959 1.663 25.7762 1.69572 25.6565C1.76598 25.4003 1.83759 25.1451 1.91594 24.8913C1.94057 24.8107 1.96519 24.7301 1.99057 24.647C2.01206 24.5795 2.03355 24.5119 2.05569 24.4423C2.1347 24.0401 1.98004 23.7387 1.79434 23.3914C0.606878 21.0782 0.0348542 18.6264 0.0449607 16.0342C0.0450799 15.9707 0.0451991 15.9071 0.0453219 15.8417C0.0482166 14.926 0.0752909 14.0355 0.26159 13.1362C0.272117 13.0807 0.282644 13.0252 0.29349 12.968C0.769208 10.4733 1.8212 8.12833 3.40067 6.13872C3.44442 6.08241 3.48817 6.0261 3.53325 5.96808C3.83375 5.58979 4.15477 5.23335 4.48381 4.87982C4.52391 4.83655 4.564 4.79329 4.60531 4.74871C4.88564 4.45084 5.18138 4.17946 5.49338 3.91521C5.53242 3.88162 5.57146 3.84802 5.61168 3.81341C7.70206 2.02503 10.1791 0.89272 12.8547 0.306092C12.9001 0.295949 12.9455 0.285807 12.9923 0.275357C13.99 0.0673918 14.9863 0.0323676 16.0019 0.0363273Z" fill="#25D366"/>
<path d="M16.0019 0.0363273C16.0654 0.0364465 16.129 0.0365657 16.1944 0.0366886C17.1101 0.0395832 18.0005 0.0666575 18.8998 0.252956C18.9554 0.263483 19.0109 0.27401 19.0681 0.284857C21.5628 0.760574 23.9078 1.81257 25.8974 3.39203C25.9537 3.43578 26.01 3.47954 26.068 3.52461C26.4463 3.82512 26.8027 4.14614 27.1563 4.47518C27.2212 4.53532 27.2212 4.53532 27.2874 4.59668C27.5853 4.877 27.8566 5.17275 28.1209 5.48475C28.1545 5.52379 28.1881 5.56282 28.2227 5.60304C29.5399 7.14274 30.5515 8.92527 31.1946 10.8473C31.2128 10.9018 31.2311 10.9563 31.2499 11.0125C31.4458 11.6078 31.6084 12.2074 31.7341 12.8215C31.744 12.8695 31.7539 12.9176 31.764 12.967C31.9572 13.9742 32.0038 14.9702 31.9998 15.9933C31.9996 16.0886 31.9996 16.0886 31.9994 16.1858C31.9965 17.1015 31.9694 17.9919 31.7831 18.8912C31.7726 18.9467 31.7621 19.0023 31.7512 19.0595C31.1042 22.4525 29.3063 25.8217 26.6167 28.0469C26.5537 28.1018 26.4906 28.1568 26.4257 28.2134C25.9448 28.6316 25.4503 29.0054 24.9164 29.3548C24.8226 29.4168 24.8226 29.4168 24.7269 29.48C23.0408 30.5554 21.1851 31.3175 19.2268 31.7214C19.1537 31.7366 19.1537 31.7366 19.079 31.7521C18.078 31.9469 17.0848 31.9974 16.0673 31.9952C15.973 31.9952 15.973 31.9952 15.8767 31.9951C13.2801 31.9884 10.4099 31.4396 8.19593 29.9985C7.83903 29.8692 7.41433 30.0474 7.05995 30.146C7.00935 30.1598 6.95875 30.1737 6.90661 30.1879C6.7398 30.2336 6.5731 30.2797 6.40639 30.3258C6.28843 30.3582 6.17047 30.3906 6.0525 30.4229C5.74116 30.5084 5.42991 30.5942 5.11869 30.68C4.80911 30.7654 4.49944 30.8504 4.18978 30.9354C2.84404 31.3051 2.84404 31.3051 1.49935 31.6784C1.40969 31.7034 1.32003 31.7284 1.23036 31.7533C1.06797 31.7986 0.905628 31.8441 0.743359 31.8898C0.673113 31.9094 0.602866 31.9289 0.530492 31.9491C0.439933 31.9745 0.439933 31.9745 0.347545 32.0005C0.196192 32.0361 0.196192 32.0361 0 32.0361C0.081591 31.6024 0.179977 31.1773 0.297577 30.7521C0.313761 30.6929 0.329944 30.6337 0.346617 30.5726C0.399636 30.3788 0.452973 30.1851 0.506319 29.9914C0.543645 29.8552 0.580953 29.7191 0.618244 29.5829C0.696278 29.2981 0.774456 29.0134 0.852753 28.7287C0.952467 28.3661 1.05195 28.0035 1.15133 27.6408C1.24689 27.2921 1.34255 26.9435 1.43823 26.5948C1.45616 26.5295 1.4741 26.4641 1.49257 26.3968C1.52745 26.2697 1.56235 26.1427 1.59729 26.0156C1.63019 25.8959 1.663 25.7762 1.69572 25.6565C1.76598 25.4003 1.83759 25.1451 1.91594 24.8913C1.94057 24.8107 1.96519 24.7301 1.99057 24.647C2.01206 24.5795 2.03355 24.5119 2.05569 24.4423C2.1347 24.0401 1.98004 23.7387 1.79434 23.3914C0.606878 21.0782 0.0348542 18.6264 0.0449607 16.0342C0.0450799 15.9707 0.0451991 15.9071 0.0453219 15.8417C0.0482166 14.926 0.0752909 14.0355 0.26159 13.1362C0.272117 13.0807 0.282644 13.0252 0.29349 12.968C0.769208 10.4733 1.8212 8.12833 3.40067 6.13872C3.44442 6.08241 3.48817 6.0261 3.53325 5.96808C3.83375 5.58979 4.15477 5.23335 4.48381 4.87982C4.52391 4.83655 4.564 4.79329 4.60531 4.74871C4.88564 4.45084 5.18138 4.17946 5.49338 3.91521C5.53242 3.88162 5.57146 3.84802 5.61168 3.81341C7.70206 2.02503 10.1791 0.89272 12.8547 0.306092C12.9001 0.295949 12.9455 0.285807 12.9923 0.275357C13.99 0.0673918 14.9863 0.0323676 16.0019 0.0363273ZM6.70269 6.43767C6.61288 6.52369 6.52231 6.60893 6.43168 6.69409C4.48229 8.57265 3.2028 11.2603 2.81209 13.921C2.79877 14.0032 2.78545 14.0854 2.77173 14.1701C2.35097 16.9848 2.87858 20.3181 4.44805 22.7315C4.49852 22.8097 4.49852 22.8097 4.55001 22.8895C4.61572 22.9896 4.68315 23.0886 4.75252 23.1862C4.97275 23.5177 4.97275 23.5177 4.96572 23.7445C4.93262 23.8966 4.8884 24.0407 4.83941 24.1884C4.81583 24.2843 4.7931 24.3805 4.7712 24.4768C4.60535 25.156 4.41872 25.8271 4.22024 26.4974C3.92722 27.3574 3.92722 27.3574 3.79305 28.243C5.08831 27.9552 5.08831 27.9552 6.36399 27.5932C6.76893 27.4656 7.17662 27.3496 7.5861 27.2376C7.6518 27.2188 7.71749 27.2 7.78518 27.1806C7.87884 27.1554 7.87884 27.1554 7.9744 27.1298C8.05823 27.1066 8.05823 27.1066 8.14377 27.0829C8.44139 27.0516 8.66898 27.2109 8.91653 27.3604C10.488 28.294 12.1222 28.9325 13.9296 29.224C14.0384 29.2415 14.0384 29.2415 14.1493 29.2594C14.7713 29.3515 15.3782 29.3783 16.006 29.3752C16.0546 29.3752 16.1031 29.3751 16.1531 29.375C16.8646 29.3728 17.5521 29.3334 18.2493 29.1843C18.371 29.1598 18.4939 29.1421 18.6168 29.1249C21.1818 28.7461 23.5273 27.3264 25.3742 25.5618C25.4314 25.5072 25.4887 25.4527 25.5476 25.3965C25.9363 25.0174 26.2864 24.619 26.6167 24.1884C26.6599 24.133 26.6599 24.133 26.704 24.0765C28.125 22.2374 29.0153 19.981 29.2798 17.676C29.2955 17.5399 29.315 17.4043 29.3353 17.2688C29.7181 14.1661 28.7785 10.8073 26.9437 8.29684C26.9175 8.26058 26.8914 8.22432 26.8644 8.18696C26.4783 7.6559 26.0524 7.16798 25.5984 6.69406C25.5124 6.60424 25.4272 6.51368 25.342 6.42305C24.9096 5.97433 24.4366 5.59148 23.9354 5.22316C23.8983 5.19586 23.8612 5.16855 23.8229 5.14042C22.7669 4.37632 21.5853 3.7813 20.3487 3.37326C20.2148 3.32896 20.0818 3.28255 19.9488 3.23569C15.3563 1.66329 10.1398 3.14516 6.70269 6.43767Z" fill="#EAEAEA"/>
<path d="M11.1012 9.65383C11.1535 9.65248 11.2057 9.65114 11.2596 9.64975C11.5869 9.64759 11.8251 9.66795 12.0985 9.86637C12.3581 10.2103 12.5255 10.5963 12.684 10.994C12.7066 11.0495 12.7293 11.1051 12.7525 11.1623C12.8238 11.3378 12.8945 11.5136 12.965 11.6893C13.0367 11.8664 13.1085 12.0435 13.1803 12.2205C13.2248 12.3302 13.2691 12.44 13.3133 12.5498C13.4183 12.8134 13.4183 12.8134 13.5373 13.0708C13.5506 13.2152 13.5506 13.2152 13.5536 13.3856C13.5553 13.4413 13.557 13.497 13.5587 13.5544C13.511 13.9334 13.2343 14.1817 12.9814 14.4483C12.5889 14.8259 12.5889 14.8259 12.3969 15.3107C12.5077 16.2603 13.5826 17.1925 14.2891 17.7615C14.9369 18.2686 15.6328 18.6867 16.3821 19.0261C16.4243 19.0457 16.4666 19.0652 16.5101 19.0854C16.8699 19.2411 17.1547 19.2721 17.5301 19.1569C17.8056 18.964 17.9489 18.7171 18.1233 18.4334C18.1898 18.3269 18.2567 18.2206 18.3241 18.1146C18.3531 18.0676 18.3821 18.0205 18.412 17.9721C18.5569 17.779 18.6791 17.6623 18.9224 17.6255C19.3985 17.636 19.8602 17.6889 20.3304 17.7631C20.4069 17.7751 20.4833 17.787 20.562 17.7993C20.7178 17.824 20.8735 17.8489 21.0291 17.8742C21.2394 17.9079 21.4499 17.939 21.6606 17.9698C21.7826 17.9893 21.9047 18.0089 22.0267 18.0288C22.1097 18.0402 22.1097 18.0402 22.1943 18.0518C22.5424 18.1125 22.7304 18.2178 22.944 18.5024C23.0605 18.6977 23.1179 18.8918 23.1711 19.1119C23.2177 19.3818 23.2177 19.3818 23.3469 19.6106C23.3315 20.3343 22.781 20.8875 22.3005 21.3763C22.2588 21.4189 22.2171 21.4615 22.1741 21.5053C21.4402 22.1995 20.4978 22.4541 19.511 22.4412C16.4728 22.3515 13.405 20.5287 11.3327 18.3989C9.90701 16.859 8.63174 14.8171 8.67742 12.6611C8.72939 11.5758 9.32217 10.7309 10.0712 9.99717C10.4288 9.6962 10.6388 9.65676 11.1012 9.65383Z" fill="#FDFEFE"/>
</svg>
