<svg width="48" height="49" viewBox="0 0 48 49" fill="none" xmlns="http://www.w3.org/2000/svg">
<circle cx="24" cy="24" r="24" fill="#F3F3F3"/>
<path d="M21.8455 0.120911C14.7602 0.756607 8.12507 4.67674 4.1652 10.5569C-1.80771 19.4302 -1.31769 30.833 5.38362 39.1766C10.9725 46.1163 20.2563 49.4007 29.0104 47.5069C31.924 46.8844 35.5395 45.2952 37.9499 43.5867C39.5656 42.4345 42.3998 39.6004 43.552 37.9846C44.6247 36.4749 46.2537 33.2302 46.8232 31.4952C48.7435 25.5488 48.3065 19.1389 45.565 13.5368C41.8303 5.85543 34.4138 0.809582 25.8319 0.107666C24.0572 -0.0380135 23.5672 -0.0380135 21.8455 0.120911ZM25.8187 2.88884C30.9572 3.37886 35.3409 5.43164 38.9564 9.03392C44.0817 14.1725 46.2007 21.2711 44.7042 28.3962C44.0287 31.6674 42.3998 34.9916 40.2146 37.6138L39.4861 38.4879L38.0823 37.0841C36.0163 35.0048 34.0562 33.6804 31.2883 32.5415L30.1229 32.0647L30.6261 31.7336C31.9108 30.886 33.5265 28.926 34.2416 27.3367C35.023 25.6283 35.2349 24.5953 35.2217 22.5557C35.2084 20.94 35.1687 20.5559 34.8641 19.5362C33.6192 15.4704 30.6923 12.6362 26.6662 11.6429C25.3684 11.3118 23.1964 11.2456 21.925 11.4972C18.6671 12.1197 15.7667 14.2255 14.0715 17.192C13.5285 18.1456 12.9458 20.0792 12.7736 21.4565C12.5087 23.7344 13.0782 26.2905 14.3364 28.4492C14.8396 29.2968 16.5348 31.1377 17.4221 31.7866L17.8724 32.1177L17.3559 32.2899C16.2699 32.6342 14.2834 33.6407 12.9987 34.5016C12.1379 35.071 11.1049 35.9451 10.0984 36.9252L8.53562 38.4747L7.93966 37.7992C7.03909 36.7795 5.56903 34.528 4.90685 33.1639C3.58248 30.3828 2.99976 27.9327 2.89381 24.6747C2.81435 21.973 3.02624 20.1984 3.72816 17.8807C6.40339 9.06041 14.3893 3.02128 23.7129 2.76965C24.0837 2.76965 25.024 2.82262 25.8187 2.88884ZM26.4941 14.5433C27.6728 14.9141 28.1628 15.1658 29.1561 15.9074C30.5599 16.9669 31.7253 18.7283 32.2021 20.5162C32.4935 21.6287 32.4935 23.6152 32.2021 24.7277C31.0234 29.1114 26.6662 31.8263 22.2561 30.8993C19.1703 30.2503 16.4951 27.6546 15.7799 24.6085C15.6607 24.1317 15.568 23.2444 15.568 22.622C15.568 20.2513 16.3362 18.4105 18.0181 16.7153C19.7928 14.9141 21.8455 14.093 24.3089 14.199C25.0902 14.2387 25.9114 14.3711 26.4941 14.5433ZM26.9576 34.2102C29.8712 34.7002 32.8511 36.1305 35.0892 38.1303C36.1355 39.0706 37.2877 40.3023 37.2877 40.501C37.2877 40.7129 34.3344 42.5935 33.0497 43.1894C26.2557 46.3679 18.4419 45.7719 12.2174 41.6267C10.3765 40.4082 10.3897 40.6069 12.0717 38.9514C13.6344 37.3887 14.7072 36.6205 16.5613 35.6935C19.806 34.0778 23.2096 33.601 26.9576 34.2102Z" fill="#060A32" fill-opacity="0.1"/>
</svg>
