<svg width="93" height="93" viewBox="0 0 93 93" fill="none" xmlns="http://www.w3.org/2000/svg">
    <path d="M42.238 0.176369C33.4825 0.957458 24.9813 4.3543 17.7153 9.9491C14.1732 12.6738 9.57746 17.7963 6.92538 21.9743C5.78099 23.7726 3.5467 28.3502 2.74744 30.53C1.85736 32.9641 0.894623 36.706 0.422334 39.5942C-0.140778 43.1364 -0.140778 49.8574 0.422334 53.3996C1.23976 58.4131 2.52947 62.4457 4.72742 66.9325C7.12519 71.8188 9.61379 75.2883 13.6101 79.3028C17.6245 83.2991 21.094 85.7877 25.9804 88.1854C30.4671 90.3834 34.4997 91.6731 39.5132 92.4905C43.0554 93.0536 49.7764 93.0536 53.3186 92.4905C58.3321 91.6731 62.3647 90.3834 66.8515 88.1854C71.7378 85.7877 75.2073 83.2991 79.2218 79.3028C83.2181 75.2883 85.7066 71.8188 88.1044 66.9325C89.7029 63.6809 90.5022 61.5556 91.3741 58.286C92.464 54.0717 92.791 51.5104 92.8091 46.8602C92.8091 42.7005 92.6638 40.9021 91.9917 37.4145C91.5558 35.1438 90.4477 31.3474 90.0481 30.7479C89.7029 30.203 88.5585 29.6035 87.8864 29.6035C86.9419 29.6217 85.8883 30.2393 85.4887 31.0386C84.9982 31.9831 85.0164 32.4373 85.5613 34.2719C86.851 38.5044 87.3415 41.9012 87.3597 46.6786C87.3597 51.9646 86.4877 56.7056 84.6349 61.3922C79.1491 75.2157 67.0331 84.8249 52.2287 87.1137C49.3405 87.5678 43.4914 87.5678 40.6031 87.1137C25.7987 84.8249 13.6827 75.2157 8.19692 61.3922C6.32593 56.6511 5.47218 51.9827 5.47218 46.4969C5.47218 42.2645 5.74466 40.0847 6.74373 36.1611C10.3949 21.9379 21.8569 10.4577 36.0619 6.82473C46.7974 4.08183 57.4602 5.55318 67.2148 11.148C68.232 11.7293 68.8678 11.9836 69.3582 11.9836C70.8841 11.9836 71.9921 11.0027 72.1738 9.5313C72.3009 8.29609 71.7378 7.47867 70.0485 6.47959C61.7653 1.59323 51.7927 -0.677383 42.238 0.176369Z" fill="#E0EDC3"/>
    <path d="M82.9636 12.2199C82.7275 12.3289 74.3535 22.1379 64.3446 33.9996L46.1797 55.5796L44.9808 54.4352C40.3306 49.9848 26.2891 36.906 25.9076 36.6517C25.2537 36.2158 23.7823 36.2158 23.0921 36.6699C21.8568 37.4873 21.4754 39.3038 22.311 40.4845C22.5289 40.7933 25.0357 43.2456 27.8876 45.9158C30.7395 48.5861 35.753 53.2726 39.0227 56.3425C45.4531 62.3914 45.7074 62.5731 47.1061 62.1553C47.5057 62.0281 48.1233 61.5922 48.6138 61.0835C50.067 59.5758 86.3423 16.3978 86.633 15.8165C87.523 14.0909 86.1788 11.9656 84.217 12.0019C83.7629 12.0019 83.1816 12.0927 82.9636 12.2199Z" fill="#E0EDC3"/>
</svg>
