<svg width="174" height="174" viewBox="0 0 174 174" fill="none" xmlns="http://www.w3.org/2000/svg">
<rect x="2" y="2" width="170" height="170" rx="85" fill="#667085" fill-opacity="0.05"/>
<rect x="1" y="1" width="172" height="172" rx="86" stroke="#050A30" stroke-opacity="0.24" stroke-width="2" stroke-dasharray="5 5"/>
<path fill-rule="evenodd" clip-rule="evenodd" d="M74.3098 77.8591C75.2945 76.3593 77.4382 76.3204 78.4955 77.6893L78.6805 77.9624L96.9449 108.872C97.6686 110.096 97.2625 111.676 96.0378 112.399C94.9005 113.071 93.4574 112.769 92.6776 111.742L92.5099 111.492L76.3468 84.1384L63.3957 103.868C62.6707 104.973 61.242 105.337 60.0895 104.758L59.8289 104.608C58.7247 103.883 58.3603 102.454 58.939 101.302L59.0894 101.041L74.3098 77.8591Z" fill="#9B9DAC"/>
<path fill-rule="evenodd" clip-rule="evenodd" d="M95.2298 88.0321C96.16 86.7897 97.9452 86.6616 99.045 87.6883L99.2697 87.926L112.16 103.381C112.469 103.751 112.666 104.199 112.733 104.672L112.758 105.03V107.606C112.758 109.029 111.604 110.182 110.182 110.182C108.861 110.182 107.772 109.188 107.624 107.907L107.606 107.606V105.963L97.401 93.728L91.6324 101.432C90.8454 102.483 89.4093 102.762 88.2974 102.128L88.0267 101.95C86.9756 101.163 86.6971 99.7273 87.331 98.6154L87.5086 98.3448L95.2298 88.0321Z" fill="#9B9DAC"/>
<path fill-rule="evenodd" clip-rule="evenodd" d="M80.8183 68.9698C82.2409 68.9698 83.3941 70.123 83.3941 71.5455C83.3941 72.8665 82.3997 73.9552 81.1187 74.104L80.8183 74.1213H66.1365C64.9497 74.1213 63.9787 74.9929 63.8363 76.11L63.8183 76.394V107.909C63.8183 109.063 64.6981 110.023 65.8447 110.164L66.1365 110.182H105.288C106.475 110.182 107.446 109.31 107.588 108.193L107.606 107.909C107.606 106.487 108.759 105.333 110.182 105.333C111.604 105.333 112.758 106.487 112.758 107.909C112.758 111.868 109.643 115.095 105.726 115.321L105.288 115.333H66.1365C62.1636 115.333 58.907 112.248 58.6795 108.346L58.6668 107.909V76.394C58.6668 72.4349 61.7815 69.2078 65.6981 68.9824L66.1365 68.9698H80.8183Z" fill="#9B9DAC"/>
<path fill-rule="evenodd" clip-rule="evenodd" d="M102.455 58.6667C103.776 58.6667 104.864 59.6611 105.013 60.9421L105.03 61.2425V68.9698H112.758C114.18 68.9698 115.333 70.123 115.333 71.5455C115.333 72.8665 114.339 73.9552 113.058 74.104L112.758 74.1213H105.03V81.8486C105.03 83.2711 103.877 84.4243 102.455 84.4243C101.134 84.4243 100.045 83.43 99.8962 82.149L99.8789 81.8486V74.1213H92.1516C90.7291 74.1213 89.5759 72.9681 89.5759 71.5455C89.5759 70.2246 90.5702 69.1359 91.8513 68.9871L92.1516 68.9698H99.8789V61.2425C99.8789 59.82 101.032 58.6667 102.455 58.6667Z" fill="#9B9DAC"/>
<path fill-rule="evenodd" clip-rule="evenodd" d="M74.3098 77.8591C75.2945 76.3593 77.4382 76.3204 78.4955 77.6893L78.6805 77.9624L96.9449 108.872C97.6686 110.096 97.2625 111.676 96.0378 112.399C94.9005 113.071 93.4574 112.769 92.6776 111.742L92.5099 111.492L76.3468 84.1384L63.3957 103.868C62.6707 104.973 61.242 105.337 60.0895 104.758L59.8289 104.608C58.7247 103.883 58.3603 102.454 58.939 101.302L59.0894 101.041L74.3098 77.8591Z" fill="#9B9DAC"/>
<path fill-rule="evenodd" clip-rule="evenodd" d="M95.2298 88.0321C96.16 86.7897 97.9452 86.6616 99.045 87.6883L99.2697 87.926L112.16 103.381C112.469 103.751 112.666 104.199 112.733 104.672L112.758 105.03V107.606C112.758 109.029 111.604 110.182 110.182 110.182C108.861 110.182 107.772 109.188 107.624 107.907L107.606 107.606V105.963L97.401 93.728L91.6324 101.432C90.8454 102.483 89.4093 102.762 88.2974 102.128L88.0267 101.95C86.9756 101.163 86.6971 99.7273 87.331 98.6154L87.5086 98.3448L95.2298 88.0321Z" fill="#9B9DAC"/>
<path fill-rule="evenodd" clip-rule="evenodd" d="M80.8183 68.9698C82.2409 68.9698 83.3941 70.123 83.3941 71.5455C83.3941 72.8665 82.3997 73.9552 81.1187 74.104L80.8183 74.1213H66.1365C64.9497 74.1213 63.9787 74.9929 63.8363 76.11L63.8183 76.394V107.909C63.8183 109.063 64.6981 110.023 65.8447 110.164L66.1365 110.182H105.288C106.475 110.182 107.446 109.31 107.588 108.193L107.606 107.909C107.606 106.487 108.759 105.333 110.182 105.333C111.604 105.333 112.758 106.487 112.758 107.909C112.758 111.868 109.643 115.095 105.726 115.321L105.288 115.333H66.1365C62.1636 115.333 58.907 112.248 58.6795 108.346L58.6668 107.909V76.394C58.6668 72.4349 61.7815 69.2078 65.6981 68.9824L66.1365 68.9698H80.8183Z" fill="#9B9DAC"/>
<path fill-rule="evenodd" clip-rule="evenodd" d="M102.455 58.6667C103.776 58.6667 104.864 59.6611 105.013 60.9421L105.03 61.2425V68.9698H112.758C114.18 68.9698 115.333 70.123 115.333 71.5455C115.333 72.8665 114.339 73.9552 113.058 74.104L112.758 74.1213H105.03V81.8486C105.03 83.2711 103.877 84.4243 102.455 84.4243C101.134 84.4243 100.045 83.43 99.8962 82.149L99.8789 81.8486V74.1213H92.1516C90.7291 74.1213 89.5759 72.9681 89.5759 71.5455C89.5759 70.2246 90.5702 69.1359 91.8513 68.9871L92.1516 68.9698H99.8789V61.2425C99.8789 59.82 101.032 58.6667 102.455 58.6667Z" fill="#9B9DAC"/>
</svg>
